<?xml version="1.0" encoding="UTF-8" standalone="no"?>
<!-- Created with Inkscape (http://www.inkscape.org/) -->

<svg
   width="2400mm"
   height="800mm"
   viewBox="0 0 2400 800"
   version="1.1"
   id="svg347"
   xml:space="preserve"
   inkscape:version="1.2.1 (9c6d41e410, 2022-07-14)"
   sodipodi:docname="all-logos.svg"
   xmlns:inkscape="http://www.inkscape.org/namespaces/inkscape"
   xmlns:sodipodi="http://sodipodi.sourceforge.net/DTD/sodipodi-0.dtd"
   xmlns="http://www.w3.org/2000/svg"
   xmlns:svg="http://www.w3.org/2000/svg"><sodipodi:namedview
     id="namedview349"
     pagecolor="#ffffff"
     bordercolor="#666666"
     borderopacity="1.0"
     inkscape:showpageshadow="2"
     inkscape:pageopacity="0.0"
     inkscape:pagecheckerboard="0"
     inkscape:deskcolor="#d1d1d1"
     inkscape:document-units="mm"
     showgrid="false"
     showguides="true"
     inkscape:zoom="0.10773189"
     inkscape:cx="3889.2847"
     inkscape:cy="1875.0251"
     inkscape:window-width="1920"
     inkscape:window-height="1017"
     inkscape:window-x="1920"
     inkscape:window-y="39"
     inkscape:window-maximized="1"
     inkscape:current-layer="layer1" /><defs
     id="defs344"><rect
       x="45.124817"
       y="167.3873"
       width="401.62701"
       height="55.943256"
       id="rect595-4" /><rect
       x="50.426846"
       y="360.26733"
       width="577.67004"
       height="74.390968"
       id="rect533" /><style
       id="style648">.cls-1{fill:#231f20;}.cls-2{fill:#233873;}.cls-3{fill:#c70708;}.cls-4{fill:#fff;}.cls-5{stroke:#000;stroke-miterlimit:10;stroke-width:5px;}</style><rect
       x="50.426846"
       y="360.26733"
       width="577.67004"
       height="74.390968"
       id="rect533-6" /></defs><g
     inkscape:label="Layer 1"
     inkscape:groupmode="layer"
     id="layer1"><g
       id="g653"
       transform="matrix(5.4850975,0,0,5.4850975,-162.57378,-509.11219)"><path
         style="fill:#78a63a;fill-opacity:1;stroke:none;stroke-width:0.193002;stroke-opacity:1"
         d="m 153.79957,167.56236 c -2.05477,-3.49019 -7.36995,-4.56564 -11.20624,-4.38528 -5.80287,-0.48673 -12.48103,3.2419 -16.1298,-1.29417 -3.1393,-3.90271 -6.36097,-5.71362 -0.95465,-5.69671 2.05361,0.006 8.37709,0.86129 4.31204,-1.84217 -3.30198,-2.82595 -11.37766,-2.54159 -12.01061,-2.7343 -0.86468,-0.10364 -6.02567,-0.81091 -3.25316,-1.84471 0.24981,0.0198 9.85702,0.10403 14.42012,1.79825 3.77301,1.70395 5.92779,5.44949 8.48758,8.43601 4.38145,1.1798 9.06806,1.19643 13.39071,2.63267 1.88613,0.91604 4.98505,4.77493 3.74235,5.86348 l -0.34808,-0.37785 z"
         id="path659"
         sodipodi:nodetypes="ccscccccccccc" /><path
         style="fill:#000000;stroke:none;stroke-width:0.748506;stroke-dasharray:none;stroke-opacity:1"
         d="m 108.04453,168.86422 c 1.67048,-10.15283 2.08532,-16.79027 1.54273,-18.70726 -0.54749,-3.17593 -4.88605,-5.00744 -1.45326,-4.47722 3.50849,0.6603 3.85751,1.96953 4.20298,6.536 0.0337,5.44441 -0.35108,11.35501 -0.99799,16.6244 -0.9582,0.0224 -1.14948,0.0747 -3.29446,0.0241 z"
         id="path657" /><path
         style="fill:#78a63a;fill-opacity:1;stroke-width:0.114491"
         d="m 95.998807,163.33318 c -16.832223,0.49025 -33.678558,1.13211 -50.50228,1.55761 18.512946,-0.92074 39.612289,-1.86791 58.126283,-2.78899 0.76328,-1.7242 0.70769,-3.17827 0.95997,-4.90508 -18.989559,0.98078 -39.888494,2.29675 -58.884182,3.24994 19.72959,-1.44835 39.521267,-2.72867 59.258922,-4.15051 2.07624,-0.3587 1.494,0.32752 1.42784,0.81049 -0.38326,1.94715 -0.46463,3.90091 -1.16665,5.84505 -2.83453,0.3047 -6.209201,0.22737 -9.219903,0.38149 z"
         id="path655-4" /><path
         style="fill:#000000;stroke-width:0.193002"
         d="m 46.917353,168.25342 c 18.537936,-0.70989 37.093022,-0.82004 55.630927,-1.53076 0.82607,-4.82469 1.39843,-9.69283 1.71382,-14.57757 -19.014282,0.83133 -37.963296,2.75619 -56.981884,3.50848 7.523234,-0.73313 61.073064,-5.97953 61.077554,-5.92583 -0.35508,4.89601 -1.51813,14.37006 -1.68718,19.32973 -19.936123,-0.26775 -41.941379,-0.27416 -59.753237,-0.80405 z"
         id="path655" /><path
         style="fill:#78a63a;fill-opacity:1;stroke:none;stroke-width:0.0605896;stroke-dasharray:none;stroke-opacity:1"
         d="m 125.14903,172.41442 c -25.14041,-0.0889 -47.477397,-0.0135 -72.616023,-0.31775 1.603174,-0.23501 6.985961,-0.17681 10.12788,-0.25481 23.413563,-0.128 46.825943,-0.56805 70.239503,-0.57985 -1.49842,0.45077 -4.32432,0.93133 -7.75136,1.15241 z"
         id="path443" /><g
         aria-label="Multitransports"
         transform="matrix(0.42368822,0,0,0.27179953,26.986392,128.41306)"
         id="text593-4"
         style="font-size:39.9172px;line-height:1.25;font-family:Impact;-inkscape-font-specification:'Impact, Normal';white-space:pre;shape-inside:url(#rect595-4);stroke:#78a63a;stroke-width:0.914639"><path
           d="m 72.080803,175.79148 v 31.55564 h -7.172621 v -21.30347 l -2.865151,21.30347 h -5.087104 l -3.021077,-20.8162 v 20.8162 h -7.172621 v -31.55564 h 10.622496 q 0.46778,2.84566 0.994032,6.70484 l 1.130468,8.03022 1.871118,-14.73506 z"
           id="path3184" /><path
           d="m 93.169869,181.4828 v 25.86432 h -8.010727 l 0.136436,-2.14399 q -0.818614,1.30588 -2.027045,1.96857 -1.18894,0.6432 -2.748206,0.6432 -1.773664,0 -2.943113,-0.62371 -1.16945,-0.62371 -1.734683,-1.65672 -0.545743,-1.03301 -0.682179,-2.14399 -0.136436,-1.13047 -0.136436,-4.4634 V 181.4828 h 7.874291 v 17.60021 q 0,3.02108 0.175418,3.58631 0.194908,0.56523 1.013522,0.56523 0.877087,0 1.033014,-0.58472 0.175417,-0.58472 0.175417,-3.76173 v -17.4053 z"
           id="path3186" /><path
           d="m 104.10422,175.79148 v 31.55564 h -8.108184 v -31.55564 z"
           id="path3188" /><path
           d="m 115.23348,178.03292 v 4.07359 h 2.1245 v 4.09307 h -2.1245 v 13.83848 q 0,2.5533 0.25338,2.84566 0.27287,0.29236 2.20246,0.29236 v 4.17104 h -3.177 q -2.68974,0 -3.83969,-0.2144 -1.14996,-0.23389 -2.02705,-1.03302 -0.87709,-0.81861 -1.09148,-1.85162 -0.2144,-1.05251 -0.2144,-4.91169 v -13.13681 h -1.69571 v -4.09307 h 1.69571 v -4.07359 z"
           id="path3190" /><path
           d="m 127.20084,175.79148 v 4.11256 h -8.10818 v -4.11256 z m 0,5.69132 v 25.86432 h -8.10818 V 181.4828 Z"
           id="path3192" /><path
           d="m 138.3301,178.03292 v 4.07359 h 2.1245 v 4.09307 h -2.1245 v 13.83848 q 0,2.5533 0.25338,2.84566 0.27287,0.29236 2.20246,0.29236 v 4.17104 h -3.177 q -2.68973,0 -3.83969,-0.2144 -1.14996,-0.23389 -2.02705,-1.03302 -0.87708,-0.81861 -1.09148,-1.85162 -0.2144,-1.05251 -0.2144,-4.91169 v -13.13681 h -1.6957 v -4.09307 h 1.6957 v -4.07359 z"
           id="path3194" /><path
           d="m 150.06357,181.4828 -0.31185,3.3914 q 1.71519,-3.64478 4.97016,-3.85918 v 9.10221 q -2.16348,0 -3.17701,0.58473 -1.01352,0.58472 -1.24741,1.63723 -0.23389,1.03301 -0.23389,4.79474 v 10.21319 h -7.87429 V 181.4828 Z"
           id="path3196" /><path
           d="m 163.51224,191.50108 h -7.38702 v -1.73468 q 0,-3.00159 0.68218,-4.61933 0.70167,-1.63722 2.78719,-2.88464 2.08551,-1.24741 5.41844,-1.24741 3.99562,0 6.02267,1.42283 2.02704,1.40334 2.43635,3.46937 0.40931,2.04653 0.40931,8.45901 v 12.98089 h -7.6599 v -2.29992 q -0.72116,1.38385 -1.87111,2.08552 -1.13047,0.68218 -2.70923,0.68218 -2.06602,0 -3.80071,-1.14996 -1.71519,-1.16945 -1.71519,-5.08711 v -2.12449 q 0,-2.90414 0.91607,-3.95664 0.91607,-1.05251 4.54136,-2.45584 3.87867,-1.52029 4.15154,-2.04654 0.27288,-0.52625 0.27288,-2.14399 0,-2.02705 -0.31186,-2.63126 -0.29236,-0.62371 -0.99403,-0.62371 -0.79912,0 -0.99403,0.52626 -0.19491,0.50676 -0.19491,2.67024 z m 2.49483,3.54733 q -1.89061,1.38385 -2.20247,2.31941 -0.29236,0.93556 -0.29236,2.68973 0,2.00756 0.25338,2.59228 0.27287,0.58472 1.05251,0.58472 0.74065,0 0.95505,-0.44828 0.23389,-0.46778 0.23389,-2.41687 z"
           id="path3198" /><path
           d="m 184.60131,181.4828 -0.13644,2.37788 q 0.8576,-1.42283 2.08552,-2.1245 1.24741,-0.72116 2.86515,-0.72116 2.02704,0 3.31344,0.95505 1.28639,0.95505 1.65672,2.41686 0.37032,1.44232 0.37032,4.83373 v 18.12646 h -7.87429 v -17.91207 q 0,-2.67024 -0.17542,-3.25496 -0.17541,-0.58473 -0.97454,-0.58473 -0.8381,0 -1.0525,0.68218 -0.2144,0.66269 -0.2144,3.58631 v 17.48327 h -7.87429 V 181.4828 Z"
           id="path3200" /><path
           d="m 213.54517,189.74691 h -6.97771 v -1.40334 q 0,-1.79316 -0.2144,-2.26094 -0.19491,-0.48727 -1.01353,-0.48727 -0.66268,0 -0.99403,0.44829 -0.33134,0.4288 -0.33134,1.30589 0,1.18894 0.15593,1.75417 0.17541,0.54574 0.99403,1.20843 0.8381,0.66269 3.41089,1.92959 3.43039,1.67621 4.50238,3.15752 1.072,1.4813 1.072,4.30747 0,3.15751 -0.81862,4.77525 -0.81861,1.59824 -2.7482,2.47533 -1.9101,0.8576 -4.61933,0.8576 -3.00159,0 -5.14558,-0.93556 -2.12449,-0.93556 -2.92362,-2.53381 -0.79912,-1.59825 -0.79912,-4.83372 v -1.24741 h 6.97771 v 1.63722 q 0,2.08552 0.25338,2.70923 0.27287,0.6237 1.05251,0.6237 0.8381,0 1.16945,-0.4093 0.33134,-0.4288 0.33134,-1.77367 0,-1.85163 -0.4288,-2.3194 -0.44829,-0.46778 -4.58034,-2.7677 -3.46937,-1.94908 -4.22951,-3.52784 -0.76014,-1.59825 -0.76014,-3.78122 0,-3.09904 0.81861,-4.56085 0.81862,-1.4813 2.7677,-2.28043 1.96857,-0.79912 4.56085,-0.79912 2.57279,0 4.36595,0.66269 1.81264,0.6432 2.76769,1.71519 0.97454,1.072 1.16945,1.98806 0.2144,0.91607 0.2144,2.86515 z"
           id="path3202" /><path
           d="m 224.26512,181.4828 -0.13643,2.28043 q 1.0525,-1.38385 2.31941,-2.06603 1.2669,-0.68218 2.76769,-0.68218 1.83214,0 3.15752,0.99403 1.34486,0.97454 1.67621,2.26094 0.33134,1.28639 0.33134,4.36594 v 10.89537 q 0,3.52784 -0.4288,5.02863 -0.40931,1.4813 -1.71519,2.37788 -1.28639,0.87709 -3.11853,0.87709 -1.46181,0 -2.70923,-0.68218 -1.24741,-0.68218 -2.28042,-2.02705 v 5.92521 H 216.2544 V 181.4828 Z m 2.24145,7.52346 q 0,-2.39737 -0.17542,-2.90414 -0.17542,-0.50676 -0.97454,-0.50676 -0.77963,0 -1.01352,0.58473 -0.2144,0.58472 -0.2144,2.82617 v 10.71995 q 0,2.3389 0.23389,2.92362 0.23389,0.58472 1.01352,0.58472 0.76014,0 0.93556,-0.52625 0.19491,-0.54574 0.19491,-2.61177 z"
           id="path3204" /><path
           d="m 254.78774,190.56552 v 6.33452 q 0,3.48885 -0.35083,5.12608 -0.35084,1.61774 -1.5008,3.04057 -1.14995,1.40334 -2.9626,2.08552 -1.79316,0.66269 -4.13205,0.66269 -2.61177,0 -4.42442,-0.56524 -1.81265,-0.58472 -2.82617,-1.73468 -0.99403,-1.16945 -1.42283,-2.80668 -0.4288,-1.65672 -0.4288,-4.95067 v -6.62687 q 0,-3.60581 0.77964,-5.63285 0.77963,-2.02705 2.80667,-3.25497 2.02705,-1.22792 5.18456,-1.22792 2.65075,0 4.54136,0.79912 1.9101,0.77964 2.94312,2.04654 1.03301,1.2669 1.40334,2.61177 0.38981,1.34487 0.38981,4.09307 z m -7.87429,-1.94908 q 0,-1.98806 -0.2144,-2.49482 -0.2144,-0.52626 -0.91607,-0.52626 -0.70167,0 -0.93556,0.52626 -0.23389,0.50676 -0.23389,2.49482 v 11.675 q 0,1.83214 0.23389,2.39737 0.23389,0.54574 0.91607,0.54574 0.70167,0 0.91607,-0.50676 0.23389,-0.50676 0.23389,-2.18297 z"
           id="path3206" /><path
           d="m 265.25431,181.4828 -0.31185,3.3914 q 1.71519,-3.64478 4.97016,-3.85918 v 9.10221 q -2.16348,0 -3.177,0.58473 -1.01353,0.58472 -1.24742,1.63723 -0.23389,1.03301 -0.23389,4.79474 v 10.21319 h -7.87429 V 181.4828 Z"
           id="path3208" /><path
           d="m 280.69105,178.03292 v 4.07359 h 2.1245 v 4.09307 h -2.1245 v 13.83848 q 0,2.5533 0.25338,2.84566 0.27287,0.29236 2.20246,0.29236 v 4.17104 h -3.177 q -2.68974,0 -3.83969,-0.2144 -1.14996,-0.23389 -2.02705,-1.03302 -0.87709,-0.81861 -1.09149,-1.85162 -0.21439,-1.05251 -0.21439,-4.91169 v -13.13681 h -1.69571 v -4.09307 h 1.69571 v -4.07359 z"
           id="path3210" /><path
           d="m 300.63015,189.74691 h -6.97772 v -1.40334 q 0,-1.79316 -0.2144,-2.26094 -0.1949,-0.48727 -1.01352,-0.48727 -0.66269,0 -0.99403,0.44829 -0.33134,0.4288 -0.33134,1.30589 0,1.18894 0.15592,1.75417 0.17542,0.54574 0.99403,1.20843 0.83811,0.66269 3.4109,1.92959 3.43038,1.67621 4.50238,3.15752 1.07199,1.4813 1.07199,4.30747 0,3.15751 -0.81861,4.77525 -0.81862,1.59824 -2.74821,2.47533 -1.9101,0.8576 -4.61932,0.8576 -3.00159,0 -5.14558,-0.93556 -2.1245,-0.93556 -2.92362,-2.53381 -0.79913,-1.59825 -0.79913,-4.83372 v -1.24741 h 6.97772 v 1.63722 q 0,2.08552 0.25338,2.70923 0.27287,0.6237 1.0525,0.6237 0.83811,0 1.16945,-0.4093 0.33135,-0.4288 0.33135,-1.77367 0,-1.85163 -0.4288,-2.3194 -0.44829,-0.46778 -4.58034,-2.7677 -3.46937,-1.94908 -4.22951,-3.52784 -0.76014,-1.59825 -0.76014,-3.78122 0,-3.09904 0.81861,-4.56085 0.81861,-1.4813 2.7677,-2.28043 1.96857,-0.79912 4.56085,-0.79912 2.57279,0 4.36594,0.66269 1.81265,0.6432 2.7677,1.71519 0.97454,1.072 1.16945,1.98806 0.2144,0.91607 0.2144,2.86515 z"
           id="path3212" /></g><path
         id="path1775"
         style="fill:#000000;fill-opacity:1;stroke:none;stroke-width:0.693097"
         d="m 141.83614,166.34433 a 7.3637648,4.2631922 0 0 0 -7.3272,3.86178 h 2.15646 a 5.2216716,3.0230446 0 0 1 5.17074,-2.62154 5.2216716,3.0230446 0 0 1 5.17126,2.62154 h 2.15594 a 7.3637648,4.2631922 0 0 0 -7.3272,-3.86178 z" /></g><g
       id="g4877"
       transform="matrix(0.76229009,0,0,0.76229009,1725.4558,259.93225)"><path
         class="cls-1"
         d="M 663.2,353 675,221.18 a 9.84,9.84 0 0 1 9.12,-9 c 4.74,-0.32 11,-0.63 17.79,-0.63 3.05,0 7.81,0.31 7.81,0.31 l -12.78,140.8 z"
         id="path654"
         style="fill:#78a63a;fill-opacity:1"
         inkscape:export-filename="../static/img.src/logo-light.svg"
         inkscape:export-xdpi="48"
         inkscape:export-ydpi="48" /><path
         class="cls-1"
         d="m 760.59,353 8.95,-128.39 a 184.3,184.3 0 0 1 21.27,8.5 9.86,9.86 0 0 1 5.61,9.57 L 789,352.57 Z"
         id="path656"
         style="fill:#78a63a;fill-opacity:1" /><path
         class="cls-1"
         d="m 712.22,352.57 12,-129.44 a 9.88,9.88 0 0 1 11.8,-8.75 c 4.63,1 9,1.94 13.82,3.31 A 9.83,9.83 0 0 1 757,228 l -10.32,124.57 z"
         id="path658"
         style="fill:#78a63a;fill-opacity:1" /><path
         class="cls-2"
         d="m 629.15,189.1 0.48,-0.74 -1,0.43 z"
         id="path660" /><path
         class="cls-2"
         d="m 807.35,230.23 v 0 a 2,2 0 0 0 -0.2,-0.36 c 0,0 -0.01,0.13 0.2,0.36 z"
         id="path662" /><path
         class="cls-3"
         d="m 524,82.4 a 31.34,31.34 0 0 1 1.29,3.43 45.22,45.22 0 0 1 1.58,7.58 V 93 93.58 93.41 q 0.07,3.65 0.12,7.29 c 4.7,0.13 8.95,2.23 12.87,5 v -1.28 c -0.08,-3.86 -0.11,-7.72 -0.14,-11.58 v -0.25 -0.33 a 52.34,52.34 0 0 0 -2,-10.26 36.67,36.67 0 0 0 -2,-5.13 27.91,27.91 0 0 0 -3,-5 22.39,22.39 0 0 0 -2.05,-2.35 22.64,22.64 0 0 0 -2.51,-2.12 17.74,17.74 0 0 0 -2.94,-1.7 16.94,16.94 0 0 0 -3.22,-1.11 c -0.56,-0.13 -1.12,-0.22 -1.69,-0.31 a 40.51,40.51 0 0 0 -7.82,-0.17 l 0.47,11.56 c 0.59,-0.07 1.16,-0.13 1.71,-0.15 a 11.15,11.15 0 0 1 1.54,0 10.18,10.18 0 0 1 1.34,0.21 l 0.6,0.17 0.55,0.22 a 6.39,6.39 0 0 1 1,0.55 8.41,8.41 0 0 1 0.94,0.72 9,9 0 0 1 0.91,0.93 c 0.29,0.36 0.6,0.74 0.88,1.16 A 20.73,20.73 0 0 1 524,82.4 Z"
         id="path664"
         style="fill:#000000;fill-opacity:1" /><path
         class="cls-4"
         d="m 454.8,237.79 v -66.08 c 29.7,-2.58 59.66,-5 74.83,-3.87 -36.51,13.01 -55.72,25.88 -74.83,69.95 z"
         id="path666" /><path
         class="cls-4"
         d="m 549.23,169 0.67,31 c 9.29,-18.58 28,-24.1 51,-21.08 -19.63,-6.4 -32.45,-9.81 -51.67,-9.92 z"
         id="path668" /><path
         class="cls-2"
         d="m 256.27,254.44 -1.34,0.06 a 10.82,10.82 0 0 0 1.34,-0.06 z"
         id="path670" /><path
         style="fill:#78a63a;fill-opacity:1;stroke:#000000;stroke-width:0.507027px;stroke-linecap:butt;stroke-linejoin:miter;stroke-opacity:1"
         d="M 351.22106,199.98996 63.153144,230.48278 351.57118,205.23239 Z"
         id="path2145-3-6" /><path
         style="fill:#78a63a;fill-opacity:1;stroke:#000000;stroke-width:0.507027px;stroke-linecap:butt;stroke-linejoin:miter;stroke-opacity:1"
         d="M 351.82237,166.0455 63.754455,196.53832 352.17249,171.28793 Z"
         id="path2145-3" /><path
         class="cls-3"
         d="m 817.73,233 c -0.26,-6 -0.35,-6.69 -2.05,-10.52 -1.7,-3.83 -7.86,-10.54 -7.86,-10.54 a 71.15,71.15 0 0 0 -9.73,-9.82 93.4,93.4 0 0 0 -11,-7.88 108.78,108.78 0 0 0 -11.72,-6.32 129.1,129.1 0 0 0 -12.18,-4.92 c -4.16,-1.35 -8.33,-2.61 -12.55,-3.64 A 231.8,231.8 0 0 0 725.1,174.73 209,209 0 0 0 699.2,173 163.36,163.36 0 0 0 673,174.82 c -2.19,0.36 -4.39,0.74 -6.59,1.22 -1.08,0.22 -2.27,0.52 -3.4,0.78 l -1.51,0.38 -0.86,0.23 -0.78,0.22 c -4.18,1.15 -8.31,2.44 -12.38,3.83 -6.07,2.06 -12,4.37 -17.85,6.85 l -0.48,0.74 -0.53,-0.31 q -2.5,1.07 -5,2.17 c -15.48,7 -30.24,15.06 -44.76,23.22 -14.52,8.16 -28.86,16.38 -43.44,23.95 -7.29,3.77 -14.64,7.38 -22.1,10.65 -7.46,3.27 -15.23,5.68 -22.79,8.54 -27.22,10.28 -99.16,9.21 -132.61,13 V 95.250004 l 6.25,-0.69 v 0 l 1.5,0.37 c 2,0.55 4.34,1.19 6.82,2 1.19,0.39 2.42,0.8 3.68,1.24 L 376.38,114.17 q 0.16,13.23 0.44,26.44 l 0.58,26.44 1.24,52.88 0.69,26.44 0.41,14.65 c 3.8,-0.22 7.89,-0.43 12.32,-0.65 V 246.15 L 392,219.7 l -0.32,-52.88 -0.2,-26.45 q -0.14,-13.23 -0.34,-26.44 l -0.43,-26.449996 -0.22,-13.21 c -0.09,-4.41 -0.11,-8.82 -0.15,-13.23 v -0.28 -0.38 a 59.69,59.69 0 0 0 -2.21,-11.66 40.45,40.45 0 0 0 -2.24,-5.86 32.05,32.05 0 0 0 -3.46,-5.72 26.67,26.67 0 0 0 -2.43,-2.68 26.07,26.07 0 0 0 -2.83,-2.46 19.91,19.91 0 0 0 -3.36,-1.95 20.51,20.51 0 0 0 -3.72,-1.3 c -0.64,-0.15 -1.29,-0.25 -1.93,-0.36 a 46.45,46.45 0 0 0 -8.94,-0.18 l 0.54,13.2 c 0.68,-0.07 1.33,-0.15 2,-0.17 a 14.59,14.59 0 0 1 1.76,0 9.78,9.78 0 0 1 1.53,0.25 l 0.68,0.18 c 0.21,0.1 0.42,0.17 0.62,0.26 a 7.34,7.34 0 0 1 1.14,0.62 10,10 0 0 1 1.07,0.83 11.71,11.71 0 0 1 1.05,1.06 c 0.33,0.42 0.68,0.84 1,1.33 a 24.46,24.46 0 0 1 1.82,3.31 36.91,36.91 0 0 1 1.48,3.93 52.16,52.16 0 0 1 1.8,8.65 c 0,-0.15 0,-0.3 0,-0.46 v 0.66 -0.2 c 0.09,4.26 0.18,8.51 0.22,12.76 l 0.09,6.75 -1.84,0.2 c -4.4,0.47 -8.23,0.87 -11.37,1.31 l -4.85,0.66 v -1 l -0.96,1.18 -4.1,0.56 -1,1.25 L 46.750001,147.58 345.84,105.52 v 0.07 l -117.21,20.08 102.7,-11.67 -65.63,12.39 80.16,-8 v 0.16 l -48.8,7.89 48.81,-1.45 0.19,113.31 -47.58,7.69 45.77,-1.37 c -42.07,3.76 -79.95,9.28 -88,9.87 l 75.17,-2.76 -103.92,9.7 113.83,-4.18 L 30.760001,275.76 344.05,274.9 c 39.65,0.1 115.92,1.74 149.3,-8.09 8.19,-2.31 16.17,-5.2 24,-8.29 7.83,-3.09 15.55,-6.49 23.15,-10 15.2,-7.09 29.93,-14.88 44.74,-22.23 14.81,-7.35 29.64,-14.49 44.76,-20.43 q 5.32,-2.12 10.68,-4 c -0.07,3.07 -0.15,6.5 -0.23,10.23 -0.35,15.65 -0.82,36.51 -1.29,57.37 -0.47,20.86 -0.94,41.72 -1.29,57.37 -0.18,7.82 -0.32,14.34 -0.43,18.91 0,2.28 -0.08,4.07 -0.17,5.29 -0.09,1.22 -0.15,1.87 -0.15,1.87 l 1.27,0.08 c 0,0 0,-0.66 0.08,-1.87 0.08,-1.21 0.27,-3 0.51,-5.27 0.48,-4.54 1.16,-11 2,-18.82 1.64,-15.56 3.83,-36.31 6,-57.06 2.17,-20.75 4.38,-41.5 6,-57.07 0.64,-6.06 1.2,-11.32 1.64,-15.5 3.21,-0.93 6.43,-1.8 9.67,-2.54 l 0.72,-0.17 0.66,-0.15 1.51,-0.32 c 0.9,-0.16 1.72,-0.34 2.69,-0.5 1.87,-0.33 3.78,-0.57 5.68,-0.81 a 171.94,171.94 0 0 1 23.44,-1 233.63,233.63 0 0 1 23.73,1.89 211.15,211.15 0 0 1 23.38,4.37 c 3.84,0.94 7.67,1.89 11.43,3 1.89,0.52 3.78,1.06 5.65,1.62 l 5.58,1.79 c 32.56,10.84 36.55,21.77 38.65,25.65 l 0.19,0.47 a 19.59,19.59 0 0 1 0.7,3.21 c 0.34,2.39 0.53,5 0.65,7.54 0.22,5.17 0.19,10.46 0.07,15.75 -0.25,10.59 -0.85,21.24 -1.59,31.88 -0.74,10.64 -1.79,21.27 -2.84,31.9 l -1.66,15.93 -0.88,8 c -0.3,2.66 -0.61,5.31 -1.14,7.93 l 1.26,0.2 c 0.27,-2.67 0.75,-5.3 1.22,-7.93 l 1.4,-7.9 2.7,-15.81 q 2.64,-15.83 4.95,-31.73 c 1.58,-10.59 3.06,-21.22 4.17,-31.95 0.56,-5.37 1,-10.77 1.23,-16.27 0.04,-2.78 0.03,-5.56 -0.11,-8.44 z"
         id="path672"
         style="fill:#000000;fill-opacity:1" /><path
         class="cls-3"
         d="m 395.86,107.27 c 0.59,0.35 1.17,0.68 1.76,1 a 93.45,93.45 0 0 1 8.33,5.93 76,76 0 0 1 7.55,6.87 69.6,69.6 0 0 1 6.35,7.57 76,76 0 0 1 5,7.79 73.8,73.8 0 0 1 3.62,7.51 c 0.24,0.61 0.48,1.19 0.72,1.76 l 0.63,1.71 c 0.41,1.11 0.81,2.17 1.1,3.19 0.66,2 1.11,3.81 1.49,5.29 0.14,0.52 0.25,1 0.35,1.44 l -35.93,7.26 v 1.86 5.43 l 36.17,-3.52 0.55,19.37 c 0.15,4.48 0.21,9 0.31,13.45 l 0.26,13.46 0.15,6.73 0.17,6.72 0.24,6.73 c 0.1,2.24 0.15,4.47 0.29,6.72 l 0.38,14.75 0.12,1.75 h 13.6 l -0.19,-2.08 0.44,-14.78 c 0,-2.24 0,-4.49 -0.06,-6.73 l -0.08,-6.73 -0.18,-6.72 -0.19,-6.72 -0.41,-13.45 -0.4,-13.46 -0.51,-20.23 c 5.82,-0.63 11.65,-1.26 17.47,-1.81 4,-0.38 8.08,-0.75 12.11,-1.06 4.03,-0.31 8.08,-0.61 12.11,-0.87 8.07,-0.5 16.15,-0.85 24.2,-1 4,-0.05 8.06,-0.05 12.09,0 2.77,0.05 5.55,0.18 8.32,0.29 0,0.48 0.06,1 0.09,1.63 0.07,1 0.16,2.15 0.28,3.45 q 0.24,2.7 0.64,6.16 c 0.48,4 1.16,8.59 1.83,13.54 0.67,4.95 1.41,10.23 2.14,15.52 0.73,5.29 1.52,10.56 2.22,15.51 0.53,3.57 1,7 1.47,10.06 1.25,-0.67 2.5,-1.36 3.75,-2 q -0.16,-4 -0.35,-8.48 c -0.21,-5 -0.39,-10.33 -0.67,-15.65 -0.28,-5.32 -0.51,-10.65 -0.75,-15.64 -0.24,-4.99 -0.43,-9.66 -0.7,-13.64 -0.12,-1.75 -0.24,-3.34 -0.37,-4.81 -0.17,-1.87 -0.34,-3.51 -0.49,-4.81 v -0.31 q 3.36,0.22 6.7,0.56 6,0.58 11.95,1.46 c 4,0.59 7.91,1.26 11.83,2.09 2,0.4 3.93,0.8 5.88,1.3 l 2.92,0.69 2.89,0.78 1.23,0.34 c 0.43,1.17 0.3,0.7 0.09,0 l 1.59,0.44 0.89,0.27 0.79,0.54 v -0.31 l 1.21,0.37 c 1.92,0.56 3.81,1.22 5.71,1.87 3.79,1.29 7.53,2.75 11.22,4.32 1.86,0.76 3.65,1.65 5.48,2.47 1.83,0.82 3.6,1.79 5.4,2.68 1.61,0.84 3.18,1.73 4.77,2.6 l 2.94,-1.25 c -8.73,-5.87 -17.17,-12 -27.76,-16.29 -1.92,-0.78 -3.84,-1.56 -5.8,-2.25 l -2.92,-1.07 -2,-0.66 c -7.69,-26.7 -20.51,-42.5 -28.49,-49.6 l -0.19,-0.15 -4.26,-3 a 44.72,44.72 0 0 0 -4.26,-2.65 C 526.79,94.83 488.58,85.27 468.86,82.12 l -2.7,-0.43 c -0.9,-0.13 -1.81,-0.21 -2.72,-0.31 L 458,80.87 452.59,80.29 c -1.8,-0.22 -3.6,-0.28 -5.38,-0.42 L 436.56,79.25 426.16,79 c -3.41,-0.13 -6.76,0 -10,0 -3.24,0 -6.51,0 -9.62,0.15 -3.85,0.2 -7.54,0.36 -11.09,0.55 l 0.12,7.8 z m 150.36,7.56 c 17.34,7.66 27.87,24.12 37.16,47.89 L 581,162 c -2,-0.62 -4,-1.15 -6,-1.68 -4,-1.07 -8,-2 -12.12,-2.83 -4.12,-0.83 -8.14,-1.55 -12.25,-2.18 -4.11,-0.63 -8.2,-1.16 -12.32,-1.62 -4.12,-0.46 -8.24,-0.81 -12.37,-1.12 -4.13,-0.31 -8.26,-0.52 -12.39,-0.69 -8.26,-0.33 -16.51,-0.42 -24.76,-0.36 q -6.18,0 -12.35,0.2 -6.17,0.2 -12.33,0.4 c -8.22,0.32 -16.41,0.74 -24.59,1.19 -3.8,-24.3 -18.36,-46.68 -29.17,-56.09 50.94,-4.22 96.09,3.03 135.87,17.61 z"
         id="path674"
         style="fill:#78a63a;fill-opacity:1;stroke:none;stroke-opacity:1" /><path
         style="fill:#78a63a;fill-opacity:1;stroke:none;stroke-width:0.834982px;stroke-linecap:butt;stroke-linejoin:miter;stroke-opacity:1"
         d="M 55.303796,351.26064 626.7495,351.22964 55.704786,344.04276 Z"
         id="path2145" /><text
         xml:space="preserve"
         id="text531"
         style="font-style:normal;font-variant:normal;font-weight:bold;font-stretch:normal;font-size:40px;line-height:1.25;font-family:Ubuntu;-inkscape-font-specification:'Ubuntu, Bold';font-variant-ligatures:normal;font-variant-caps:normal;font-variant-numeric:normal;font-variant-east-asian:normal;white-space:pre;shape-inside:url(#rect533);display:inline;fill:#000000;fill-opacity:1;stroke:#78a63a;stroke-width:1.16554;stroke-dasharray:none;stroke-opacity:1"
         transform="matrix(1.678751,0,0,1.678751,-7.9245181,-334.52227)"><tspan
           x="50.427734"
           y="397.56727"
           id="tspan1207">Multitransports</tspan></text></g><g
       id="g4773"
       transform="matrix(0.75764281,0,0,0.75764281,914.68076,84.514112)"><path
         style="fill:#ffffff;fill-opacity:1;stroke:#fcfcfc;stroke-width:0.744358px;stroke-linecap:butt;stroke-linejoin:miter;stroke-opacity:1"
         d="M 474.21412,372.37254 585.9775,374.0213 584.74474,319.33966 472.44612,258.42768 Z"
         id="path2677" /><path
         style="fill:#000000;stroke-width:0.732525"
         d="m 448.11999,259.80813 c -0.25181,-1.25901 -0.45784,-5.04043 -0.45784,-8.40313 0,-4.85711 0.35704,-6.90892 1.73667,-9.98066 1.85504,-4.13025 4.89641,-7.41084 7.63957,-8.24046 1.6488,-0.49866 1.68003,-0.41061 1.46505,4.12972 -0.20817,4.39648 -0.31512,4.63924 -2.04379,4.63924 -1.44076,0 -1.91651,-0.46184 -2.26371,-2.19757 l -0.43959,-2.19758 -0.91156,2.19758 c -2.90751,7.00944 -3.35132,9.07023 -3.35132,15.56152 0,6.87163 -0.54258,8.64588 -1.37348,4.49134 z"
         id="path3502" /><path
         style="fill:#000000;stroke-width:0.732525"
         d="m 424.35282,295.73171 c -0.90962,-1.45653 -1.03799,-1.47292 -2.33592,-0.29832 -2.65277,2.40073 -3.08594,0.71627 -0.60988,-2.37158 1.34644,-1.67913 2.63961,-3.06998 2.87369,-3.09078 1.12491,-0.0999 2.2704,3.59454 1.67154,5.39113 -0.63212,1.89635 -0.64419,1.89914 -1.59943,0.36955 z"
         id="path3500" /><path
         style="fill:#000000;stroke-width:0.732525"
         d="m 410.07355,302.28297 c -1.13364,-1.63773 -1.95773,-3.06221 -1.83131,-3.16551 0.12641,-0.10331 1.13633,-0.40531 2.24428,-0.67111 1.82753,-0.43843 2.01537,-0.29507 2.02444,1.54514 0.006,1.11562 0.20877,2.77008 0.4517,3.67658 0.67791,2.52963 -0.60512,1.91451 -2.88911,-1.3851 z"
         id="path3498" /><path
         style="fill:#000000;stroke-width:0.732525"
         d="m 294.74758,322.35106 c -10.11745,-0.36092 -8.34667,-1.65179 2.2659,-1.65179 h 9.04175 l 3.18475,-9.70594 c 1.88908,-5.75725 3.12124,-10.81561 3.02864,-12.43347 -0.14179,-2.47738 0.12855,-2.90722 2.9479,-4.68698 6.64903,-4.19736 19.03615,-7.51412 35.09563,-9.39716 l 4.10471,-0.48129 0.75525,-9.15475 c 0.41539,-5.03513 0.96342,-9.36293 1.21783,-9.61735 0.42621,-0.4262 17.04168,-2.26113 64.53506,-7.12694 10.07221,-1.03192 19.87889,-2.06794 21.79261,-2.30226 l 3.4795,-0.42605 0.0159,2.44945 c 0.009,1.34719 0.49606,10.85517 1.08289,21.12883 0.58684,10.27366 1.37121,23.29203 0.97967,23.05694 l -4.28771,-2.57439 v 0 c 0,0 -8.32551,-10.05709 -25.97231,-11.99169 -5.22619,-0.57294 -9.5984,-1.33041 -9.71601,-1.68325 -1.81733,-5.45199 -6.1777,-8.53803 -13.20816,-9.34804 -3.60353,-0.41518 -33.71996,1.41654 -34.3954,2.09196 -0.13132,0.13133 -0.0309,0.78041 0.22311,1.44241 0.41058,1.06996 2.40282,1.20364 17.93769,1.20364 h 17.47582 l 1.83832,2.70532 c 1.01108,1.48794 1.71057,2.83307 1.55444,2.9892 -0.15613,0.15613 -11.93189,0.73273 -26.16835,1.28136 -39.70206,1.52997 -45.04911,2.15726 -54.26984,6.36673 -5.06789,2.31361 -5.46962,2.68737 -4.22558,3.93142 0.47027,0.47027 -0.29604,4.60926 -2.21539,11.96568 -1.6139,6.1857 -3.11062,11.53191 -3.32603,11.88046 -0.21543,0.34856 -2.10282,0.56533 -4.19421,0.48172 -2.09138,-0.0836 -6.85166,-0.26081 -10.57838,-0.39377 z"
         id="path3496"
         sodipodi:nodetypes="sscsssscsssscsssccsssssscssssssssss" /><path
         style="fill:#000000;stroke-width:0.732525"
         d="m 422.95846,323.1514 c -0.80541,-1.14723 -2.91097,-4.72296 -4.67902,-7.94606 -2.94446,-5.36766 -3.21942,-6.31309 -3.27145,-11.24862 l -0.0568,-5.38843 3.35317,0.40652 c 1.84424,0.22358 5.16617,0.61578 7.38206,0.87154 l 4.02888,0.46503 -0.2573,11.84213 c -0.14153,6.51317 -0.33038,11.9211 -0.41968,12.01762 -0.0893,0.0965 -1.16432,0.3759 -2.38893,0.62082 -1.8742,0.37484 -2.45829,0.11522 -3.69093,-1.64055 z"
         id="path3494" /><path
         style="fill:#000000;stroke-width:0.732525"
         d="m 415.0041,324.83414 c -0.20954,-0.54605 -0.28159,-3.10073 -0.16014,-5.67707 l 0.22084,-4.68426 2.46657,5.12768 c 1.35662,2.82022 2.61221,5.3749 2.79021,5.67706 0.17799,0.30217 -0.85991,0.5494 -2.30644,0.5494 -1.53731,0 -2.78835,-0.4125 -3.01104,-0.99281 z"
         id="path3492" /><path
         style="fill:#000000;stroke-width:0.732525"
         d="m 338.51594,325.11953 c -4.23033,-0.25898 -6.82621,-0.53538 -5.76864,-0.61424 1.05759,-0.0789 2.87059,-0.33222 4.02889,-0.56302 l 2.10602,-0.41963 -0.22879,-8.00191 c -0.26256,-9.18329 0.549,-8.34651 -9.0534,-9.33474 -3.09076,-0.31811 -6.25598,-0.34294 -7.03383,-0.0552 -1.82804,0.67625 -2.47647,5.18194 -1.87263,13.01236 0.42188,5.47073 0.36088,5.8354 -0.93538,5.59162 -0.76267,-0.14343 -2.30811,-0.286 -3.43431,-0.31683 -1.89412,-0.0519 -2.01837,-0.23453 -1.65737,-2.43675 0.21465,-1.30938 0.91887,-5.67707 1.56492,-9.70595 1.29491,-8.07522 3.1159,-13.04399 5.18442,-14.1462 2.77246,-1.47731 15.26698,-2.77038 43.471,-4.49882 24.60359,-1.5078 35.08561,-1.74154 36.21111,-0.80746 0.8855,0.7349 1.03328,2.94293 0.82802,12.3711 -0.13744,6.31208 -0.62913,12.87836 -1.09267,14.59171 -1.54513,5.71125 -1.312,5.66618 -29.68622,5.73996 -13.71679,0.0357 -28.40081,-0.14705 -32.63114,-0.40602 z m 52.13467,-5.51904 h 7.81691 l 0.24086,-3.57082 0.24087,-3.57081 -6.47405,0.48876 c -6.20756,0.46865 -13.62708,1.60398 -14.19523,2.17213 -0.14868,0.14868 -0.47167,1.51108 -0.71777,3.02755 l -0.44744,2.75722 2.85947,-0.65201 c 1.57271,-0.35861 6.37708,-0.65202 10.67638,-0.65202 z"
         id="path3490" /><path
         style="fill:#000000;stroke-width:0.732525"
         d="m 408.06421,327.15528 c -0.0229,-0.52914 0.0212,-4.75288 0.0981,-9.3861 0.24189,-14.58608 0.0946,-14.14417 3.16631,-9.50257 1.86409,2.81681 1.94309,3.32246 1.74552,11.17102 l -0.20693,8.22064 -2.3807,0.22954 c -1.57952,0.1523 -2.3947,-0.0942 -2.42231,-0.73253 z"
         id="path3488" /><path
         style="fill:#78a63a;fill-opacity:1;stroke-width:0.732525"
         d="m 383.89423,336.57072 c -0.18041,-0.15931 -11.70046,-0.51834 -25.60012,-0.79784 -30.59262,-0.61515 -30.21165,-0.59536 -30.54262,-1.58599 -0.25146,-0.75263 33.96396,-1.76722 59.59704,-1.76722 h 9.03688 v 1.83131 c 0,1.77693 -0.1505,1.83132 -5.06776,1.83132 -2.78727,0 -5.52398,0.17506 -6.0816,0.38904 -0.5576,0.21397 -1.16143,0.25869 -1.34182,0.0994 z"
         id="path3486" /><path
         style="fill:#78a63a;fill-opacity:1;stroke-width:0.732525"
         d="m 406.83068,376.18804 c -1.45934,-1.57155 -1.55001,-2.65804 -1.94971,-23.366 -0.37914,-19.64165 -0.30503,-21.76161 0.77513,-22.17611 0.65689,-0.25207 1.275,-0.36813 1.37357,-0.25794 0.0986,0.1102 0.5753,9.75982 1.05941,21.4436 0.50374,12.15766 1.20385,21.63485 1.63694,22.15888 0.53011,0.64141 3.44163,0.91566 9.72138,0.91566 11.64235,0 16.07381,0.57276 14.94595,1.93175 -0.64069,0.77198 -3.68586,0.99835 -13.43035,0.99835 -12.12671,0 -12.65951,-0.0622 -14.13232,-1.64819 z"
         id="path3484" /><path
         style="fill:#000000;stroke-width:0.732525"
         d="m 403.01836,383.96683 c -3.56519,-3.56079 -7.05886,-6.23719 -10.08907,-7.72895 -4.54319,-2.23661 -4.79159,-2.27374 -12.49479,-1.86737 -4.3227,0.22805 -8.18834,0.52425 -8.59032,0.65826 -0.40198,0.13398 -0.89569,-0.0432 -1.09714,-0.39389 -0.20145,-0.35062 1.1171,-1.2387 2.9301,-1.97351 1.81299,-0.73481 2.72242,-1.35443 2.02095,-1.37694 -0.70149,-0.0225 -10.09611,1.46893 -20.87696,3.31431 -23.21631,3.97399 -25.60305,4.32538 -25.01243,3.68252 0.64315,-0.70004 16.14117,-3.62025 33.61309,-6.33356 8.25922,-1.28261 15.42881,-2.44988 15.93242,-2.59391 0.50361,-0.14403 0.91565,-1.36002 0.91565,-2.70221 0,-2.99298 1.10746,-4.19838 3.85729,-4.19838 4.3071,0 6.73417,2.86662 5.64437,6.66655 -0.51771,1.80516 -0.25288,2.06251 4.47701,4.35069 2.765,1.33762 6.13801,3.60881 7.49559,5.04709 2.38965,2.53172 7.41082,10.2448 6.95339,10.68121 -0.12399,0.11829 -2.67961,-2.23606 -5.67915,-5.23191 z"
         id="path3482" /><path
         style="fill:#78a63a;fill-opacity:1;stroke-width:0.732525"
         d="m 418.92132,422.33711 c -0.75705,-0.58503 -1.48496,-3.03167 -2.01591,-6.77586 -0.45706,-3.22311 -1.00484,-6.45869 -1.2173,-7.19018 -0.33291,-1.14624 0.002,-1.29805 2.4253,-1.09879 l 2.81159,0.2312 0.20791,7.87464 c 0.11436,4.33106 -0.0699,7.87464 -0.40939,7.87464 -0.33951,0 -1.1505,-0.41204 -1.8022,-0.91565 z"
         id="path3480" /><path
         style="fill:#78a63a;fill-opacity:1;stroke-width:0.732525"
         d="m 295.66323,409.96987 c -6.44622,-0.25504 -19.21962,-0.70902 -28.38534,-1.00886 l -16.66494,-0.54514 v -32.054 -32.05401 l 21.79261,-0.61861 c 11.98595,-0.34023 24.75935,-0.54099 28.38535,-0.44612 3.626,0.0949 7.58163,-0.10652 8.79029,-0.44756 1.26619,-0.35726 3.05134,-0.3286 4.21202,0.0676 l 2.01445,0.68768 v 33.6438 33.64381 l -4.21202,-0.20245 c -2.31661,-0.11135 -9.4862,-0.41112 -15.93242,-0.66616 z"
         id="path3478" /><path
         style="fill:#000000;stroke-width:0.732525"
         d="m 392.71088,443.1686 c -2.29552,-1.8588 -1.43735,-4.6567 1.33998,-4.36872 1.69758,0.17602 2.0376,-0.14841 2.62864,-2.50803 0.76036,-3.03561 -0.23102,-4.98131 -2.53812,-4.98131 -1.92021,0 -2.25493,-0.99085 -0.95951,-2.84032 1.24652,-1.77966 3.23023,-1.58843 5.66644,0.54626 1.16371,1.01968 1.3142,1.97843 1.02438,6.52627 -0.27279,4.28041 -0.67505,5.68792 -2.0412,7.14212 -2.02903,2.15982 -2.94399,2.24624 -5.12061,0.48373 z"
         id="path3476" /><path
         style="fill:none;stroke:#000000;stroke-width:0.744358px;stroke-linecap:butt;stroke-linejoin:miter;stroke-opacity:1"
         d="M 472.06411,277.2166 584.7068,325.46069 472.06411,280.3093 Z"
         id="path3597" /><path
         id="path3012"
         style="fill:#000000;stroke-width:0.984103"
         d="m 114.43558,788.82199 c -8.64932,-1.26316 -13.18896,-2.80784 -17.56218,-5.97578 -6.410416,-4.64368 -5.520118,-8.78897 3.0271,-14.09441 3.65263,-2.26727 14.05862,-5.42929 39.13765,-11.89259 11.63702,-2.99905 22.38442,-5.8003 23.88311,-6.22499 l 2.72489,-0.77216 -6.20772,-6.15254 c -6.83481,-6.77405 -6.30179,-6.56364 -45.4949,-17.9595 -7.03634,-2.04589 -13.53686,-4.02043 -14.445596,-4.38787 -1.691831,-0.68406 -1.898847,-1.97635 -3.274229,-20.43923 l -0.568152,-7.6268 11.112197,-0.005 c 6.1117,-0.003 15.42994,-0.29102 20.70719,-0.64049 10.06874,-0.66674 10.92178,-1.19303 8.42191,-5.19596 -1.14442,-1.8325 1.08009,-14.5449 6.78453,-38.77169 1.83495,-7.79303 1.01652,-7.28035 16.7839,-10.51402 l 11.07817,-2.27198 -0.59377,-12.38668 c -0.32657,-6.81284 -0.9354,-18.36527 -1.35297,-25.67223 -0.41755,-7.30697 -0.47627,-13.60475 -0.13048,-13.99509 0.53587,-0.6049 20.72177,-6.7606 39.4844,-12.04079 4.49277,-1.26436 5.75948,-2.12755 7.28843,-4.96663 1.69692,-3.151 2.18508,-3.41609 5.87933,-3.19268 2.39974,0.14513 4.62564,0.94845 5.50491,1.98672 1.69843,2.00554 1.82231,2.03405 20.17411,4.64397 7.57759,1.07766 16.81211,2.45405 20.52114,3.05865 l 6.74372,1.09928 2.37075,5.36071 c 1.30391,2.94838 2.34794,6.55418 2.32006,8.01289 -0.27219,14.24132 -0.32662,19.43422 -0.27019,25.77861 0.0361,4.05942 0.1179,12.83883 0.18176,19.5098 l 0.1161,12.12903 23.95203,-0.70445 c 27.03291,-0.79506 24.60503,-1.5284 25.76847,7.7834 0.38254,3.06176 0.88792,5.56685 1.12306,5.56685 0.23514,0 1.77523,-0.69692 3.42242,-1.54872 1.64719,-0.85179 3.16566,-1.37795 3.37438,-1.16923 0.20873,0.20872 -1.83873,8.06627 -4.54989,17.4612 -2.71116,9.39495 -4.58376,17.39553 -4.16133,17.77907 0.42243,0.38354 2.85469,0.91643 5.40501,1.18419 l 4.63695,0.48686 1.65792,-5.04143 c 4.68864,-14.25727 14.76778,-30.75215 21.02761,-34.41244 7.58389,-4.43451 19.53309,-0.56962 26.91314,8.70486 7.11473,8.94105 9.35502,15.18258 10.22758,28.49437 l 0.77115,11.76461 4.14348,1.02873 c 2.27893,0.56579 4.55407,1.47155 5.05586,2.01281 0.5018,0.54126 2.38816,5.53327 4.1919,11.09335 1.80375,5.56008 3.73566,9.94011 4.29312,9.73338 0.55748,-0.20672 8.09913,-2.71301 16.75923,-5.56951 8.66011,-2.85652 16.03847,-5.46515 16.39636,-5.79698 0.35789,-0.33182 -0.026,-2.27501 -0.8531,-4.3182 l -1.50382,-3.71489 -6.52766,0.27053 -6.52767,0.27053 -0.31885,-7.52701 c -0.27735,-6.54732 0.0749,-8.51034 2.70628,-15.08193 1.66382,-4.1552 3.02513,-7.71574 3.02513,-7.91231 0,-0.58193 -7.82613,-1.44244 -15.7145,-1.72786 -7.30695,-0.26438 -7.35475,-0.2838 -8.2328,-3.34541 -0.88016,-3.06894 -0.90956,-3.08068 -8.58222,-3.42913 -6.93694,-0.31502 -7.99717,-0.63527 -10.71116,-3.23544 -1.65669,-1.58721 -3.01215,-3.24582 -3.01215,-3.68581 0,-0.43999 4.36043,-0.79999 9.68985,-0.79999 5.32941,0 13.74349,-0.28773 18.69795,-0.63941 l 9.00811,-0.63942 v -3.78904 c 0,-3.53975 0.19102,-3.78905 2.9032,-3.78905 2.83706,0 2.90991,-0.12652 3.19833,-5.55416 l 0.29514,-5.55416 10.1938,-0.45385 c 14.63799,0.97439 5.3742,5.85794 -1.28226,12.80359 l -0.3849,15.94435 -0.38491,15.94433 10.5916,0.91561 10.5916,0.91561 -0.63435,-19.69489 c -0.3489,-10.83219 -0.63644,-22.24126 -0.639,-25.35349 -1.96614,-17.59563 -17.73486,-3.0013 -21.40889,-3.07658 l -5.65859,-0.12175 -0.22148,-14.76154 c -0.12183,-8.11885 -0.26676,-17.64005 -0.3221,-21.15821 -0.0553,-3.51817 -6.5e-4,-9.83681 0.12152,-14.04143 0.12216,-4.20462 -0.0463,-7.9132 -0.37443,-8.2413 -0.3281,-0.3281 -1.97768,0.5656 -3.66573,1.98601 -3.25312,2.73731 -2.93637,2.73461 -13.49766,0.11487 -2.84159,-0.70486 -5.16654,-1.11096 -5.16654,-0.90243 0,0.20853 1.1977,3.2956 2.66156,6.86016 2.24405,5.46436 3.10355,6.56942 5.47922,7.04456 5.12766,1.02553 7.69455,8.19499 4.28352,11.96415 -0.87954,0.97188 -1.59917,2.13798 -1.59917,2.59135 0,0.45335 -1.88209,3.62836 -4.18243,7.05557 -4.39686,6.55075 -8.45077,9.011 -12.65125,7.67781 -2.0234,-0.6422 -2.07717,-1.03231 -1.41999,-10.30196 0.46647,-6.57951 0.34321,-9.84451 -0.38872,-10.29687 -0.58948,-0.36432 -0.82356,-1.064 -0.5202,-1.55485 0.30336,-0.49085 -0.003,-3.57887 -0.68148,-6.86227 -1.21113,-5.86373 -1.34468,-6.04033 -7.51542,-9.9375 -3.45531,-2.18223 -6.05501,-4.19506 -5.77711,-4.47297 0.2779,-0.2779 2.20104,-0.92216 4.27364,-1.43169 2.07258,-0.50953 4.65403,-1.15944 5.73655,-1.44424 5.91948,-1.55735 13.3577,-1.57842 17.18094,-0.0486 5.97658,2.39135 8.87805,2.01058 13.32624,-1.74886 l 3.93642,-3.3269 0.58937,-12.65013 c 0.91865,-19.71724 -1.45381,-24.95147 -11.30943,-24.95147 -2.97082,0 -5.69338,-0.47231 -6.05016,-1.04957 -0.95853,-1.55096 -0.23979,-1.90399 5.1841,-2.54638 6.63398,-0.78569 13.04663,4.54231 13.04663,4.54231 l 5.76027,3.45854 c 12.91083,7.42415 8.40752,-1.6364 7.55781,-36.51135 l -0.65188,-27.67799 3.26972,-0.55903 c 1.79835,-0.30746 7.12616,-0.85645 11.83959,-1.21999 l 8.56986,-0.66097 10.12809,5.69657 c 5.57045,3.13312 13.00659,7.31487 16.52476,9.2928 3.51817,1.97792 15.69644,8.83951 27.06283,15.24797 11.36639,6.40846 24.43035,13.70319 29.03103,16.2105 4.60068,2.50731 16.11468,8.99078 25.58667,14.40772 9.47199,5.41694 20.32173,11.58441 24.11052,13.70549 3.7888,2.12108 9.10295,5.09497 11.80924,6.60864 2.70628,1.51368 6.73428,3.68228 8.9511,4.81912 l 4.0306,2.06695 0.64389,19.22593 c 1.04383,31.16734 0.81799,58.0515 -0.49132,58.48793 -1.34535,0.44845 -1.49372,6.47722 -0.39574,16.07905 0.95949,8.39062 -1.66518,22.92063 -4.29013,23.74988 -0.85783,0.271 -3.77391,1.39898 -6.4802,2.50663 -3.84527,1.57382 -10.83436,2.51769 -31.98334,4.31932 -14.88455,1.26796 -28.12313,2.42296 -29.41905,2.56666 -2.01881,0.22385 -2.79392,1.52006 -5.41257,9.05142 l -3.05634,8.79015 -5.41256,1.6731 c -2.97691,0.9202 -7.18395,2.15555 -9.34898,2.74524 -2.16503,0.58967 -5.65609,2.49407 -7.75792,4.23198 -2.39284,1.97856 -5.15213,3.27542 -7.38077,3.46896 -1.9576,0.17 -7.10203,0.74079 -11.43209,1.26843 -4.33005,0.52762 -14.69549,1.65872 -23.03429,2.51354 -13.28799,1.36218 -16.69293,2.10396 -27.55488,6.00287 -6.81638,2.44676 -15.93618,5.71641 -20.26623,7.26591 -7.23519,2.58909 -35.29177,11.76352 -40.68408,13.30359 -1.40383,0.40095 -2.88919,2.06289 -3.80162,4.25361 -0.82365,1.97756 -3.55101,6.14097 -6.0608,9.25202 -4.87224,6.03947 -6.93254,7.08225 -19.81685,10.02985 -13.64538,3.12172 -48.94402,8.01315 -71.34745,9.8868 -3.7888,0.31687 -11.76003,1.00708 -17.71386,1.5338 -5.95382,0.52672 -13.70363,1.19439 -17.22179,1.48371 -3.51817,0.28931 -8.6109,0.74223 -11.31719,1.00648 -28.73478,2.80573 -44.87789,3.53413 -85.61694,3.86312 -24.8978,0.20106 -47.70439,0.01 -50.6813,-0.42488 z m 265.74421,-43.31937 c 4.79794,-5.60559 6.36119,-12.03702 6.35072,-26.12778 -0.008,-11.09592 -0.31382,-13.55053 -2.30303,-18.50028 -2.85503,-7.10413 -5.66445,-10.36431 -9.57713,-11.11375 -2.49985,-0.47882 -3.5687,-0.045 -6.08293,2.46929 -5.36057,5.36057 -7.45536,12.6285 -7.54012,26.16064 1.01301,11.30077 -0.10539,20.91848 8.10964,28.74081 3.33213,3.08813 7.53623,2.46797 11.04285,-1.62893 z m -27.951,-15.7947 c -1.72141,-13.25687 -1.37462,-27.78535 0.78726,-32.98181 4.05408,-9.74465 12.40385,-17.22739 19.17716,-17.18582 3.7574,0.023 11.19813,2.98674 14.10634,5.61864 1.26122,1.14139 2.06532,1.2934 2.82473,0.534 1.52983,-1.52984 -3.03109,-7.86941 -8.12077,-11.28768 -10.2652,-6.89418 -25.58205,-0.40384 -32.52154,13.78061 -4.20031,8.58551 -3.2944,32.23195 1.7697,46.19362 1.28524,3.54338 2.37176,6.70963 2.41449,7.03612 0.0427,0.32648 0.2637,0.15076 0.49105,-0.39049 0.22733,-0.54126 -0.19045,-5.63399 -0.92842,-11.31719 z m -89.30877,3.28892 c 29.80019,-1.28985 12.31975,-2.37315 -37.48014,-2.32271 -56.786,0.0575 -58.9734,-0.11069 -89.7387,-6.89935 -10.08719,-2.22585 -19.10924,-3.89142 -20.049,-3.70127 -2.16793,0.43863 26.88129,8.06794 38.63957,10.14805 4.87131,0.86176 12.84254,1.82096 17.71385,2.13155 4.87131,0.3106 9.04144,0.72819 9.26697,0.92797 0.70405,0.62371 65.91564,0.39668 81.64745,-0.28424 z m 31.107,-20.90032 0.69322,-9.68539 -20.02501,-0.14737 c -11.01374,-0.0811 -22.46065,-0.34957 -25.43756,-0.59671 -2.97691,-0.24713 -18.47653,-0.70678 -34.4436,-1.02143 -15.96707,-0.31464 -45.41635,-0.97933 -65.44284,-1.47708 -20.02649,-0.49775 -38.18319,-0.87019 -40.34821,-0.82761 -3.74292,0.0736 -3.65407,0.1391 1.80761,1.33292 7.00557,1.53129 22.89519,2.14049 92.17421,3.53389 29.49848,0.5933 58.50491,1.37369 64.45873,1.73419 l 10.82513,0.65547 1.71634,7.38078 c 4.23758,18.22286 3.7526,17.16608 8.1294,17.71385 l 3.9317,0.49205 0.63383,-4.70109 c 0.3486,-2.58559 0.94577,-9.05951 1.32705,-14.38647 z m 233.84661,-10.68155 c 3.06945,-7.90929 2.68153,-25.38048 -0.67735,-30.50677 -1.4749,-2.25098 -1.65949,-2.29004 -3.39593,-0.71859 -2.8271,2.5585 -2.79773,5.53695 0.0883,8.94976 4.68397,5.53905 4.52836,14.51603 -0.31632,18.24791 -1.84523,1.4214 -1.96787,1.9587 -0.95466,4.18244 1.5146,3.3242 3.93355,3.25297 5.25602,-0.15475 z m -282.90572,-6.98997 -2.67011,-2.78701 -25.56587,-0.67253 -25.56587,-0.67254 -3.65803,2.48571 c -2.01192,1.36713 -3.00168,2.52581 -2.19947,2.57483 8.42564,0.51494 61.59213,2.35314 61.90916,2.14049 0.23117,-0.15508 -0.78125,-1.5361 -2.24981,-3.06895 z m 305.12365,-2.1869 c 3.09396,-8.87806 -0.12773,-29.11157 -3.7298,-23.42461 -1.3539,2.13754 -1.03623,4.97512 0.78186,6.98409 2.39742,2.64911 2.37377,11.70316 -0.0375,14.37033 -1.19814,1.32528 -1.58612,2.71123 -1.14662,4.09596 0.91674,2.88841 2.72917,1.99986 4.13208,-2.02577 z m -26.2692,-4.43362 c 0,-1.18972 -0.87097,-3.2086 -1.93547,-4.4864 l -1.93546,-2.32325 -0.0193,3.93641 c -0.0106,2.16503 0.26485,4.9983 0.61214,6.29616 0.59866,2.23722 0.70015,2.26578 1.95477,0.54998 0.7278,-0.99536 1.32331,-2.78317 1.32331,-3.9729 z m -253.13956,-52.37754 -0.26692,-52.71123 -7.38077,-1.24649 c -12.23352,-2.06605 -28.16499,-3.3962 -32.45686,-2.7099 -3.3569,0.53679 -4.26456,1.1851 -5.37285,3.83761 -0.73347,1.75544 -1.81246,3.48767 -2.39776,3.84941 -1.81264,1.12027 -4.94233,-1.28603 -7.05258,-5.42246 -1.44101,-2.82462 -2.49677,-3.81798 -3.6936,-3.47535 -1.46114,0.4183 -11.36876,2.06271 -24.36854,4.04454 -2.19709,0.33496 -6.34179,1.94948 -9.21044,3.58782 l -5.21572,2.97882 0.71516,48.38577 c 0.39334,26.61217 0.77385,48.43598 0.84557,48.49736 0.0717,0.0614 14.08007,0.63291 31.12965,1.27009 44.55108,1.66493 59.50152,2.30194 59.80738,2.54825 0.14804,0.11921 1.37526,0.005 2.72717,-0.25313 l 2.45803,-0.46988 z m 275.75885,46.36405 c 0.008,-1.18588 -0.42778,-2.42985 -0.96903,-2.76436 -0.59868,-0.37001 -0.9782,1.05259 -0.96904,3.6323 0.011,3.10051 0.27153,3.84367 0.96904,2.76437 0.52468,-0.81189 0.96075,-2.44642 0.96903,-3.63231 z M 300.43102,655.90021 v -4.92051 h -7.38078 -7.38077 l 0.0135,2.70628 c 0.033,6.63221 0.59459,7.13475 7.97417,7.13475 h 6.77394 v -4.92052 z m 16.88079,-6.1e-4 0.341,-4.92112 -7.13474,6.1e-4 -7.13475,6.1e-4 v 4.92051 4.92052 h 6.79375 6.79373 z M 154.7838,655.40816 v -3.44436 h -5.02581 c -4.17856,0 -4.92511,0.26241 -4.42846,1.55664 0.32853,0.85615 0.59734,2.40612 0.59734,3.44436 0,1.58123 0.71901,1.88772 4.42846,1.88772 4.40504,0 4.42847,-0.0182 4.42847,-3.44436 z m 13.39067,0.90361 c -0.32854,-0.85615 -0.59734,-2.40611 -0.59734,-3.44436 0,-1.58122 -0.719,-1.88771 -4.42846,-1.88771 -4.40503,0 -4.42846,0.0182 -4.42846,3.44436 v 3.44436 h 5.0258 c 4.17856,0 4.9251,-0.26241 4.42846,-1.55665 z m 460.2749,-41.0058 c -0.18741,-11.5017 -0.60221,-27.99772 -0.92177,-36.65783 l -0.58101,-15.74564 -17.30723,-9.34898 c -27.13491,-14.65767 -29.9237,-16.1789 -40.2142,-21.93599 -28.58348,-15.99125 -93.00997,-51.03985 -93.27349,-50.74166 -0.31872,0.36066 0.86239,62.85926 1.91282,101.21663 0.3335,12.17827 0.55255,23.02801 0.48676,24.11052 -0.0657,1.08251 -0.10405,2.63247 -0.085,3.44436 0.019,0.81188 0.0428,6.6796 0.0528,13.03936 l 0.0183,11.56321 7.14289,0.14163 c 22.52242,0.44659 96.4177,1.47092 117.93487,1.63482 l 25.175,0.19176 z M 412.43578,586.27494 c -1.12226,-2.57097 -2.09556,-4.7501 -2.16289,-4.84251 -0.0673,-0.0924 -2.55626,0.13029 -5.53097,0.49488 l -5.40857,0.66289 4.92051,2.8893 c 4.75031,2.78935 9.63775,5.45134 10.03172,5.46386 0.10488,0.003 -0.72753,-2.09745 -1.8498,-4.66842 z"
         class="UnoptimicedTransforms"
         transform="matrix(0.74435814,0,0,0.74435814,117.81777,-99.400565)" /><path
         id="path234"
         style="fill:#78a63a;stroke:#638830;stroke-width:0.888258;stroke-linecap:round"
         d="m 445.74824,203.83525 a 148.6343,148.6343 0 0 0 -128.36834,74.37328 145.22953,144.03872 0 0 1 122.67516,-67.0751 145.22953,144.03872 0 0 1 145.22834,144.03912 145.22953,144.03872 0 0 1 -145.22834,144.03913 145.22953,144.03872 0 0 1 -40.53263,-5.75133 148.6343,148.6343 0 0 0 46.22581,7.64274 148.6343,148.6343 0 0 0 148.6332,-148.63466 148.6343,148.6343 0 0 0 -148.6332,-148.63318 z" /><path
         style="fill:#78a63a;fill-opacity:1;stroke:#000000;stroke-width:0.744358px;stroke-linecap:butt;stroke-linejoin:miter;stroke-opacity:1"
         d="M 473.33012,312.30741 584.7068,340.32955 473.33012,315.40011 Z"
         id="path3597-5"
         sodipodi:nodetypes="cccc" /><path
         style="fill:none;stroke:#000000;stroke-width:0.744358px;stroke-linecap:butt;stroke-linejoin:miter;stroke-opacity:1"
         d="m 474.03129,348.73889 111.25211,6.43366 -111.25211,-3.34097 z"
         id="path3597-3"
         sodipodi:nodetypes="cccc" /><text
         xml:space="preserve"
         id="text531-7"
         style="font-style:normal;font-variant:normal;font-weight:bold;font-stretch:normal;font-size:40px;line-height:1.25;font-family:Ubuntu;-inkscape-font-specification:'Ubuntu, Bold';font-variant-ligatures:normal;font-variant-caps:normal;font-variant-numeric:normal;font-variant-east-asian:normal;white-space:pre;shape-inside:url(#rect533-6);display:inline;fill:#000000;fill-opacity:1;stroke:#78a63a;stroke-width:1.16554;stroke-dasharray:none;stroke-opacity:1"
         transform="matrix(2.636904,0,0,2.636904,-133.7299,-439.9786)"><tspan
           x="50.427734"
           y="397.56727"
           id="tspan1209">Multitransports</tspan></text></g></g></svg>
