<?xml version="1.0" encoding="UTF-8" standalone="no"?>
<!-- Created with Inkscape (http://www.inkscape.org/) -->

<svg version="1.1" width="787.5" height="420" id="svg2" sodipodi:docname="banner-logo.svg" inkscape:version="1.2.1 (9c6d41e410, 2022-07-14)" inkscape:export-filename="../img/logo-brand.svg" inkscape:export-xdpi="48" inkscape:export-ydpi="48"
   xmlns:inkscape="http://www.inkscape.org/namespaces/inkscape"
   xmlns:sodipodi="http://sodipodi.sourceforge.net/DTD/sodipodi-0.dtd"
   xmlns="http://www.w3.org/2000/svg"
   xmlns:svg="http://www.w3.org/2000/svg"
   xmlns:rdf="http://www.w3.org/1999/02/22-rdf-syntax-ns#"
   xmlns:cc="http://creativecommons.org/ns#"
   xmlns:dc="http://purl.org/dc/elements/1.1/">
   <sodipodi:namedview id="namedview7" pagecolor="#ffffff" bordercolor="#666666" borderopacity="1.0" inkscape:showpageshadow="2" inkscape:pageopacity="0.0" inkscape:pagecheckerboard="0" inkscape:deskcolor="#d1d1d1" showgrid="false" showguides="true" inkscape:zoom="1" inkscape:cx="143" inkscape:cy="127" inkscape:window-width="1920" inkscape:window-height="1017" inkscape:window-x="1920" inkscape:window-y="39" inkscape:window-maximized="1" inkscape:current-layer="svg2">
      <sodipodi:guide position="-95.403058,2.64534" orientation="0,-1" id="guide3407" inkscape:locked="false" />
   </sodipodi:namedview>
   <defs id="defs4">
      <rect x="50.426846" y="360.26733" width="83.515205" height="54.21645" id="rect533" />
      <rect x="50.426846" y="360.26733" width="40.045765" height="45.136978" id="rect533-8" />
   </defs>
   <metadata id="metadata7">
      <rdf:RDF>
         <cc:Work rdf:about="">
            <dc:format>image/svg+xml</dc:format>
            <dc:type rdf:resource="http://purl.org/dc/dcmitype/StillImage" />
         </cc:Work>
      </rdf:RDF>
   </metadata>
   <g id="g1002" transform="matrix(1.8358431,0,0,1.8358431,314.00585,102.28113)">
      <path style="fill:#ffffff;fill-opacity:1;stroke:#fcfcfc;stroke-width:0.563958px;stroke-linecap:butt;stroke-linejoin:miter;stroke-opacity:1" d="m 106.62348,73.75507 84.67672,1.24917 -0.93399,-41.42915 -85.08225,-46.14952 z" id="path2677-3" inkscape:export-filename="logo-brand.svg" inkscape:export-xdpi="96" inkscape:export-ydpi="96" />
      <path style="fill:#__DARK::;stroke-width:0.554992" d="m 86.85345,-11.52855 c -0.19078,-0.95388 -0.34688,-3.81884 -0.34688,-6.36657 0,-3.67995 0.27051,-5.23449 1.31577,-7.56177 1.40546,-3.12926 3.70973,-5.61477 5.78807,-6.24333 1.2492,-0.3778 1.27286,-0.31109 1.10998,3.12885 -0.15771,3.33097 -0.23874,3.51489 -1.54846,3.51489 -1.09158,0 -1.45203,-0.34991 -1.71508,-1.66497 l -0.33305,-1.66498 -0.69064,1.66498 c -2.20286,5.31065 -2.53911,6.87199 -2.53911,11.79007 0,5.20624 -0.41108,6.55049 -1.0406,3.40283 z" id="path3502-6" />
      <path style="fill:#__DARK::;stroke-width:0.554992" d="M 68.84642,15.6887 C 68.15725,14.58517 68.06,14.57275 67.07663,15.46268 c -2.00985,1.81889 -2.33804,0.54267 -0.46207,-1.79681 1.02012,-1.27219 1.99988,-2.32595 2.17723,-2.34171 0.85228,-0.0757 1.72015,2.72338 1.26643,4.08455 -0.47892,1.43675 -0.48807,1.43887 -1.2118,0.27999 z" id="path3500-7" />
      <path style="fill:#__DARK::;stroke-width:0.554992" d="m 58.02784,20.65221 c -0.8589,-1.24081 -1.48326,-2.32006 -1.38748,-2.39833 0.0958,-0.0783 0.86093,-0.30708 1.70036,-0.50846 1.38461,-0.33217 1.52693,-0.22355 1.5338,1.17067 0.005,0.84524 0.15817,2.09873 0.34223,2.78553 0.51361,1.91656 -0.45847,1.45052 -2.18891,-1.04941 z" id="path3498-5" />
      <path style="fill:#__DARK::;stroke-width:0.554992" d="m -29.34806,35.85665 c -7.66541,-0.27344 -6.32379,-1.25146 1.71675,-1.25146 h 6.85041 l 2.41291,-7.35364 c 1.43124,-4.36194 2.36478,-8.19437 2.29462,-9.42013 -0.10742,-1.87697 0.0974,-2.20263 2.23346,-3.55105 5.03759,-3.1801 14.4226,-5.69302 26.58995,-7.11969 L 15.85994,6.79603 16.43215,-0.14 c 0.31472,-3.81483 0.72993,-7.09376 0.92268,-7.28652 0.32292,-0.3229 12.91151,-1.71313 48.89453,-5.39967 7.63114,-0.78183 15.0611,-1.56676 16.51101,-1.74429 l 2.63622,-0.3228 0.012,1.85581 c 0.007,1.02069 0.37583,8.22434 0.82044,16.00811 0.44462,7.78376 1.03889,17.64704 0.74224,17.46892 L 83.72272,18.4891 v 0 c 0,0 -6.30776,-7.61969 -19.67774,-9.08542 C 60.0854,8.96959 56.77283,8.3957 56.68372,8.12838 55.30683,3.99771 52.00323,1.6596 46.67665,1.0459 43.94646,0.73134 21.12897,2.11913 20.61722,2.63086 c -0.0995,0.0995 -0.0234,0.59127 0.16904,1.09283 0.31108,0.81065 1.82048,0.91193 13.59036,0.91193 h 13.24043 l 1.39279,2.04967 c 0.76604,1.12732 1.296,2.14645 1.17771,2.26474 -0.11829,0.11829 -9.04011,0.55515 -19.82626,0.97081 -30.07998,1.15918 -34.13113,1.63444 -41.11715,4.82371 -3.83965,1.75289 -4.14402,2.03607 -3.20148,2.97861 0.35629,0.3563 -0.2243,3.49218 -1.67848,9.06572 -1.22276,4.68655 -2.35674,8.73706 -2.51994,9.00114 -0.16322,0.26408 -1.59319,0.42832 -3.17771,0.36497 -1.58452,-0.0633 -5.19111,-0.1976 -8.01464,-0.29834 z" id="path3496-3" sodipodi:nodetypes="sscsssscsssscsssccsssssscssssssssss" />
      <path style="fill:#__DARK::;stroke-width:0.554992" d="M 67.79,36.46303 C 67.17978,35.59384 65.58452,32.88471 64.24497,30.44275 62.01412,26.37598 61.8058,25.65968 61.76638,21.92032 l -0.043,-4.08251 2.54051,0.308 c 1.39727,0.16939 3.91411,0.46654 5.59296,0.66031 l 3.05246,0.35233 -0.19495,8.9721 c -0.10722,4.93466 -0.25031,9.03194 -0.31796,9.10507 -0.0677,0.0731 -0.88214,0.2848 -1.80996,0.47036 -1.41997,0.28399 -1.8625,0.0873 -2.7964,-1.24295 z" id="path3494-5" />
      <path style="fill:#__DARK::;stroke-width:0.554992" d="M 61.76343,37.73794 C 61.60468,37.32423 61.55009,35.3887 61.6421,33.43675 l 0.16732,-3.54899 1.86878,3.88495 c 1.02783,2.13671 1.97912,4.07225 2.11398,4.30118 0.13485,0.22894 -0.6515,0.41625 -1.74746,0.41625 -1.16473,0 -2.11257,-0.31253 -2.28129,-0.7522 z" id="path3492-6" />
      <path style="fill:#__DARK::;stroke-width:0.554992" d="M 3.81273,37.95417 C 0.60765,37.75795 -1.3591,37.54854 -0.55784,37.48879 0.24343,37.42899 1.61704,37.23709 2.49462,37.06222 L 4.09023,36.74429 3.91689,30.6817 c -0.19893,-6.95765 0.41594,-6.32367 -6.85925,-7.07239 -2.34169,-0.24102 -4.73979,-0.25983 -5.32913,-0.0418 -1.385,0.51236 -1.87628,3.92606 -1.41878,9.85872 0.31963,4.14486 0.27342,4.42115 -0.70868,4.23646 -0.57784,-0.10867 -1.74873,-0.21669 -2.60199,-0.24005 -1.43506,-0.0393 -1.5292,-0.17769 -1.25569,-1.84618 0.16263,-0.99205 0.69618,-4.3012 1.18565,-7.35365 0.98108,-6.11813 2.36074,-9.88268 3.92794,-10.71776 2.10053,-1.11928 11.56692,-2.09896 32.93549,-3.4085 18.64073,-1.14238 26.58236,-1.31947 27.43509,-0.61177 0.67089,0.55679 0.78285,2.22969 0.62734,9.37288 -0.10413,4.7823 -0.47666,9.75719 -0.82785,11.0553 C 49.85637,38.24005 50.033,38.2059 28.53548,38.2618 18.14305,38.2889 7.01781,38.15039 3.81273,37.95418 Z m 39.49945,-4.18146 h 5.92243 l 0.18249,-2.70541 0.18249,-2.7054 -4.90502,0.37031 c -4.70311,0.35507 -10.32446,1.21524 -10.75491,1.64569 -0.11265,0.11265 -0.35736,1.14486 -0.54381,2.29381 l -0.339,2.08898 2.16645,-0.49399 c 1.19155,-0.27169 4.83155,-0.49399 8.08888,-0.49399 z" id="path3490-2" />
      <path style="fill:#__DARK::;stroke-width:0.554992" d="m 56.50547,39.49654 c -0.0174,-0.4009 0.0161,-3.60099 0.0743,-7.11131 0.18326,-11.05104 0.0717,-10.71623 2.39893,-7.19956 1.41231,2.13414 1.47217,2.51724 1.32248,8.46365 l -0.15678,6.2283 -1.80372,0.17391 c -1.19671,0.11539 -1.81433,-0.0714 -1.83524,-0.55499 z" id="path3488-9" />
      <path style="fill:#78a63a;fill-opacity:1;stroke-width:0.554992" d="M 38.19326,46.63008 C 38.05658,46.50938 29.32849,46.23736 18.79752,46.0256 -4.38076,45.55954 -4.09212,45.57453 -4.34288,44.82399 -4.5334,44.25376 21.38967,43.48506 40.81039,43.48506 h 6.84672 v 1.38748 c 0,1.34628 -0.11402,1.38749 -3.83955,1.38749 -2.11175,0 -4.1852,0.13263 -4.60768,0.29475 -0.42246,0.16212 -0.87995,0.196 -1.01662,0.0753 z" id="path3486-1" />
      <path style="fill:#78a63a;fill-opacity:1;stroke-width:0.554992" d="M 55.5709,76.64586 C 54.46524,75.45518 54.39654,74.63201 54.09371,58.94277 53.80646,44.06142 53.86261,42.45525 54.68099,42.1412 c 0.49768,-0.19098 0.96599,-0.27891 1.04067,-0.19542 0.0747,0.0835 0.43587,7.39445 0.80266,16.24659 0.38165,9.21116 0.91208,16.39149 1.24021,16.78851 0.40164,0.48596 2.60753,0.69375 7.36534,0.69375 8.82074,0 12.1782,0.43394 11.32369,1.46357 -0.48542,0.58489 -2.79257,0.7564 -10.17541,0.7564 -9.18772,0 -9.59139,-0.0471 -10.70725,-1.24874 z" id="path3484-2" />
      <path style="fill:#__DARK::;stroke-width:0.554992" d="m 52.68252,82.5394 c -2.70114,-2.69781 -5.34809,-4.72556 -7.64391,-5.85578 -3.44211,-1.69455 -3.63031,-1.72269 -9.46659,-1.4148 -3.27506,0.17278 -6.20383,0.39719 -6.50839,0.49872 -0.30456,0.10151 -0.67861,-0.0327 -0.83124,-0.29842 -0.15263,-0.26565 0.84636,-0.9385 2.21997,-1.49522 1.3736,-0.55672 2.06262,-1.02617 1.53116,-1.04323 -0.53148,-0.017 -7.64925,1.11293 -15.81728,2.51106 -17.58967,3.01087 -19.39797,3.2771 -18.95049,2.79004 0.48728,-0.53038 12.22924,-2.74286 25.46672,-4.79858 6.25753,-0.97176 11.68952,-1.85613 12.07108,-1.96525 0.38156,-0.10913 0.69373,-1.03041 0.69373,-2.04731 0,-2.26761 0.83906,-3.18088 2.92245,-3.18088 3.26325,0 5.1021,2.17188 4.27642,5.05087 -0.39224,1.36766 -0.19159,1.56264 3.39197,3.29627 2.09489,1.01343 4.65042,2.73418 5.67898,3.82389 1.8105,1.91814 5.61476,7.7619 5.26819,8.09254 -0.0939,0.0896 -2.03019,-1.69414 -4.30277,-3.96392 z" id="path3482-7" />
      <path style="fill:#78a63a;fill-opacity:1;stroke-width:0.554992" d="m 64.73129,111.61037 c -0.57358,-0.44325 -1.12507,-2.29693 -1.52734,-5.13368 -0.34629,-2.44197 -0.76131,-4.89338 -0.92228,-5.44759 -0.25223,-0.86844 0.002,-0.98346 1.83751,-0.83249 l 2.13018,0.17516 0.15752,5.96617 c 0.0866,3.28139 -0.053,5.96616 -0.31017,5.96616 -0.25723,0 -0.87167,-0.31218 -1.36542,-0.69373 z" id="path3480-0" />
      <path style="fill:#78a63a;fill-opacity:1;stroke-width:0.554992" d="m -28.65432,102.24042 c -4.88393,-0.19323 -14.56161,-0.53719 -21.50595,-0.76436 l -12.62607,-0.41302 V 76.77756 52.49207 l 16.51101,-0.46869 c 9.08107,-0.25777 18.75875,-0.40988 21.50596,-0.338 2.74721,0.0719 5.74417,-0.0807 6.6599,-0.33909 0.95932,-0.27067 2.31183,-0.24896 3.19121,0.0512 l 1.52623,0.52101 v 25.48999 25.48999 l -3.19121,-0.15339 c -1.75516,-0.0844 -7.18715,-0.31148 -12.07108,-0.50471 z" id="path3478-9" />
      <path style="fill:#__DARK::;stroke-width:0.554992" d="m 44.87313,127.3932 c -1.73918,-1.40831 -1.08899,-3.52812 1.01523,-3.30993 1.28616,0.13336 1.54377,-0.11245 1.99157,-1.90019 0.57608,-2.29991 -0.17503,-3.77406 -1.92299,-3.77406 -1.45483,0 -1.70843,-0.75071 -0.72696,-2.15195 0.94441,-1.34834 2.44736,-1.20346 4.29313,0.41387 0.88168,0.77256 0.9957,1.49895 0.77612,4.94458 -0.20668,3.24303 -0.51145,4.30942 -1.5465,5.41118 -1.53728,1.63637 -2.2305,1.70185 -3.8796,0.3665 z" id="path3476-3" />
      <path style="fill:none;stroke:#__DARK::;stroke-width:0.563958px;stroke-linecap:butt;stroke-linejoin:miter;stroke-opacity:1" d="M 104.99454,1.66086 190.33746,38.21264 104.99454,4.00402 Z" id="path3597-6" />
      <path id="path3012-0" style="fill:#__DARK::;stroke-width:0.984103" d="m 114.43558,788.82199 c -8.64932,-1.26316 -13.18896,-2.80784 -17.56218,-5.97578 -6.410416,-4.64368 -5.520118,-8.78897 3.0271,-14.09441 3.65263,-2.26727 14.05862,-5.42929 39.13765,-11.89259 11.63702,-2.99905 22.38442,-5.8003 23.88311,-6.22499 l 2.72489,-0.77216 -6.20772,-6.15254 c -6.83481,-6.77405 -6.30179,-6.56364 -45.4949,-17.9595 -7.03634,-2.04589 -13.53686,-4.02043 -14.445596,-4.38787 -1.691831,-0.68406 -1.898847,-1.97635 -3.274229,-20.43923 l -0.568152,-7.6268 11.112197,-0.005 c 6.1117,-0.003 15.42994,-0.29102 20.70719,-0.64049 10.06874,-0.66674 10.92178,-1.19303 8.42191,-5.19596 -1.14442,-1.8325 1.08009,-14.5449 6.78453,-38.77169 1.83495,-7.79303 1.01652,-7.28035 16.7839,-10.51402 l 11.07817,-2.27198 -0.59377,-12.38668 c -0.32657,-6.81284 -0.9354,-18.36527 -1.35297,-25.67223 -0.41755,-7.30697 -0.47627,-13.60475 -0.13048,-13.99509 0.53587,-0.6049 20.72177,-6.7606 39.4844,-12.04079 4.49277,-1.26436 5.75948,-2.12755 7.28843,-4.96663 1.69692,-3.151 2.18508,-3.41609 5.87933,-3.19268 2.39974,0.14513 4.62564,0.94845 5.50491,1.98672 1.69843,2.00554 1.82231,2.03405 20.17411,4.64397 7.57759,1.07766 16.81211,2.45405 20.52114,3.05865 l 6.74372,1.09928 2.37075,5.36071 c 1.30391,2.94838 2.34794,6.55418 2.32006,8.01289 -0.27219,14.24132 -0.32662,19.43422 -0.27019,25.77861 0.0361,4.05942 0.1179,12.83883 0.18176,19.5098 l 0.1161,12.12903 23.95203,-0.70445 c 27.03291,-0.79506 24.60503,-1.5284 25.76847,7.7834 0.38254,3.06176 0.88792,5.56685 1.12306,5.56685 0.23514,0 1.77523,-0.69692 3.42242,-1.54872 1.64719,-0.85179 3.16566,-1.37795 3.37438,-1.16923 0.20873,0.20872 -1.83873,8.06627 -4.54989,17.4612 -2.71116,9.39495 -4.58376,17.39553 -4.16133,17.77907 0.42243,0.38354 2.85469,0.91643 5.40501,1.18419 l 4.63695,0.48686 1.65792,-5.04143 c 4.68864,-14.25727 14.76778,-30.75215 21.02761,-34.41244 7.58389,-4.43451 19.53309,-0.56962 26.91314,8.70486 7.11473,8.94105 9.35502,15.18258 10.22758,28.49437 l 0.77115,11.76461 4.14348,1.02873 c 2.27893,0.56579 4.55407,1.47155 5.05586,2.01281 0.5018,0.54126 2.38816,5.53327 4.1919,11.09335 1.80375,5.56008 3.73566,9.94011 4.29312,9.73338 0.55748,-0.20672 8.09913,-2.71301 16.75923,-5.56951 8.66011,-2.85652 16.03847,-5.46515 16.39636,-5.79698 0.35789,-0.33182 -0.026,-2.27501 -0.8531,-4.3182 l -1.50382,-3.71489 -6.52766,0.27053 -6.52767,0.27053 -0.31885,-7.52701 c -0.27735,-6.54732 0.0749,-8.51034 2.70628,-15.08193 1.66382,-4.1552 3.02513,-7.71574 3.02513,-7.91231 0,-0.58193 -7.82613,-1.44244 -15.7145,-1.72786 -7.30695,-0.26438 -7.35475,-0.2838 -8.2328,-3.34541 -0.88016,-3.06894 -0.90956,-3.08068 -8.58222,-3.42913 -6.93694,-0.31502 -7.99717,-0.63527 -10.71116,-3.23544 -1.65669,-1.58721 -3.01215,-3.24582 -3.01215,-3.68581 0,-0.43999 4.36043,-0.79999 9.68985,-0.79999 5.32941,0 13.74349,-0.28773 18.69795,-0.63941 l 9.00811,-0.63942 v -3.78904 c 0,-3.53975 0.19102,-3.78905 2.9032,-3.78905 2.83706,0 2.90991,-0.12652 3.19833,-5.55416 l 0.29514,-5.55416 10.1938,-0.45385 c 14.63799,0.97439 5.3742,5.85794 -1.28226,12.80359 l -0.3849,15.94435 -0.38491,15.94433 10.5916,0.91561 10.5916,0.91561 -0.63435,-19.69489 c -0.3489,-10.83219 -0.63644,-22.24126 -0.639,-25.35349 -1.96614,-17.59563 -17.73486,-3.0013 -21.40889,-3.07658 l -5.65859,-0.12175 -0.22148,-14.76154 c -0.12183,-8.11885 -0.26676,-17.64005 -0.3221,-21.15821 -0.0553,-3.51817 -6.5e-4,-9.83681 0.12152,-14.04143 0.12216,-4.20462 -0.0463,-7.9132 -0.37443,-8.2413 -0.3281,-0.3281 -1.97768,0.5656 -3.66573,1.98601 -3.25312,2.73731 -2.93637,2.73461 -13.49766,0.11487 -2.84159,-0.70486 -5.16654,-1.11096 -5.16654,-0.90243 0,0.20853 1.1977,3.2956 2.66156,6.86016 2.24405,5.46436 3.10355,6.56942 5.47922,7.04456 5.12766,1.02553 7.69455,8.19499 4.28352,11.96415 -0.87954,0.97188 -1.59917,2.13798 -1.59917,2.59135 0,0.45335 -1.88209,3.62836 -4.18243,7.05557 -4.39686,6.55075 -8.45077,9.011 -12.65125,7.67781 -2.0234,-0.6422 -2.07717,-1.03231 -1.41999,-10.30196 0.46647,-6.57951 0.34321,-9.84451 -0.38872,-10.29687 -0.58948,-0.36432 -0.82356,-1.064 -0.5202,-1.55485 0.30336,-0.49085 -0.003,-3.57887 -0.68148,-6.86227 -1.21113,-5.86373 -1.34468,-6.04033 -7.51542,-9.9375 -3.45531,-2.18223 -6.05501,-4.19506 -5.77711,-4.47297 0.2779,-0.2779 2.20104,-0.92216 4.27364,-1.43169 2.07258,-0.50953 4.65403,-1.15944 5.73655,-1.44424 5.91948,-1.55735 13.3577,-1.57842 17.18094,-0.0486 5.97658,2.39135 8.87805,2.01058 13.32624,-1.74886 l 3.93642,-3.3269 0.58937,-12.65013 c 0.91865,-19.71724 -1.45381,-24.95147 -11.30943,-24.95147 -2.97082,0 -5.69338,-0.47231 -6.05016,-1.04957 -0.95853,-1.55096 -0.23979,-1.90399 5.1841,-2.54638 6.63398,-0.78569 13.04663,4.54231 13.04663,4.54231 l 5.76027,3.45854 c 12.91083,7.42415 8.40752,-1.6364 7.55781,-36.51135 l -0.65188,-27.67799 3.26972,-0.55903 c 1.79835,-0.30746 7.12616,-0.85645 11.83959,-1.21999 l 8.56986,-0.66097 10.12809,5.69657 c 5.57045,3.13312 13.00659,7.31487 16.52476,9.2928 3.51817,1.97792 15.69644,8.83951 27.06283,15.24797 11.36639,6.40846 24.43035,13.70319 29.03103,16.2105 4.60068,2.50731 16.11468,8.99078 25.58667,14.40772 9.47199,5.41694 20.32173,11.58441 24.11052,13.70549 3.7888,2.12108 9.10295,5.09497 11.80924,6.60864 2.70628,1.51368 6.73428,3.68228 8.9511,4.81912 l 4.0306,2.06695 0.64389,19.22593 c 1.04383,31.16734 0.81799,58.0515 -0.49132,58.48793 -1.34535,0.44845 -1.49372,6.47722 -0.39574,16.07905 0.95949,8.39062 -1.66518,22.92063 -4.29013,23.74988 -0.85783,0.271 -3.77391,1.39898 -6.4802,2.50663 -3.84527,1.57382 -10.83436,2.51769 -31.98334,4.31932 -14.88455,1.26796 -28.12313,2.42296 -29.41905,2.56666 -2.01881,0.22385 -2.79392,1.52006 -5.41257,9.05142 l -3.05634,8.79015 -5.41256,1.6731 c -2.97691,0.9202 -7.18395,2.15555 -9.34898,2.74524 -2.16503,0.58967 -5.65609,2.49407 -7.75792,4.23198 -2.39284,1.97856 -5.15213,3.27542 -7.38077,3.46896 -1.9576,0.17 -7.10203,0.74079 -11.43209,1.26843 -4.33005,0.52762 -14.69549,1.65872 -23.03429,2.51354 -13.28799,1.36218 -16.69293,2.10396 -27.55488,6.00287 -6.81638,2.44676 -15.93618,5.71641 -20.26623,7.26591 -7.23519,2.58909 -35.29177,11.76352 -40.68408,13.30359 -1.40383,0.40095 -2.88919,2.06289 -3.80162,4.25361 -0.82365,1.97756 -3.55101,6.14097 -6.0608,9.25202 -4.87224,6.03947 -6.93254,7.08225 -19.81685,10.02985 -13.64538,3.12172 -48.94402,8.01315 -71.34745,9.8868 -3.7888,0.31687 -11.76003,1.00708 -17.71386,1.5338 -5.95382,0.52672 -13.70363,1.19439 -17.22179,1.48371 -3.51817,0.28931 -8.6109,0.74223 -11.31719,1.00648 -28.73478,2.80573 -44.87789,3.53413 -85.61694,3.86312 -24.8978,0.20106 -47.70439,0.01 -50.6813,-0.42488 z m 265.74421,-43.31937 c 4.79794,-5.60559 6.36119,-12.03702 6.35072,-26.12778 -0.008,-11.09592 -0.31382,-13.55053 -2.30303,-18.50028 -2.85503,-7.10413 -5.66445,-10.36431 -9.57713,-11.11375 -2.49985,-0.47882 -3.5687,-0.045 -6.08293,2.46929 -5.36057,5.36057 -7.45536,12.6285 -7.54012,26.16064 1.01301,11.30077 -0.10539,20.91848 8.10964,28.74081 3.33213,3.08813 7.53623,2.46797 11.04285,-1.62893 z m -27.951,-15.7947 c -1.72141,-13.25687 -1.37462,-27.78535 0.78726,-32.98181 4.05408,-9.74465 12.40385,-17.22739 19.17716,-17.18582 3.7574,0.023 11.19813,2.98674 14.10634,5.61864 1.26122,1.14139 2.06532,1.2934 2.82473,0.534 1.52983,-1.52984 -3.03109,-7.86941 -8.12077,-11.28768 -10.2652,-6.89418 -25.58205,-0.40384 -32.52154,13.78061 -4.20031,8.58551 -3.2944,32.23195 1.7697,46.19362 1.28524,3.54338 2.37176,6.70963 2.41449,7.03612 0.0427,0.32648 0.2637,0.15076 0.49105,-0.39049 0.22733,-0.54126 -0.19045,-5.63399 -0.92842,-11.31719 z m -89.30877,3.28892 c 29.80019,-1.28985 12.31975,-2.37315 -37.48014,-2.32271 -56.786,0.0575 -58.9734,-0.11069 -89.7387,-6.89935 -10.08719,-2.22585 -19.10924,-3.89142 -20.049,-3.70127 -2.16793,0.43863 26.88129,8.06794 38.63957,10.14805 4.87131,0.86176 12.84254,1.82096 17.71385,2.13155 4.87131,0.3106 9.04144,0.72819 9.26697,0.92797 0.70405,0.62371 65.91564,0.39668 81.64745,-0.28424 z m 31.107,-20.90032 0.69322,-9.68539 -20.02501,-0.14737 c -11.01374,-0.0811 -22.46065,-0.34957 -25.43756,-0.59671 -2.97691,-0.24713 -18.47653,-0.70678 -34.4436,-1.02143 -15.96707,-0.31464 -45.41635,-0.97933 -65.44284,-1.47708 -20.02649,-0.49775 -38.18319,-0.87019 -40.34821,-0.82761 -3.74292,0.0736 -3.65407,0.1391 1.80761,1.33292 7.00557,1.53129 22.89519,2.14049 92.17421,3.53389 29.49848,0.5933 58.50491,1.37369 64.45873,1.73419 l 10.82513,0.65547 1.71634,7.38078 c 4.23758,18.22286 3.7526,17.16608 8.1294,17.71385 l 3.9317,0.49205 0.63383,-4.70109 c 0.3486,-2.58559 0.94577,-9.05951 1.32705,-14.38647 z m 233.84661,-10.68155 c 3.06945,-7.90929 2.68153,-25.38048 -0.67735,-30.50677 -1.4749,-2.25098 -1.65949,-2.29004 -3.39593,-0.71859 -2.8271,2.5585 -2.79773,5.53695 0.0883,8.94976 4.68397,5.53905 4.52836,14.51603 -0.31632,18.24791 -1.84523,1.4214 -1.96787,1.9587 -0.95466,4.18244 1.5146,3.3242 3.93355,3.25297 5.25602,-0.15475 z m -282.90572,-6.98997 -2.67011,-2.78701 -25.56587,-0.67253 -25.56587,-0.67254 -3.65803,2.48571 c -2.01192,1.36713 -3.00168,2.52581 -2.19947,2.57483 8.42564,0.51494 61.59213,2.35314 61.90916,2.14049 0.23117,-0.15508 -0.78125,-1.5361 -2.24981,-3.06895 z m 305.12365,-2.1869 c 3.09396,-8.87806 -0.12773,-29.11157 -3.7298,-23.42461 -1.3539,2.13754 -1.03623,4.97512 0.78186,6.98409 2.39742,2.64911 2.37377,11.70316 -0.0375,14.37033 -1.19814,1.32528 -1.58612,2.71123 -1.14662,4.09596 0.91674,2.88841 2.72917,1.99986 4.13208,-2.02577 z m -26.2692,-4.43362 c 0,-1.18972 -0.87097,-3.2086 -1.93547,-4.4864 l -1.93546,-2.32325 -0.0193,3.93641 c -0.0106,2.16503 0.26485,4.9983 0.61214,6.29616 0.59866,2.23722 0.70015,2.26578 1.95477,0.54998 0.7278,-0.99536 1.32331,-2.78317 1.32331,-3.9729 z m -253.13956,-52.37754 -0.26692,-52.71123 -7.38077,-1.24649 c -12.23352,-2.06605 -28.16499,-3.3962 -32.45686,-2.7099 -3.3569,0.53679 -4.26456,1.1851 -5.37285,3.83761 -0.73347,1.75544 -1.81246,3.48767 -2.39776,3.84941 -1.81264,1.12027 -4.94233,-1.28603 -7.05258,-5.42246 -1.44101,-2.82462 -2.49677,-3.81798 -3.6936,-3.47535 -1.46114,0.4183 -11.36876,2.06271 -24.36854,4.04454 -2.19709,0.33496 -6.34179,1.94948 -9.21044,3.58782 l -5.21572,2.97882 0.71516,48.38577 c 0.39334,26.61217 0.77385,48.43598 0.84557,48.49736 0.0717,0.0614 14.08007,0.63291 31.12965,1.27009 44.55108,1.66493 59.50152,2.30194 59.80738,2.54825 0.14804,0.11921 1.37526,0.005 2.72717,-0.25313 l 2.45803,-0.46988 z m 275.75885,46.36405 c 0.008,-1.18588 -0.42778,-2.42985 -0.96903,-2.76436 -0.59868,-0.37001 -0.9782,1.05259 -0.96904,3.6323 0.011,3.10051 0.27153,3.84367 0.96904,2.76437 0.52468,-0.81189 0.96075,-2.44642 0.96903,-3.63231 z M 300.43102,655.90021 v -4.92051 h -7.38078 -7.38077 l 0.0135,2.70628 c 0.033,6.63221 0.59459,7.13475 7.97417,7.13475 h 6.77394 v -4.92052 z m 16.88079,-6.1e-4 0.341,-4.92112 -7.13474,6.1e-4 -7.13475,6.1e-4 v 4.92051 4.92052 h 6.79375 6.79373 z M 154.7838,655.40816 v -3.44436 h -5.02581 c -4.17856,0 -4.92511,0.26241 -4.42846,1.55664 0.32853,0.85615 0.59734,2.40612 0.59734,3.44436 0,1.58123 0.71901,1.88772 4.42846,1.88772 4.40504,0 4.42847,-0.0182 4.42847,-3.44436 z m 13.39067,0.90361 c -0.32854,-0.85615 -0.59734,-2.40611 -0.59734,-3.44436 0,-1.58122 -0.719,-1.88771 -4.42846,-1.88771 -4.40503,0 -4.42846,0.0182 -4.42846,3.44436 v 3.44436 h 5.0258 c 4.17856,0 4.9251,-0.26241 4.42846,-1.55665 z m 460.2749,-41.0058 c -0.18741,-11.5017 -0.60221,-27.99772 -0.92177,-36.65783 l -0.58101,-15.74564 -17.30723,-9.34898 c -27.13491,-14.65767 -29.9237,-16.1789 -40.2142,-21.93599 -28.58348,-15.99125 -93.00997,-51.03985 -93.27349,-50.74166 -0.31872,0.36066 0.86239,62.85926 1.91282,101.21663 0.3335,12.17827 0.55255,23.02801 0.48676,24.11052 -0.0657,1.08251 -0.10405,2.63247 -0.085,3.44436 0.019,0.81188 0.0428,6.6796 0.0528,13.03936 l 0.0183,11.56321 7.14289,0.14163 c 22.52242,0.44659 96.4177,1.47092 117.93487,1.63482 l 25.175,0.19176 z M 412.43578,586.27494 c -1.12226,-2.57097 -2.09556,-4.7501 -2.16289,-4.84251 -0.0673,-0.0924 -2.55626,0.13029 -5.53097,0.49488 l -5.40857,0.66289 4.92051,2.8893 c 4.75031,2.78935 9.63775,5.45134 10.03172,5.46386 0.10488,0.003 -0.72753,-2.09745 -1.8498,-4.66842 z" class="UnoptimicedTransforms" transform="matrix(0.56395759,0,0,0.56395759,-163.39765,-283.68043)" />
      <path id="path234-6" style="fill:#78a63a;stroke:#638830;stroke-width:0.672982;stroke-linecap:round" d="M 85.05651,-53.936 A 112.61171,112.61171 0 0 0 -12.20084,2.41238 110.03211,109.1299 0 0 1 80.74311,-48.40658 110.03211,109.1299 0 0 1 190.77432,60.72362 110.03211,109.1299 0 0 1 80.74311,169.85383 110.03211,109.1299 0 0 1 50.03386,165.49638 112.61171,112.61171 0 0 0 85.05651,171.28685 112.61171,112.61171 0 0 0 197.66738,58.67486 112.61171,112.61171 0 0 0 85.05651,-53.936 Z" />
      <path style="fill:#78a63a;fill-opacity:1;stroke:#__DARK::;stroke-width:0.563958px;stroke-linecap:butt;stroke-linejoin:miter;stroke-opacity:1" d="M 105.95372,28.24716 190.33746,49.47793 105.95372,30.59032 Z" id="path3597-5-2" sodipodi:nodetypes="cccc" />
      <path style="fill:none;stroke:#__DARK::;stroke-width:0.563958px;stroke-linecap:butt;stroke-linejoin:miter;stroke-opacity:1" d="m 106.48496,55.8492 84.28936,4.87442 -84.28936,-2.53126 z" id="path3597-3-6" sodipodi:nodetypes="cccc" />
   </g>
</svg>
