<svg xmlns="http://www.w3.org/2000/svg" version="1.1"
    xmlns:xlink="http://www.w3.org/1999/xlink"
    xmlns:svgjs="http://svgjs.com/svgjs" width="1440" height="560" preserveAspectRatio="none" viewBox="0 0 1440 560">
    <g mask="url(&quot;#SvgjsMask1003&quot;)" fill="none">
        <rect width="1440" height="560" x="0" y="0" fill="rgba(249, 249, 249, 1)"></rect>
        <path d="M0 0L655.36 0L0 175.03z" fill="rgba(255, 255, 255, .1)"></path>
        <path d="M0 175.03L655.36 0L684.84 0L0 327.98z" fill="rgba(255, 255, 255, .075)"></path>
        <path d="M0 327.98L684.84 0L712.7800000000001 0L0 331.47z" fill="rgba(255, 255, 255, .05)"></path>
        <path d="M0 331.47L712.7800000000001 0L717.82 0L0 423.81000000000006z" fill="rgba(255, 255, 255, .025)"></path>
        <path d="M1440 560L942.23 560L1440 399.03z" fill="rgba(0, 0, 0, .1)"></path>
        <path d="M1440 399.03L942.23 560L549.77 560L1440 356.76z" fill="rgba(0, 0, 0, .075)"></path>
        <path d="M1440 356.76L549.77 560L464.99 560L1440 306.73z" fill="rgba(0, 0, 0, .05)"></path>
        <path d="M1440 306.73L464.99 560L183.95 560L1440 301.73z" fill="rgba(0, 0, 0, .025)"></path>
    </g>
    <defs>
        <mask id="SvgjsMask1003">
            <rect width="1440" height="560" fill="#ffffff"></rect>
        </mask>
    </defs>
</svg>