<?xml version="1.0" encoding="UTF-8" standalone="no"?>
<!-- Created with Inkscape (http://www.inkscape.org/) -->

<svg
   width="45.710083mm"
   height="45.710068mm"
   viewBox="0 0 45.710083 45.710068"
   version="1.1"
   id="svg5"
   xml:space="preserve"
   inkscape:export-filename="logo.svg"
   inkscape:export-xdpi="96"
   inkscape:export-ydpi="96"
   xmlns:inkscape="http://www.inkscape.org/namespaces/inkscape"
   xmlns:sodipodi="http://sodipodi.sourceforge.net/DTD/sodipodi-0.dtd"
   xmlns="http://www.w3.org/2000/svg"
   xmlns:svg="http://www.w3.org/2000/svg"><sodipodi:namedview
     id="namedview7"
     pagecolor="#ffffff"
     bordercolor="#666666"
     borderopacity="1.0"
     inkscape:showpageshadow="2"
     inkscape:pageopacity="0.0"
     inkscape:pagecheckerboard="0"
     inkscape:deskcolor="#d1d1d1"
     inkscape:document-units="mm"
     showgrid="true"
     showguides="true"><sodipodi:guide
       position="50.614425,53.850156"
       orientation="1,0"
       id="guide1864"
       inkscape:locked="false" /><sodipodi:guide
       position="-57.705345,69.626456"
       orientation="1,0"
       id="guide1866"
       inkscape:locked="false" /><inkscape:grid
       type="xygrid"
       id="grid1868" /></sodipodi:namedview><defs
     id="defs2" /><g
     inkscape:label="Layer 1"
     inkscape:groupmode="layer"
     id="layer1"
     transform="translate(-104.38368,-199.57008)"><rect
       style="fill:#ffffff;fill-opacity:0;stroke:none;stroke-width:0.388001;stroke-dasharray:none;stroke-opacity:1"
       id="rect3846"
       width="45.710072"
       height="45.710072"
       x="104.38368"
       y="199.57007"
       rx="0.092153795" /><g
       id="g3851"
       transform="translate(0.65851568,10.224964)"><path
         style="fill:#78a63a;fill-opacity:1;stroke:none;stroke-width:0.193002;stroke-opacity:1"
         d="m 146.16328,218.67274 c -2.05477,-3.49019 -7.36995,-4.56564 -11.20624,-4.38528 -5.80287,-0.48673 -12.48103,3.2419 -16.1298,-1.29417 -3.1393,-3.90271 -6.36097,-5.71362 -0.95465,-5.69671 2.05361,0.006 8.37709,0.86129 4.31204,-1.84217 -3.30198,-2.82595 -11.37766,-2.54159 -12.01061,-2.7343 -0.86468,-0.10364 -6.02567,-0.81091 -3.25316,-1.84471 0.24981,0.0198 9.85702,0.10403 14.42012,1.79825 3.77301,1.70395 5.92779,5.44949 8.48758,8.43601 4.38145,1.1798 9.06806,1.19643 13.39071,2.63267 1.88613,0.91604 4.98505,4.77493 3.74235,5.86348 l -0.34808,-0.37785 z"
         id="path659-8"
         sodipodi:nodetypes="ccscccccccccc" /><path
         id="path443-4"
         style="fill:#78a63a;fill-opacity:1;stroke:none;stroke-width:0.0605896;stroke-dasharray:none;stroke-opacity:1"
         d="m 125.26424,222.37252 c -6.45043,0.003 -12.90096,0.0402 -19.35127,0.093 v 1.03146 c 3.84139,0.008 7.64129,0.0139 11.59981,0.0279 3.42703,-0.22108 6.25304,-0.70162 7.75146,-1.15239 z"
         sodipodi:nodetypes="ccccc" /><path
         id="path1775-7"
         style="fill:#000000;fill-opacity:1;stroke:none;stroke-width:0.693097"
         d="m 134.19985,217.45471 a 7.3637648,4.2631922 0 0 0 -7.3272,3.86178 h 2.15646 a 5.2216716,3.0230446 0 0 1 5.17074,-2.62154 5.2216716,3.0230446 0 0 1 5.17126,2.62154 h 2.15594 a 7.3637648,4.2631922 0 0 0 -7.3272,-3.86178 z" /></g></g></svg>
