<?xml version="1.0" encoding="UTF-8" standalone="no"?>
<svg
   id="Layer_7"
   data-name="Layer 7"
   viewBox="0 0 800 800.00001"
   version="1.1"
   sodipodi:docname="logo-2.svg"
   inkscape:version="1.2.1 (9c6d41e410, 2022-07-14)"
   width="800"
   height="800"
   xmlns:inkscape="http://www.inkscape.org/namespaces/inkscape"
   xmlns:sodipodi="http://sodipodi.sourceforge.net/DTD/sodipodi-0.dtd"
   xmlns="http://www.w3.org/2000/svg"
   xmlns:svg="http://www.w3.org/2000/svg"
   xmlns:rdf="http://www.w3.org/1999/02/22-rdf-syntax-ns#"
   xmlns:cc="http://creativecommons.org/ns#"
   xmlns:dc="http://purl.org/dc/elements/1.1/">
  <sodipodi:namedview
     id="namedview705"
     pagecolor="#ffffff"
     bordercolor="#666666"
     borderopacity="1.0"
     inkscape:showpageshadow="2"
     inkscape:pageopacity="0.0"
     inkscape:pagecheckerboard="0"
     inkscape:deskcolor="#d1d1d1"
     showgrid="false"
     inkscape:zoom="0.52897007"
     inkscape:cx="474.507"
     inkscape:cy="230.63687"
     inkscape:window-width="1920"
     inkscape:window-height="1017"
     inkscape:window-x="1920"
     inkscape:window-y="39"
     inkscape:window-maximized="1"
     inkscape:current-layer="Layer_7" />
  <defs
     id="defs650">
    <rect
       x="50.426846"
       y="360.26733"
       width="577.67004"
       height="74.390968"
       id="rect533" />
    <style
       id="style648">.cls-1{fill:#231f20;}.cls-2{fill:#233873;}.cls-3{fill:#c70708;}.cls-4{fill:#fff;}.cls-5{stroke:#000;stroke-miterlimit:10;stroke-width:5px;}</style>
  </defs>
  <title
     id="title652">rapid_logo</title>
  <g
     id="g4877"
     transform="matrix(0.76229008,0,0,0.76229008,76.552536,254.74373)">
    <path
       class="cls-1"
       d="M 663.2,353 675,221.18 a 9.84,9.84 0 0 1 9.12,-9 c 4.74,-0.32 11,-0.63 17.79,-0.63 3.05,0 7.81,0.31 7.81,0.31 l -12.78,140.8 z"
       id="path654"
       style="fill:#78a63a;fill-opacity:1"
       inkscape:export-filename="../static/img.src/logo-light.svg"
       inkscape:export-xdpi="48"
       inkscape:export-ydpi="48" />
    <path
       class="cls-1"
       d="m 760.59,353 8.95,-128.39 a 184.3,184.3 0 0 1 21.27,8.5 9.86,9.86 0 0 1 5.61,9.57 L 789,352.57 Z"
       id="path656"
       style="fill:#78a63a;fill-opacity:1" />
    <path
       class="cls-1"
       d="m 712.22,352.57 12,-129.44 a 9.88,9.88 0 0 1 11.8,-8.75 c 4.63,1 9,1.94 13.82,3.31 A 9.83,9.83 0 0 1 757,228 l -10.32,124.57 z"
       id="path658"
       style="fill:#78a63a;fill-opacity:1" />
    <path
       class="cls-2"
       d="m 629.15,189.1 0.48,-0.74 -1,0.43 z"
       id="path660" />
    <path
       class="cls-2"
       d="m 807.35,230.23 v 0 a 2,2 0 0 0 -0.2,-0.36 c 0,0 -0.01,0.13 0.2,0.36 z"
       id="path662" />
    <path
       class="cls-3"
       d="m 524,82.4 a 31.34,31.34 0 0 1 1.29,3.43 45.22,45.22 0 0 1 1.58,7.58 V 93 93.58 93.41 q 0.07,3.65 0.12,7.29 c 4.7,0.13 8.95,2.23 12.87,5 v -1.28 c -0.08,-3.86 -0.11,-7.72 -0.14,-11.58 v -0.25 -0.33 a 52.34,52.34 0 0 0 -2,-10.26 36.67,36.67 0 0 0 -2,-5.13 27.91,27.91 0 0 0 -3,-5 22.39,22.39 0 0 0 -2.05,-2.35 22.64,22.64 0 0 0 -2.51,-2.12 17.74,17.74 0 0 0 -2.94,-1.7 16.94,16.94 0 0 0 -3.22,-1.11 c -0.56,-0.13 -1.12,-0.22 -1.69,-0.31 a 40.51,40.51 0 0 0 -7.82,-0.17 l 0.47,11.56 c 0.59,-0.07 1.16,-0.13 1.71,-0.15 a 11.15,11.15 0 0 1 1.54,0 10.18,10.18 0 0 1 1.34,0.21 l 0.6,0.17 0.55,0.22 a 6.39,6.39 0 0 1 1,0.55 8.41,8.41 0 0 1 0.94,0.72 9,9 0 0 1 0.91,0.93 c 0.29,0.36 0.6,0.74 0.88,1.16 A 20.73,20.73 0 0 1 524,82.4 Z"
       id="path664"
       style="fill:#000000;fill-opacity:1" />
    <path
       class="cls-4"
       d="m 454.8,237.79 v -66.08 c 29.7,-2.58 59.66,-5 74.83,-3.87 -36.51,13.01 -55.72,25.88 -74.83,69.95 z"
       id="path666" />
    <path
       class="cls-4"
       d="m 549.23,169 0.67,31 c 9.29,-18.58 28,-24.1 51,-21.08 -19.63,-6.4 -32.45,-9.81 -51.67,-9.92 z"
       id="path668" />
    <path
       class="cls-2"
       d="m 256.27,254.44 -1.34,0.06 a 10.82,10.82 0 0 0 1.34,-0.06 z"
       id="path670" />
    <path
       style="fill:#78a63a;fill-opacity:1;stroke:#000000;stroke-width:0.507027px;stroke-linecap:butt;stroke-linejoin:miter;stroke-opacity:1"
       d="M 351.22106,199.98996 63.153144,230.48278 351.57118,205.23239 Z"
       id="path2145-3-6" />
    <path
       style="fill:#78a63a;fill-opacity:1;stroke:#000000;stroke-width:0.507027px;stroke-linecap:butt;stroke-linejoin:miter;stroke-opacity:1"
       d="M 351.82237,166.0455 63.754455,196.53832 352.17249,171.28793 Z"
       id="path2145-3" />
    <path
       class="cls-3"
       d="m 817.73,233 c -0.26,-6 -0.35,-6.69 -2.05,-10.52 -1.7,-3.83 -7.86,-10.54 -7.86,-10.54 a 71.15,71.15 0 0 0 -9.73,-9.82 93.4,93.4 0 0 0 -11,-7.88 108.78,108.78 0 0 0 -11.72,-6.32 129.1,129.1 0 0 0 -12.18,-4.92 c -4.16,-1.35 -8.33,-2.61 -12.55,-3.64 A 231.8,231.8 0 0 0 725.1,174.73 209,209 0 0 0 699.2,173 163.36,163.36 0 0 0 673,174.82 c -2.19,0.36 -4.39,0.74 -6.59,1.22 -1.08,0.22 -2.27,0.52 -3.4,0.78 l -1.51,0.38 -0.86,0.23 -0.78,0.22 c -4.18,1.15 -8.31,2.44 -12.38,3.83 -6.07,2.06 -12,4.37 -17.85,6.85 l -0.48,0.74 -0.53,-0.31 q -2.5,1.07 -5,2.17 c -15.48,7 -30.24,15.06 -44.76,23.22 -14.52,8.16 -28.86,16.38 -43.44,23.95 -7.29,3.77 -14.64,7.38 -22.1,10.65 -7.46,3.27 -15.23,5.68 -22.79,8.54 -27.22,10.28 -99.16,9.21 -132.61,13 V 95.250004 l 6.25,-0.69 v 0 l 1.5,0.37 c 2,0.55 4.34,1.19 6.82,2 1.19,0.39 2.42,0.8 3.68,1.24 L 376.38,114.17 q 0.16,13.23 0.44,26.44 l 0.58,26.44 1.24,52.88 0.69,26.44 0.41,14.65 c 3.8,-0.22 7.89,-0.43 12.32,-0.65 V 246.15 L 392,219.7 l -0.32,-52.88 -0.2,-26.45 q -0.14,-13.23 -0.34,-26.44 l -0.43,-26.449996 -0.22,-13.21 c -0.09,-4.41 -0.11,-8.82 -0.15,-13.23 v -0.28 -0.38 a 59.69,59.69 0 0 0 -2.21,-11.66 40.45,40.45 0 0 0 -2.24,-5.86 32.05,32.05 0 0 0 -3.46,-5.72 26.67,26.67 0 0 0 -2.43,-2.68 26.07,26.07 0 0 0 -2.83,-2.46 19.91,19.91 0 0 0 -3.36,-1.95 20.51,20.51 0 0 0 -3.72,-1.3 c -0.64,-0.15 -1.29,-0.25 -1.93,-0.36 a 46.45,46.45 0 0 0 -8.94,-0.18 l 0.54,13.2 c 0.68,-0.07 1.33,-0.15 2,-0.17 a 14.59,14.59 0 0 1 1.76,0 9.78,9.78 0 0 1 1.53,0.25 l 0.68,0.18 c 0.21,0.1 0.42,0.17 0.62,0.26 a 7.34,7.34 0 0 1 1.14,0.62 10,10 0 0 1 1.07,0.83 11.71,11.71 0 0 1 1.05,1.06 c 0.33,0.42 0.68,0.84 1,1.33 a 24.46,24.46 0 0 1 1.82,3.31 36.91,36.91 0 0 1 1.48,3.93 52.16,52.16 0 0 1 1.8,8.65 c 0,-0.15 0,-0.3 0,-0.46 v 0.66 -0.2 c 0.09,4.26 0.18,8.51 0.22,12.76 l 0.09,6.75 -1.84,0.2 c -4.4,0.47 -8.23,0.87 -11.37,1.31 l -4.85,0.66 v -1 l -0.96,1.18 -4.1,0.56 -1,1.25 L 46.750001,147.58 345.84,105.52 v 0.07 l -117.21,20.08 102.7,-11.67 -65.63,12.39 80.16,-8 v 0.16 l -48.8,7.89 48.81,-1.45 0.19,113.31 -47.58,7.69 45.77,-1.37 c -42.07,3.76 -79.95,9.28 -88,9.87 l 75.17,-2.76 -103.92,9.7 113.83,-4.18 L 30.760001,275.76 344.05,274.9 c 39.65,0.1 115.92,1.74 149.3,-8.09 8.19,-2.31 16.17,-5.2 24,-8.29 7.83,-3.09 15.55,-6.49 23.15,-10 15.2,-7.09 29.93,-14.88 44.74,-22.23 14.81,-7.35 29.64,-14.49 44.76,-20.43 q 5.32,-2.12 10.68,-4 c -0.07,3.07 -0.15,6.5 -0.23,10.23 -0.35,15.65 -0.82,36.51 -1.29,57.37 -0.47,20.86 -0.94,41.72 -1.29,57.37 -0.18,7.82 -0.32,14.34 -0.43,18.91 0,2.28 -0.08,4.07 -0.17,5.29 -0.09,1.22 -0.15,1.87 -0.15,1.87 l 1.27,0.08 c 0,0 0,-0.66 0.08,-1.87 0.08,-1.21 0.27,-3 0.51,-5.27 0.48,-4.54 1.16,-11 2,-18.82 1.64,-15.56 3.83,-36.31 6,-57.06 2.17,-20.75 4.38,-41.5 6,-57.07 0.64,-6.06 1.2,-11.32 1.64,-15.5 3.21,-0.93 6.43,-1.8 9.67,-2.54 l 0.72,-0.17 0.66,-0.15 1.51,-0.32 c 0.9,-0.16 1.72,-0.34 2.69,-0.5 1.87,-0.33 3.78,-0.57 5.68,-0.81 a 171.94,171.94 0 0 1 23.44,-1 233.63,233.63 0 0 1 23.73,1.89 211.15,211.15 0 0 1 23.38,4.37 c 3.84,0.94 7.67,1.89 11.43,3 1.89,0.52 3.78,1.06 5.65,1.62 l 5.58,1.79 c 32.56,10.84 36.55,21.77 38.65,25.65 l 0.19,0.47 a 19.59,19.59 0 0 1 0.7,3.21 c 0.34,2.39 0.53,5 0.65,7.54 0.22,5.17 0.19,10.46 0.07,15.75 -0.25,10.59 -0.85,21.24 -1.59,31.88 -0.74,10.64 -1.79,21.27 -2.84,31.9 l -1.66,15.93 -0.88,8 c -0.3,2.66 -0.61,5.31 -1.14,7.93 l 1.26,0.2 c 0.27,-2.67 0.75,-5.3 1.22,-7.93 l 1.4,-7.9 2.7,-15.81 q 2.64,-15.83 4.95,-31.73 c 1.58,-10.59 3.06,-21.22 4.17,-31.95 0.56,-5.37 1,-10.77 1.23,-16.27 0.04,-2.78 0.03,-5.56 -0.11,-8.44 z"
       id="path672"
       style="fill:#000000;fill-opacity:1" />
    <path
       class="cls-3"
       d="m 395.86,107.27 c 0.59,0.35 1.17,0.68 1.76,1 a 93.45,93.45 0 0 1 8.33,5.93 76,76 0 0 1 7.55,6.87 69.6,69.6 0 0 1 6.35,7.57 76,76 0 0 1 5,7.79 73.8,73.8 0 0 1 3.62,7.51 c 0.24,0.61 0.48,1.19 0.72,1.76 l 0.63,1.71 c 0.41,1.11 0.81,2.17 1.1,3.19 0.66,2 1.11,3.81 1.49,5.29 0.14,0.52 0.25,1 0.35,1.44 l -35.93,7.26 v 1.86 5.43 l 36.17,-3.52 0.55,19.37 c 0.15,4.48 0.21,9 0.31,13.45 l 0.26,13.46 0.15,6.73 0.17,6.72 0.24,6.73 c 0.1,2.24 0.15,4.47 0.29,6.72 l 0.38,14.75 0.12,1.75 h 13.6 l -0.19,-2.08 0.44,-14.78 c 0,-2.24 0,-4.49 -0.06,-6.73 l -0.08,-6.73 -0.18,-6.72 -0.19,-6.72 -0.41,-13.45 -0.4,-13.46 -0.51,-20.23 c 5.82,-0.63 11.65,-1.26 17.47,-1.81 4,-0.38 8.08,-0.75 12.11,-1.06 4.03,-0.31 8.08,-0.61 12.11,-0.87 8.07,-0.5 16.15,-0.85 24.2,-1 4,-0.05 8.06,-0.05 12.09,0 2.77,0.05 5.55,0.18 8.32,0.29 0,0.48 0.06,1 0.09,1.63 0.07,1 0.16,2.15 0.28,3.45 q 0.24,2.7 0.64,6.16 c 0.48,4 1.16,8.59 1.83,13.54 0.67,4.95 1.41,10.23 2.14,15.52 0.73,5.29 1.52,10.56 2.22,15.51 0.53,3.57 1,7 1.47,10.06 1.25,-0.67 2.5,-1.36 3.75,-2 q -0.16,-4 -0.35,-8.48 c -0.21,-5 -0.39,-10.33 -0.67,-15.65 -0.28,-5.32 -0.51,-10.65 -0.75,-15.64 -0.24,-4.99 -0.43,-9.66 -0.7,-13.64 -0.12,-1.75 -0.24,-3.34 -0.37,-4.81 -0.17,-1.87 -0.34,-3.51 -0.49,-4.81 v -0.31 q 3.36,0.22 6.7,0.56 6,0.58 11.95,1.46 c 4,0.59 7.91,1.26 11.83,2.09 2,0.4 3.93,0.8 5.88,1.3 l 2.92,0.69 2.89,0.78 1.23,0.34 c 0.43,1.17 0.3,0.7 0.09,0 l 1.59,0.44 0.89,0.27 0.79,0.54 v -0.31 l 1.21,0.37 c 1.92,0.56 3.81,1.22 5.71,1.87 3.79,1.29 7.53,2.75 11.22,4.32 1.86,0.76 3.65,1.65 5.48,2.47 1.83,0.82 3.6,1.79 5.4,2.68 1.61,0.84 3.18,1.73 4.77,2.6 l 2.94,-1.25 c -8.73,-5.87 -17.17,-12 -27.76,-16.29 -1.92,-0.78 -3.84,-1.56 -5.8,-2.25 l -2.92,-1.07 -2,-0.66 c -7.69,-26.7 -20.51,-42.5 -28.49,-49.6 l -0.19,-0.15 -4.26,-3 a 44.72,44.72 0 0 0 -4.26,-2.65 C 526.79,94.83 488.58,85.27 468.86,82.12 l -2.7,-0.43 c -0.9,-0.13 -1.81,-0.21 -2.72,-0.31 L 458,80.87 452.59,80.29 c -1.8,-0.22 -3.6,-0.28 -5.38,-0.42 L 436.56,79.25 426.16,79 c -3.41,-0.13 -6.76,0 -10,0 -3.24,0 -6.51,0 -9.62,0.15 -3.85,0.2 -7.54,0.36 -11.09,0.55 l 0.12,7.8 z m 150.36,7.56 c 17.34,7.66 27.87,24.12 37.16,47.89 L 581,162 c -2,-0.62 -4,-1.15 -6,-1.68 -4,-1.07 -8,-2 -12.12,-2.83 -4.12,-0.83 -8.14,-1.55 -12.25,-2.18 -4.11,-0.63 -8.2,-1.16 -12.32,-1.62 -4.12,-0.46 -8.24,-0.81 -12.37,-1.12 -4.13,-0.31 -8.26,-0.52 -12.39,-0.69 -8.26,-0.33 -16.51,-0.42 -24.76,-0.36 q -6.18,0 -12.35,0.2 -6.17,0.2 -12.33,0.4 c -8.22,0.32 -16.41,0.74 -24.59,1.19 -3.8,-24.3 -18.36,-46.68 -29.17,-56.09 50.94,-4.22 96.09,3.03 135.87,17.61 z"
       id="path674"
       style="fill:#78a63a;fill-opacity:1;stroke:none;stroke-opacity:1" />
    <path
       style="fill:#78a63a;fill-opacity:1;stroke:none;stroke-width:0.834982px;stroke-linecap:butt;stroke-linejoin:miter;stroke-opacity:1"
       d="M 55.303796,351.26064 626.7495,351.22964 55.704786,344.04276 Z"
       id="path2145" />
    <text
       xml:space="preserve"
       id="text531"
       style="font-style:normal;font-variant:normal;font-weight:bold;font-stretch:normal;font-size:40px;line-height:1.25;font-family:Ubuntu;-inkscape-font-specification:'Ubuntu, Bold';font-variant-ligatures:normal;font-variant-caps:normal;font-variant-numeric:normal;font-variant-east-asian:normal;white-space:pre;shape-inside:url(#rect533);fill:#000000;fill-opacity:1;stroke:#78a63a;stroke-width:1.16554;stroke-dasharray:none;stroke-opacity:1"
       transform="matrix(1.678751,0,0,1.678751,-7.9245181,-334.52227)"><tspan
         x="50.427734"
         y="397.56727"
         id="tspan617">Multitransports</tspan></text>
  </g>
  <metadata
     id="metadata4857">
    <rdf:RDF>
      <cc:Work
         rdf:about="">
        <dc:title>rapid_logo</dc:title>
      </cc:Work>
    </rdf:RDF>
  </metadata>
</svg>
