<?xml version="1.0" encoding="UTF-8" standalone="no"?>
<!-- Created with Inkscape (http://www.inkscape.org/) -->

<svg
   width="800mm"
   height="800mm"
   viewBox="0 0 800 800"
   version="1.1"
   id="svg5"
   xml:space="preserve"
   inkscape:export-filename="logo.svg"
   inkscape:export-xdpi="96"
   inkscape:export-ydpi="96"
   sodipodi:docname="logo-1.svg"
   inkscape:version="1.2.1 (9c6d41e410, 2022-07-14)"
   xmlns:inkscape="http://www.inkscape.org/namespaces/inkscape"
   xmlns:sodipodi="http://sodipodi.sourceforge.net/DTD/sodipodi-0.dtd"
   xmlns="http://www.w3.org/2000/svg"
   xmlns:svg="http://www.w3.org/2000/svg"><sodipodi:namedview
     id="namedview7"
     pagecolor="#ffffff"
     bordercolor="#666666"
     borderopacity="1.0"
     inkscape:showpageshadow="2"
     inkscape:pageopacity="0.0"
     inkscape:pagecheckerboard="0"
     inkscape:deskcolor="#d1d1d1"
     inkscape:document-units="mm"
     showgrid="false"
     showguides="false"
     inkscape:zoom="0.19364645"
     inkscape:cx="495.74882"
     inkscape:cy="1714.4647"
     inkscape:window-width="1920"
     inkscape:window-height="1017"
     inkscape:window-x="1920"
     inkscape:window-y="39"
     inkscape:window-maximized="1"
     inkscape:current-layer="layer1"><sodipodi:guide
       position="109.50158,754.15897"
       orientation="1,0"
       id="guide1864"
       inkscape:locked="false" /><sodipodi:guide
       position="1.1818102,769.93527"
       orientation="1,0"
       id="guide1866"
       inkscape:locked="false" /><inkscape:grid
       type="xygrid"
       id="grid1868"
       originx="0"
       originy="0" /></sodipodi:namedview><defs
     id="defs2"><rect
       x="45.124817"
       y="167.3873"
       width="401.62701"
       height="55.943256"
       id="rect595-4" /></defs><g
     inkscape:label="Layer 1"
     inkscape:groupmode="layer"
     id="layer1"
     transform="translate(-45.49653,-145.58897)"><g
       id="g653"
       transform="matrix(5.4850975,0,0,5.4850975,-103.92381,-363.65549)"><path
         style="fill:#78a63a;fill-opacity:1;stroke:none;stroke-width:0.193002;stroke-opacity:1"
         d="m 153.79957,167.56236 c -2.05477,-3.49019 -7.36995,-4.56564 -11.20624,-4.38528 -5.80287,-0.48673 -12.48103,3.2419 -16.1298,-1.29417 -3.1393,-3.90271 -6.36097,-5.71362 -0.95465,-5.69671 2.05361,0.006 8.37709,0.86129 4.31204,-1.84217 -3.30198,-2.82595 -11.37766,-2.54159 -12.01061,-2.7343 -0.86468,-0.10364 -6.02567,-0.81091 -3.25316,-1.84471 0.24981,0.0198 9.85702,0.10403 14.42012,1.79825 3.77301,1.70395 5.92779,5.44949 8.48758,8.43601 4.38145,1.1798 9.06806,1.19643 13.39071,2.63267 1.88613,0.91604 4.98505,4.77493 3.74235,5.86348 l -0.34808,-0.37785 z"
         id="path659"
         sodipodi:nodetypes="ccscccccccccc" /><path
         style="fill:#000000;stroke:none;stroke-width:0.748506;stroke-dasharray:none;stroke-opacity:1"
         d="m 108.04453,168.86422 c 1.67048,-10.15283 2.08532,-16.79027 1.54273,-18.70726 -0.54749,-3.17593 -4.88605,-5.00744 -1.45326,-4.47722 3.50849,0.6603 3.85751,1.96953 4.20298,6.536 0.0337,5.44441 -0.35108,11.35501 -0.99799,16.6244 -0.9582,0.0224 -1.14948,0.0747 -3.29446,0.0241 z"
         id="path657" /><path
         style="fill:#78a63a;fill-opacity:1;stroke-width:0.114491"
         d="m 95.998807,163.33318 c -16.832223,0.49025 -33.678558,1.13211 -50.50228,1.55761 18.512946,-0.92074 39.612289,-1.86791 58.126283,-2.78899 0.76328,-1.7242 0.70769,-3.17827 0.95997,-4.90508 -18.989559,0.98078 -39.888494,2.29675 -58.884182,3.24994 19.72959,-1.44835 39.521267,-2.72867 59.258922,-4.15051 2.07624,-0.3587 1.494,0.32752 1.42784,0.81049 -0.38326,1.94715 -0.46463,3.90091 -1.16665,5.84505 -2.83453,0.3047 -6.209201,0.22737 -9.219903,0.38149 z"
         id="path655-4" /><path
         style="fill:#000000;stroke-width:0.193002"
         d="m 46.917353,168.25342 c 18.537936,-0.70989 37.093022,-0.82004 55.630927,-1.53076 0.82607,-4.82469 1.39843,-9.69283 1.71382,-14.57757 -19.014282,0.83133 -37.963296,2.75619 -56.981884,3.50848 7.523234,-0.73313 61.073064,-5.97953 61.077554,-5.92583 -0.35508,4.89601 -1.51813,14.37006 -1.68718,19.32973 -19.936123,-0.26775 -41.941379,-0.27416 -59.753237,-0.80405 z"
         id="path655" /><path
         style="fill:#78a63a;fill-opacity:1;stroke:none;stroke-width:0.0605896;stroke-dasharray:none;stroke-opacity:1"
         d="m 125.14903,172.41442 c -25.14041,-0.0889 -47.477397,-0.0135 -72.616023,-0.31775 1.603174,-0.23501 6.985961,-0.17681 10.12788,-0.25481 23.413563,-0.128 46.825943,-0.56805 70.239503,-0.57985 -1.49842,0.45077 -4.32432,0.93133 -7.75136,1.15241 z"
         id="path443" /><g
         aria-label="Multitransports"
         transform="matrix(0.42368822,0,0,0.27179953,26.986392,128.41306)"
         id="text593-4"
         style="font-size:39.9172px;line-height:1.25;font-family:Impact;-inkscape-font-specification:'Impact, Normal';white-space:pre;shape-inside:url(#rect595-4);stroke:#78a63a;stroke-width:0.914639"><path
           d="m 72.080803,175.79148 v 31.55564 h -7.172621 v -21.30347 l -2.865151,21.30347 h -5.087104 l -3.021077,-20.8162 v 20.8162 h -7.172621 v -31.55564 h 10.622496 q 0.46778,2.84566 0.994032,6.70484 l 1.130468,8.03022 1.871118,-14.73506 z"
           id="path3184" /><path
           d="m 93.169869,181.4828 v 25.86432 h -8.010727 l 0.136436,-2.14399 q -0.818614,1.30588 -2.027045,1.96857 -1.18894,0.6432 -2.748206,0.6432 -1.773664,0 -2.943113,-0.62371 -1.16945,-0.62371 -1.734683,-1.65672 -0.545743,-1.03301 -0.682179,-2.14399 -0.136436,-1.13047 -0.136436,-4.4634 V 181.4828 h 7.874291 v 17.60021 q 0,3.02108 0.175418,3.58631 0.194908,0.56523 1.013522,0.56523 0.877087,0 1.033014,-0.58472 0.175417,-0.58472 0.175417,-3.76173 v -17.4053 z"
           id="path3186" /><path
           d="m 104.10422,175.79148 v 31.55564 h -8.108184 v -31.55564 z"
           id="path3188" /><path
           d="m 115.23348,178.03292 v 4.07359 h 2.1245 v 4.09307 h -2.1245 v 13.83848 q 0,2.5533 0.25338,2.84566 0.27287,0.29236 2.20246,0.29236 v 4.17104 h -3.177 q -2.68974,0 -3.83969,-0.2144 -1.14996,-0.23389 -2.02705,-1.03302 -0.87709,-0.81861 -1.09148,-1.85162 -0.2144,-1.05251 -0.2144,-4.91169 v -13.13681 h -1.69571 v -4.09307 h 1.69571 v -4.07359 z"
           id="path3190" /><path
           d="m 127.20084,175.79148 v 4.11256 h -8.10818 v -4.11256 z m 0,5.69132 v 25.86432 h -8.10818 V 181.4828 Z"
           id="path3192" /><path
           d="m 138.3301,178.03292 v 4.07359 h 2.1245 v 4.09307 h -2.1245 v 13.83848 q 0,2.5533 0.25338,2.84566 0.27287,0.29236 2.20246,0.29236 v 4.17104 h -3.177 q -2.68973,0 -3.83969,-0.2144 -1.14996,-0.23389 -2.02705,-1.03302 -0.87708,-0.81861 -1.09148,-1.85162 -0.2144,-1.05251 -0.2144,-4.91169 v -13.13681 h -1.6957 v -4.09307 h 1.6957 v -4.07359 z"
           id="path3194" /><path
           d="m 150.06357,181.4828 -0.31185,3.3914 q 1.71519,-3.64478 4.97016,-3.85918 v 9.10221 q -2.16348,0 -3.17701,0.58473 -1.01352,0.58472 -1.24741,1.63723 -0.23389,1.03301 -0.23389,4.79474 v 10.21319 h -7.87429 V 181.4828 Z"
           id="path3196" /><path
           d="m 163.51224,191.50108 h -7.38702 v -1.73468 q 0,-3.00159 0.68218,-4.61933 0.70167,-1.63722 2.78719,-2.88464 2.08551,-1.24741 5.41844,-1.24741 3.99562,0 6.02267,1.42283 2.02704,1.40334 2.43635,3.46937 0.40931,2.04653 0.40931,8.45901 v 12.98089 h -7.6599 v -2.29992 q -0.72116,1.38385 -1.87111,2.08552 -1.13047,0.68218 -2.70923,0.68218 -2.06602,0 -3.80071,-1.14996 -1.71519,-1.16945 -1.71519,-5.08711 v -2.12449 q 0,-2.90414 0.91607,-3.95664 0.91607,-1.05251 4.54136,-2.45584 3.87867,-1.52029 4.15154,-2.04654 0.27288,-0.52625 0.27288,-2.14399 0,-2.02705 -0.31186,-2.63126 -0.29236,-0.62371 -0.99403,-0.62371 -0.79912,0 -0.99403,0.52626 -0.19491,0.50676 -0.19491,2.67024 z m 2.49483,3.54733 q -1.89061,1.38385 -2.20247,2.31941 -0.29236,0.93556 -0.29236,2.68973 0,2.00756 0.25338,2.59228 0.27287,0.58472 1.05251,0.58472 0.74065,0 0.95505,-0.44828 0.23389,-0.46778 0.23389,-2.41687 z"
           id="path3198" /><path
           d="m 184.60131,181.4828 -0.13644,2.37788 q 0.8576,-1.42283 2.08552,-2.1245 1.24741,-0.72116 2.86515,-0.72116 2.02704,0 3.31344,0.95505 1.28639,0.95505 1.65672,2.41686 0.37032,1.44232 0.37032,4.83373 v 18.12646 h -7.87429 v -17.91207 q 0,-2.67024 -0.17542,-3.25496 -0.17541,-0.58473 -0.97454,-0.58473 -0.8381,0 -1.0525,0.68218 -0.2144,0.66269 -0.2144,3.58631 v 17.48327 h -7.87429 V 181.4828 Z"
           id="path3200" /><path
           d="m 213.54517,189.74691 h -6.97771 v -1.40334 q 0,-1.79316 -0.2144,-2.26094 -0.19491,-0.48727 -1.01353,-0.48727 -0.66268,0 -0.99403,0.44829 -0.33134,0.4288 -0.33134,1.30589 0,1.18894 0.15593,1.75417 0.17541,0.54574 0.99403,1.20843 0.8381,0.66269 3.41089,1.92959 3.43039,1.67621 4.50238,3.15752 1.072,1.4813 1.072,4.30747 0,3.15751 -0.81862,4.77525 -0.81861,1.59824 -2.7482,2.47533 -1.9101,0.8576 -4.61933,0.8576 -3.00159,0 -5.14558,-0.93556 -2.12449,-0.93556 -2.92362,-2.53381 -0.79912,-1.59825 -0.79912,-4.83372 v -1.24741 h 6.97771 v 1.63722 q 0,2.08552 0.25338,2.70923 0.27287,0.6237 1.05251,0.6237 0.8381,0 1.16945,-0.4093 0.33134,-0.4288 0.33134,-1.77367 0,-1.85163 -0.4288,-2.3194 -0.44829,-0.46778 -4.58034,-2.7677 -3.46937,-1.94908 -4.22951,-3.52784 -0.76014,-1.59825 -0.76014,-3.78122 0,-3.09904 0.81861,-4.56085 0.81862,-1.4813 2.7677,-2.28043 1.96857,-0.79912 4.56085,-0.79912 2.57279,0 4.36595,0.66269 1.81264,0.6432 2.76769,1.71519 0.97454,1.072 1.16945,1.98806 0.2144,0.91607 0.2144,2.86515 z"
           id="path3202" /><path
           d="m 224.26512,181.4828 -0.13643,2.28043 q 1.0525,-1.38385 2.31941,-2.06603 1.2669,-0.68218 2.76769,-0.68218 1.83214,0 3.15752,0.99403 1.34486,0.97454 1.67621,2.26094 0.33134,1.28639 0.33134,4.36594 v 10.89537 q 0,3.52784 -0.4288,5.02863 -0.40931,1.4813 -1.71519,2.37788 -1.28639,0.87709 -3.11853,0.87709 -1.46181,0 -2.70923,-0.68218 -1.24741,-0.68218 -2.28042,-2.02705 v 5.92521 H 216.2544 V 181.4828 Z m 2.24145,7.52346 q 0,-2.39737 -0.17542,-2.90414 -0.17542,-0.50676 -0.97454,-0.50676 -0.77963,0 -1.01352,0.58473 -0.2144,0.58472 -0.2144,2.82617 v 10.71995 q 0,2.3389 0.23389,2.92362 0.23389,0.58472 1.01352,0.58472 0.76014,0 0.93556,-0.52625 0.19491,-0.54574 0.19491,-2.61177 z"
           id="path3204" /><path
           d="m 254.78774,190.56552 v 6.33452 q 0,3.48885 -0.35083,5.12608 -0.35084,1.61774 -1.5008,3.04057 -1.14995,1.40334 -2.9626,2.08552 -1.79316,0.66269 -4.13205,0.66269 -2.61177,0 -4.42442,-0.56524 -1.81265,-0.58472 -2.82617,-1.73468 -0.99403,-1.16945 -1.42283,-2.80668 -0.4288,-1.65672 -0.4288,-4.95067 v -6.62687 q 0,-3.60581 0.77964,-5.63285 0.77963,-2.02705 2.80667,-3.25497 2.02705,-1.22792 5.18456,-1.22792 2.65075,0 4.54136,0.79912 1.9101,0.77964 2.94312,2.04654 1.03301,1.2669 1.40334,2.61177 0.38981,1.34487 0.38981,4.09307 z m -7.87429,-1.94908 q 0,-1.98806 -0.2144,-2.49482 -0.2144,-0.52626 -0.91607,-0.52626 -0.70167,0 -0.93556,0.52626 -0.23389,0.50676 -0.23389,2.49482 v 11.675 q 0,1.83214 0.23389,2.39737 0.23389,0.54574 0.91607,0.54574 0.70167,0 0.91607,-0.50676 0.23389,-0.50676 0.23389,-2.18297 z"
           id="path3206" /><path
           d="m 265.25431,181.4828 -0.31185,3.3914 q 1.71519,-3.64478 4.97016,-3.85918 v 9.10221 q -2.16348,0 -3.177,0.58473 -1.01353,0.58472 -1.24742,1.63723 -0.23389,1.03301 -0.23389,4.79474 v 10.21319 h -7.87429 V 181.4828 Z"
           id="path3208" /><path
           d="m 280.69105,178.03292 v 4.07359 h 2.1245 v 4.09307 h -2.1245 v 13.83848 q 0,2.5533 0.25338,2.84566 0.27287,0.29236 2.20246,0.29236 v 4.17104 h -3.177 q -2.68974,0 -3.83969,-0.2144 -1.14996,-0.23389 -2.02705,-1.03302 -0.87709,-0.81861 -1.09149,-1.85162 -0.21439,-1.05251 -0.21439,-4.91169 v -13.13681 h -1.69571 v -4.09307 h 1.69571 v -4.07359 z"
           id="path3210" /><path
           d="m 300.63015,189.74691 h -6.97772 v -1.40334 q 0,-1.79316 -0.2144,-2.26094 -0.1949,-0.48727 -1.01352,-0.48727 -0.66269,0 -0.99403,0.44829 -0.33134,0.4288 -0.33134,1.30589 0,1.18894 0.15592,1.75417 0.17542,0.54574 0.99403,1.20843 0.83811,0.66269 3.4109,1.92959 3.43038,1.67621 4.50238,3.15752 1.07199,1.4813 1.07199,4.30747 0,3.15751 -0.81861,4.77525 -0.81862,1.59824 -2.74821,2.47533 -1.9101,0.8576 -4.61932,0.8576 -3.00159,0 -5.14558,-0.93556 -2.1245,-0.93556 -2.92362,-2.53381 -0.79913,-1.59825 -0.79913,-4.83372 v -1.24741 h 6.97772 v 1.63722 q 0,2.08552 0.25338,2.70923 0.27287,0.6237 1.0525,0.6237 0.83811,0 1.16945,-0.4093 0.33135,-0.4288 0.33135,-1.77367 0,-1.85163 -0.4288,-2.3194 -0.44829,-0.46778 -4.58034,-2.7677 -3.46937,-1.94908 -4.22951,-3.52784 -0.76014,-1.59825 -0.76014,-3.78122 0,-3.09904 0.81861,-4.56085 0.81861,-1.4813 2.7677,-2.28043 1.96857,-0.79912 4.56085,-0.79912 2.57279,0 4.36594,0.66269 1.81265,0.6432 2.7677,1.71519 0.97454,1.072 1.16945,1.98806 0.2144,0.91607 0.2144,2.86515 z"
           id="path3212" /></g><path
         id="path1775"
         style="fill:#000000;fill-opacity:1;stroke:none;stroke-width:0.693097"
         d="m 141.83614,166.34433 a 7.3637648,4.2631922 0 0 0 -7.3272,3.86178 h 2.15646 a 5.2216716,3.0230446 0 0 1 5.17074,-2.62154 5.2216716,3.0230446 0 0 1 5.17126,2.62154 h 2.15594 a 7.3637648,4.2631922 0 0 0 -7.3272,-3.86178 z" /></g></g></svg>
