<?xml version="1.0" encoding="UTF-8" standalone="no"?>
<!-- Created with Inkscape (http://www.inkscape.org/) -->

<svg
   version="1.1"
   width="309.13303"
   height="175"
   id="svg2"
   sodipodi:docname="logo-brand.svg"
   inkscape:version="1.2.1 (9c6d41e410, 2022-07-14)"
   inkscape:export-filename="../img/logo-brand.svg"
   inkscape:export-xdpi="48"
   inkscape:export-ydpi="48"
   xmlns:inkscape="http://www.inkscape.org/namespaces/inkscape"
   xmlns:sodipodi="http://sodipodi.sourceforge.net/DTD/sodipodi-0.dtd"
   xmlns="http://www.w3.org/2000/svg"
   xmlns:svg="http://www.w3.org/2000/svg"
   xmlns:rdf="http://www.w3.org/1999/02/22-rdf-syntax-ns#"
   xmlns:cc="http://creativecommons.org/ns#"
   xmlns:dc="http://purl.org/dc/elements/1.1/">
  <sodipodi:namedview
     id="namedview7"
     pagecolor="#ffffff"
     bordercolor="#666666"
     borderopacity="1.0"
     inkscape:showpageshadow="2"
     inkscape:pageopacity="0.0"
     inkscape:pagecheckerboard="0"
     inkscape:deskcolor="#d1d1d1"
     showgrid="false"
     showguides="true"
     inkscape:zoom="3.5881182"
     inkscape:cx="178.36648"
     inkscape:cy="132.38137"
     inkscape:window-width="1920"
     inkscape:window-height="1017"
     inkscape:window-x="1920"
     inkscape:window-y="39"
     inkscape:window-maximized="1"
     inkscape:current-layer="svg2">
    <sodipodi:guide
       position="-95.403058,-422.35466"
       orientation="0,-1"
       id="guide3407"
       inkscape:locked="false" />
    <sodipodi:guide
       position="266.82129,62.052492"
       orientation="0,-1"
       id="guide1441"
       inkscape:locked="false" />
  </sodipodi:namedview>
  <defs
     id="defs4">
    <rect
       x="50.426846"
       y="360.26733"
       width="83.515209"
       height="54.216449"
       id="rect533" />
    <rect
       x="50.426846"
       y="360.26733"
       width="40.045765"
       height="45.136978"
       id="rect533-8" />
  </defs>
  <metadata
     id="metadata7">
    <rdf:RDF>
      <cc:Work
         rdf:about="">
        <dc:format>image/svg+xml</dc:format>
        <dc:type
           rdf:resource="http://purl.org/dc/dcmitype/StillImage" />
      </cc:Work>
    </rdf:RDF>
  </metadata>
  <text
     xml:space="preserve"
     id="text531"
     style="font-style:normal;font-variant:normal;font-weight:bold;font-stretch:normal;font-size:45.8603px;line-height:1.25;font-family:Ubuntu;-inkscape-font-specification:'Ubuntu, Bold';font-variant-ligatures:normal;font-variant-caps:normal;font-variant-numeric:normal;font-variant-east-asian:normal;white-space:pre;shape-inside:url(#rect533);shape-padding:0;display:inline;fill:#__DARK__;fill-opacity:1;stroke:#__PRIMARY__;stroke-width:1.16554;stroke-dasharray:none;stroke-opacity:1"
     transform="matrix(1.6743151,0,0,1.6743151,105.34902,-560.69661)"
     inkscape:export-filename="../img/logo.svg"
     inkscape:export-xdpi="48"
     inkscape:export-ydpi="48"><tspan
       x="50.427734"
       y="403.03195"
       id="tspan2329">MT</tspan></text>
  <path
     style="fill:#ffffff;fill-opacity:1;stroke:#fcfcfc;stroke-width:0.250441px;stroke-linecap:butt;stroke-linejoin:miter;stroke-opacity:1"
     d="m 103.42345,98.158703 37.60292,0.55473 -0.41476,-18.3977 -37.78301,-20.49391 z"
     id="path2677-3"
     inkscape:export-filename="logo-brand.svg"
     inkscape:export-xdpi="96"
     inkscape:export-ydpi="96" />
  <path
     style="fill:#__DARK__;stroke-width:0.246459;fill-opacity:1"
     d="m 94.644053,60.286273 c -0.0847,-0.42359 -0.15404,-1.69585 -0.15404,-2.82724 0,-1.63418 0.12013,-2.32451 0.5843,-3.358 0.62413,-1.38963 1.6474,-2.49339 2.57034,-2.77252 0.55475,-0.16777 0.56525,-0.13814 0.49292,1.38945 -0.07,1.47921 -0.10602,1.56088 -0.68763,1.56088 -0.48475,0 -0.64482,-0.15539 -0.76163,-0.73937 l -0.1479,-0.73938 -0.3067,0.73938 c -0.97823,2.35833 -1.12755,3.05168 -1.12755,5.23569 0,2.31196 -0.18256,2.90891 -0.46211,1.51111 z"
     id="path3502-6" />
  <path
     style="fill:#__DARK__;stroke-width:0.246459;fill-opacity:1"
     d="m 86.647558,72.372813 c -0.306044,-0.49005 -0.34923,-0.49557 -0.785922,-0.10037 -0.892526,0.80772 -1.038267,0.24098 -0.205194,-0.79793 0.453012,-0.56495 0.8881,-1.0329 0.966857,-1.03989 0.378477,-0.0336 0.763877,1.20938 0.562391,1.81385 -0.212677,0.63802 -0.21674,0.63897 -0.538132,0.12434 z"
     id="path3500-7" />
  <path
     style="fill:#__DARK__;stroke-width:0.246459;fill-opacity:1"
     d="m 81.843284,74.576983 c -0.381418,-0.55101 -0.658681,-1.03028 -0.616147,-1.06504 0.04254,-0.0348 0.382319,-0.13636 0.755089,-0.22579 0.614873,-0.14751 0.678074,-0.0993 0.681125,0.51987 0.0022,0.37535 0.07024,0.93199 0.151976,1.23698 0.228082,0.8511 -0.203596,0.64414 -0.972043,-0.46602 z"
     id="path3498-5" />
  <path
     style="fill:#__DARK__;stroke-width:0.246459;fill-opacity:1"
     d="m 43.04172,81.328923 c -3.404027,-0.12143 -2.808245,-0.55575 0.762368,-0.55575 h 3.042105 l 1.071516,-3.26557 c 0.635579,-1.93704 1.050142,-3.63893 1.018986,-4.18326 -0.04771,-0.83352 0.04325,-0.97814 0.991826,-1.57694 2.237075,-1.41221 6.404734,-2.52813 11.807966,-3.16168 l 1.381033,-0.16194 0.254105,-3.08012 c 0.13976,-1.69408 0.324145,-3.15017 0.40974,-3.23577 0.143401,-0.1434 5.733696,-0.76076 21.7129,-2.39787 3.388808,-0.34719 6.688278,-0.69576 7.332148,-0.7746 l 1.17068,-0.14334 0.005,0.82412 c 0.003,0.45326 0.1669,3.65223 0.36434,7.10882 0.19745,3.45658 0.46135,7.83663 0.32961,7.75753 l -1.44263,-0.86615 v 0 c 0,0 -2.80113,-3.38372 -8.738419,-4.03462 -1.758356,-0.19277 -3.22939,-0.44762 -3.268961,-0.56633 -0.611444,-1.83433 -2.078495,-2.87263 -4.443903,-3.14516 -1.212412,-0.13969 -11.345118,0.47659 -11.572374,0.70384 -0.04418,0.0442 -0.01039,0.26257 0.07506,0.4853 0.138143,0.35999 0.808432,0.40497 6.035156,0.40497 h 5.879761 l 0.618506,0.91021 c 0.34018,0.50061 0.575522,0.95319 0.522993,1.00571 -0.05253,0.0525 -4.014499,0.24653 -8.804372,0.43112 -13.357806,0.51476 -15.156825,0.72581 -18.259151,2.14209 -1.705098,0.77842 -1.840261,0.90417 -1.421701,1.32273 0.15822,0.15823 -0.0996,1.5508 -0.745373,4.02587 -0.542998,2.08119 -1.046572,3.87993 -1.119045,3.9972 -0.07248,0.11727 -0.707499,0.1902 -1.411146,0.16207 -0.703648,-0.0281 -2.305249,-0.0877 -3.559112,-0.13248 z"
     id="path3496-3"
     sodipodi:nodetypes="sscsssscsssscsssccsssssscssssssssss" />
  <path
     style="fill:#__DARK__;stroke-width:0.246459;fill-opacity:1"
     d="m 86.178428,81.598193 c -0.270985,-0.38598 -0.979402,-1.58904 -1.574264,-2.67346 -0.990668,-1.80595 -1.083178,-2.12405 -1.100683,-3.78461 l -0.01909,-1.81294 1.12818,0.13677 c 0.620494,0.0752 1.738163,0.20718 2.4837,0.29323 l 1.355522,0.15646 -0.0866,3.9843 c -0.0476,2.19136 -0.111153,4.01087 -0.141195,4.04334 -0.03006,0.0325 -0.391738,0.12648 -0.80376,0.20888 -0.630576,0.12611 -0.827092,0.0388 -1.241815,-0.55197 z"
     id="path3494-5" />
  <path
     style="fill:#__DARK__;stroke-width:0.246459;fill-opacity:1"
     d="m 83.502171,82.164353 c -0.07049,-0.18372 -0.09474,-1.04324 -0.05388,-1.91005 l 0.0743,-1.57603 0.829881,1.72522 c 0.456435,0.94886 0.878879,1.80839 0.938768,1.91005 0.05988,0.10167 -0.289316,0.18485 -0.776006,0.18485 -0.517228,0 -0.938142,-0.13879 -1.013066,-0.33404 z"
     id="path3492-6" />
  <path
     style="fill:#__DARK__;stroke-width:0.246459;fill-opacity:1"
     d="m 57.76764,82.260383 c -1.4233,-0.0871 -2.296687,-0.18014 -1.940866,-0.20667 0.355824,-0.0266 0.965812,-0.11177 1.355524,-0.18943 l 0.708573,-0.14118 -0.07698,-2.69226 c -0.08834,-3.08972 0.184709,-2.80819 -3.04603,-3.14068 -1.039889,-0.10703 -2.104828,-0.11538 -2.36654,-0.0186 -0.615046,0.22753 -0.833212,1.74347 -0.630047,4.37803 0.141941,1.84063 0.121419,1.96332 -0.314708,1.88131 -0.256605,-0.0482 -0.776569,-0.0962 -1.155482,-0.1066 -0.637276,-0.0174 -0.679082,-0.0789 -0.557622,-0.81985 0.07222,-0.44054 0.309157,-1.91006 0.526519,-3.26558 0.435674,-2.71692 1.048349,-4.38866 1.744305,-4.7595 0.932796,-0.49705 5.136595,-0.9321 14.625869,-1.51364 8.277906,-0.5073 11.804596,-0.58594 12.183273,-0.27167 0.297927,0.24726 0.347645,0.99015 0.278586,4.16227 -0.04624,2.12371 -0.211673,4.33294 -0.367628,4.9094 -0.519862,1.92156 -0.441425,1.90639 -9.987963,1.93122 -4.615033,0.012 -9.555487,-0.0495 -10.978787,-0.13661 z m 17.540769,-1.85689 h 2.63001 l 0.08104,-1.20141 0.08104,-1.2014 -2.178202,0.16444 c -2.08854,0.15768 -4.584848,0.53966 -4.776001,0.73081 -0.05002,0.05 -0.158695,0.50841 -0.241493,1.01863 l -0.150541,0.92767 0.962069,-0.21937 c 0.529139,-0.12065 2.145576,-0.21937 3.592078,-0.21937 z"
     id="path3490-2" />
  <path
     style="fill:#__DARK__;stroke-width:0.246459;fill-opacity:1"
     d="m 81.167235,82.945313 c -0.0077,-0.17803 0.0072,-1.59912 0.033,-3.15797 0.08138,-4.9075 0.03184,-4.75882 1.065308,-3.19715 0.627173,0.94772 0.653756,1.11784 0.587282,3.7585 l -0.06962,2.76584 -0.800989,0.0772 c -0.531431,0.0512 -0.805701,-0.0317 -0.814987,-0.24645 z"
     id="path3488-9" />
  <path
     style="fill:#__PRIMARY__;fill-opacity:1;stroke-width:0.246459"
     d="m 73.035218,86.113143 c -0.0607,-0.0536 -3.936634,-0.1744 -8.613189,-0.26843 -10.292924,-0.20697 -10.164746,-0.20031 -10.276102,-0.53361 -0.0846,-0.25323 11.427215,-0.59459 20.051496,-0.59459 h 3.040466 v 0.61615 c 0,0.59785 -0.05063,0.61615 -1.705054,0.61615 -0.937777,0 -1.858548,0.0589 -2.046161,0.13089 -0.187604,0.072 -0.390764,0.087 -0.451456,0.0334 z"
     id="path3486-1" />
  <path
     style="fill:#__PRIMARY__;fill-opacity:1;stroke-width:0.246459"
     d="m 80.752215,99.442443 c -0.490997,-0.52876 -0.521505,-0.89431 -0.655985,-7.86153 -0.127561,-6.60845 -0.102626,-7.32171 0.260797,-7.46117 0.221008,-0.0848 0.428973,-0.12386 0.462137,-0.0868 0.03317,0.0371 0.193559,3.2837 0.356442,7.21472 0.169482,4.09046 0.405033,7.27907 0.550748,7.45538 0.178359,0.2158 1.157943,0.30808 3.270773,0.30808 3.917076,0 5.408046,0.1927 5.028586,0.64993 -0.21557,0.25974 -1.24012,0.3359 -4.518663,0.3359 -4.080048,0 -4.259308,-0.0209 -4.754835,-0.55453 z"
     id="path3484-2" />
  <path
     style="fill:#__DARK__;stroke-width:0.246459;fill-opacity:1"
     d="m 79.469555,102.05962 c -1.199513,-1.19804 -2.374961,-2.098507 -3.39448,-2.600417 -1.52856,-0.75251 -1.612135,-0.765 -4.203889,-0.62827 -1.454376,0.0767 -2.754973,0.17638 -2.89022,0.22146 -0.135249,0.0451 -0.301355,-0.0145 -0.369134,-0.13252 -0.06778,-0.11797 0.375848,-0.41676 0.985836,-0.66399 0.609983,-0.24722 0.91596,-0.4557 0.679952,-0.46327 -0.236018,-0.008 -3.396852,0.49422 -7.02408,1.1151 -7.811154,1.337057 -8.614177,1.455277 -8.415463,1.238987 0.21639,-0.235527 5.430716,-1.218037 11.309167,-2.130927 2.77882,-0.43154 5.191038,-0.82427 5.36048,-0.87273 0.169441,-0.0485 0.308069,-0.45758 0.308069,-0.90916 0,-1.00699 0.372606,-1.41255 1.297791,-1.41255 1.449132,0 2.265721,0.96448 1.899056,2.24297 -0.174185,0.60735 -0.08508,0.69393 1.506294,1.4638 0.93029,0.45004 2.06514,1.21418 2.5219,1.698097 0.804,0.8518 2.493381,3.44687 2.339478,3.5937 -0.0417,0.0398 -0.901559,-0.75233 -1.910757,-1.76028 z"
     id="path3482-7" />
  <path
     style="fill:#__PRIMARY__;fill-opacity:1;stroke-width:0.246459"
     d="m 84.820127,114.96934 c -0.254713,-0.19683 -0.499617,-1.02 -0.678256,-2.27973 -0.153779,-1.08443 -0.338079,-2.17304 -0.409563,-2.41915 -0.112008,-0.38566 8.89e-4,-0.43674 0.815995,-0.36969 l 0.945962,0.0778 0.06995,2.64942 c 0.03846,1.4572 -0.02354,2.64944 -0.137739,2.64944 -0.11423,0 -0.387088,-0.13864 -0.60635,-0.30807 z"
     id="path3480-0" />
  <path
     style="fill:#__PRIMARY__;fill-opacity:1;stroke-width:0.246459"
     d="m 43.349793,110.80837 c -2.168837,-0.0858 -6.466465,-0.23855 -9.550282,-0.33943 l -5.606938,-0.18341 V 99.500923 88.716313 l 7.332148,-0.20813 c 4.032688,-0.11447 8.330316,-0.18202 9.550287,-0.1501 1.219971,0.0319 2.55085,-0.0358 2.957503,-0.15058 0.426012,-0.1202 1.026629,-0.11056 1.417141,0.0227 l 0.677762,0.23137 v 11.3195 11.319497 l -1.41714,-0.0682 c -0.779426,-0.0375 -3.191643,-0.13833 -5.360481,-0.22414 z"
     id="path3478-9" />
  <path
     style="fill:#__DARK__;stroke-width:0.246459;fill-opacity:1"
     d="m 76.001589,121.97813 c -0.772328,-0.6254 -0.483595,-1.56676 0.45084,-1.46987 0.571153,0.0593 0.685551,-0.0499 0.884409,-0.84382 0.255824,-1.02134 -0.07773,-1.67597 -0.853955,-1.67597 -0.646055,0 -0.758673,-0.33338 -0.322825,-0.95563 0.41939,-0.59877 1.086814,-0.53443 1.906477,0.18379 0.391533,0.34307 0.442166,0.66564 0.344657,2.19576 -0.09179,1.44016 -0.227123,1.91372 -0.686765,2.40298 -0.682669,0.72668 -0.990511,0.75575 -1.722838,0.16276 z"
     id="path3476-3" />
  <path
     style="fill:none;stroke:#000000;stroke-width:0.250441px;stroke-linecap:butt;stroke-linejoin:miter;stroke-opacity:1"
     d="m 102.70008,66.143383 37.89876,16.23178 -37.89876,-15.19124 z"
     id="path3597-6" />
  <path
     id="path3012-0"
     style="fill:#__DARK__;stroke-width:0.984103;fill-opacity:1"
     d="m 114.43558,788.82199 c -8.64932,-1.26316 -13.18896,-2.80784 -17.56218,-5.97578 -6.410416,-4.64368 -5.520118,-8.78897 3.0271,-14.09441 3.65263,-2.26727 14.05862,-5.42929 39.13765,-11.89259 11.63702,-2.99905 22.38442,-5.8003 23.88311,-6.22499 l 2.72489,-0.77216 -6.20772,-6.15254 c -6.83481,-6.77405 -6.30179,-6.56364 -45.4949,-17.9595 -7.03634,-2.04589 -13.53686,-4.02043 -14.445596,-4.38787 -1.691831,-0.68406 -1.898847,-1.97635 -3.274229,-20.43923 l -0.568152,-7.6268 11.112197,-0.005 c 6.1117,-0.003 15.42994,-0.29102 20.70719,-0.64049 10.06874,-0.66674 10.92178,-1.19303 8.42191,-5.19596 -1.14442,-1.8325 1.08009,-14.5449 6.78453,-38.77169 1.83495,-7.79303 1.01652,-7.28035 16.7839,-10.51402 l 11.07817,-2.27198 -0.59377,-12.38668 c -0.32657,-6.81284 -0.9354,-18.36527 -1.35297,-25.67223 -0.41755,-7.30697 -0.47627,-13.60475 -0.13048,-13.99509 0.53587,-0.6049 20.72177,-6.7606 39.4844,-12.04079 4.49277,-1.26436 5.75948,-2.12755 7.28843,-4.96663 1.69692,-3.151 2.18508,-3.41609 5.87933,-3.19268 2.39974,0.14513 4.62564,0.94845 5.50491,1.98672 1.69843,2.00554 1.82231,2.03405 20.17411,4.64397 7.57759,1.07766 16.81211,2.45405 20.52114,3.05865 l 6.74372,1.09928 2.37075,5.36071 c 1.30391,2.94838 2.34794,6.55418 2.32006,8.01289 -0.27219,14.24132 -0.32662,19.43422 -0.27019,25.77861 0.0361,4.05942 0.1179,12.83883 0.18176,19.5098 l 0.1161,12.12903 23.95203,-0.70445 c 27.03291,-0.79506 24.60503,-1.5284 25.76847,7.7834 0.38254,3.06176 0.88792,5.56685 1.12306,5.56685 0.23514,0 1.77523,-0.69692 3.42242,-1.54872 1.64719,-0.85179 3.16566,-1.37795 3.37438,-1.16923 0.20873,0.20872 -1.83873,8.06627 -4.54989,17.4612 -2.71116,9.39495 -4.58376,17.39553 -4.16133,17.77907 0.42243,0.38354 2.85469,0.91643 5.40501,1.18419 l 4.63695,0.48686 1.65792,-5.04143 c 4.68864,-14.25727 14.76778,-30.75215 21.02761,-34.41244 7.58389,-4.43451 19.53309,-0.56962 26.91314,8.70486 7.11473,8.94105 9.35502,15.18258 10.22758,28.49437 l 0.77115,11.76461 4.14348,1.02873 c 2.27893,0.56579 4.55407,1.47155 5.05586,2.01281 0.5018,0.54126 2.38816,5.53327 4.1919,11.09335 1.80375,5.56008 3.73566,9.94011 4.29312,9.73338 0.55748,-0.20672 8.09913,-2.71301 16.75923,-5.56951 8.66011,-2.85652 16.03847,-5.46515 16.39636,-5.79698 0.35789,-0.33182 -0.026,-2.27501 -0.8531,-4.3182 l -1.50382,-3.71489 -6.52766,0.27053 -6.52767,0.27053 -0.31885,-7.52701 c -0.27735,-6.54732 0.0749,-8.51034 2.70628,-15.08193 1.66382,-4.1552 3.02513,-7.71574 3.02513,-7.91231 0,-0.58193 -7.82613,-1.44244 -15.7145,-1.72786 -7.30695,-0.26438 -7.35475,-0.2838 -8.2328,-3.34541 -0.88016,-3.06894 -0.90956,-3.08068 -8.58222,-3.42913 -6.93694,-0.31502 -7.99717,-0.63527 -10.71116,-3.23544 -1.65669,-1.58721 -3.01215,-3.24582 -3.01215,-3.68581 0,-0.43999 4.36043,-0.79999 9.68985,-0.79999 5.32941,0 13.74349,-0.28773 18.69795,-0.63941 l 9.00811,-0.63942 v -3.78904 c 0,-3.53975 0.19102,-3.78905 2.9032,-3.78905 2.83706,0 2.90991,-0.12652 3.19833,-5.55416 l 0.29514,-5.55416 10.1938,-0.45385 c 14.63799,0.97439 5.3742,5.85794 -1.28226,12.80359 l -0.3849,15.94435 -0.38491,15.94433 10.5916,0.91561 10.5916,0.91561 -0.63435,-19.69489 c -0.3489,-10.83219 -0.63644,-22.24126 -0.639,-25.35349 -1.96614,-17.59563 -17.73486,-3.0013 -21.40889,-3.07658 l -5.65859,-0.12175 -0.22148,-14.76154 c -0.12183,-8.11885 -0.26676,-17.64005 -0.3221,-21.15821 -0.0553,-3.51817 -6.5e-4,-9.83681 0.12152,-14.04143 0.12216,-4.20462 -0.0463,-7.9132 -0.37443,-8.2413 -0.3281,-0.3281 -1.97768,0.5656 -3.66573,1.98601 -3.25312,2.73731 -2.93637,2.73461 -13.49766,0.11487 -2.84159,-0.70486 -5.16654,-1.11096 -5.16654,-0.90243 0,0.20853 1.1977,3.2956 2.66156,6.86016 2.24405,5.46436 3.10355,6.56942 5.47922,7.04456 5.12766,1.02553 7.69455,8.19499 4.28352,11.96415 -0.87954,0.97188 -1.59917,2.13798 -1.59917,2.59135 0,0.45335 -1.88209,3.62836 -4.18243,7.05557 -4.39686,6.55075 -8.45077,9.011 -12.65125,7.67781 -2.0234,-0.6422 -2.07717,-1.03231 -1.41999,-10.30196 0.46647,-6.57951 0.34321,-9.84451 -0.38872,-10.29687 -0.58948,-0.36432 -0.82356,-1.064 -0.5202,-1.55485 0.30336,-0.49085 -0.003,-3.57887 -0.68148,-6.86227 -1.21113,-5.86373 -1.34468,-6.04033 -7.51542,-9.9375 -3.45531,-2.18223 -6.05501,-4.19506 -5.77711,-4.47297 0.2779,-0.2779 2.20104,-0.92216 4.27364,-1.43169 2.07258,-0.50953 4.65403,-1.15944 5.73655,-1.44424 5.91948,-1.55735 13.3577,-1.57842 17.18094,-0.0486 5.97658,2.39135 8.87805,2.01058 13.32624,-1.74886 l 3.93642,-3.3269 0.58937,-12.65013 c 0.91865,-19.71724 -1.45381,-24.95147 -11.30943,-24.95147 -2.97082,0 -5.69338,-0.47231 -6.05016,-1.04957 -0.95853,-1.55096 -0.23979,-1.90399 5.1841,-2.54638 6.63398,-0.78569 13.04663,4.54231 13.04663,4.54231 l 5.76027,3.45854 c 12.91083,7.42415 8.40752,-1.6364 7.55781,-36.51135 l -0.65188,-27.67799 3.26972,-0.55903 c 1.79835,-0.30746 7.12616,-0.85645 11.83959,-1.21999 l 8.56986,-0.66097 10.12809,5.69657 c 5.57045,3.13312 13.00659,7.31487 16.52476,9.2928 3.51817,1.97792 15.69644,8.83951 27.06283,15.24797 11.36639,6.40846 24.43035,13.70319 29.03103,16.2105 4.60068,2.50731 16.11468,8.99078 25.58667,14.40772 9.47199,5.41694 20.32173,11.58441 24.11052,13.70549 3.7888,2.12108 9.10295,5.09497 11.80924,6.60864 2.70628,1.51368 6.73428,3.68228 8.9511,4.81912 l 4.0306,2.06695 0.64389,19.22593 c 1.04383,31.16734 0.81799,58.0515 -0.49132,58.48793 -1.34535,0.44845 -1.49372,6.47722 -0.39574,16.07905 0.95949,8.39062 -1.66518,22.92063 -4.29013,23.74988 -0.85783,0.271 -3.77391,1.39898 -6.4802,2.50663 -3.84527,1.57382 -10.83436,2.51769 -31.98334,4.31932 -14.88455,1.26796 -28.12313,2.42296 -29.41905,2.56666 -2.01881,0.22385 -2.79392,1.52006 -5.41257,9.05142 l -3.05634,8.79015 -5.41256,1.6731 c -2.97691,0.9202 -7.18395,2.15555 -9.34898,2.74524 -2.16503,0.58967 -5.65609,2.49407 -7.75792,4.23198 -2.39284,1.97856 -5.15213,3.27542 -7.38077,3.46896 -1.9576,0.17 -7.10203,0.74079 -11.43209,1.26843 -4.33005,0.52762 -14.69549,1.65872 -23.03429,2.51354 -13.28799,1.36218 -16.69293,2.10396 -27.55488,6.00287 -6.81638,2.44676 -15.93618,5.71641 -20.26623,7.26591 -7.23519,2.58909 -35.29177,11.76352 -40.68408,13.30359 -1.40383,0.40095 -2.88919,2.06289 -3.80162,4.25361 -0.82365,1.97756 -3.55101,6.14097 -6.0608,9.25202 -4.87224,6.03947 -6.93254,7.08225 -19.81685,10.02985 -13.64538,3.12172 -48.94402,8.01315 -71.34745,9.8868 -3.7888,0.31687 -11.76003,1.00708 -17.71386,1.5338 -5.95382,0.52672 -13.70363,1.19439 -17.22179,1.48371 -3.51817,0.28931 -8.6109,0.74223 -11.31719,1.00648 -28.73478,2.80573 -44.87789,3.53413 -85.61694,3.86312 -24.8978,0.20106 -47.70439,0.01 -50.6813,-0.42488 z m 265.74421,-43.31937 c 4.79794,-5.60559 6.36119,-12.03702 6.35072,-26.12778 -0.008,-11.09592 -0.31382,-13.55053 -2.30303,-18.50028 -2.85503,-7.10413 -5.66445,-10.36431 -9.57713,-11.11375 -2.49985,-0.47882 -3.5687,-0.045 -6.08293,2.46929 -5.36057,5.36057 -7.45536,12.6285 -7.54012,26.16064 1.01301,11.30077 -0.10539,20.91848 8.10964,28.74081 3.33213,3.08813 7.53623,2.46797 11.04285,-1.62893 z m -27.951,-15.7947 c -1.72141,-13.25687 -1.37462,-27.78535 0.78726,-32.98181 4.05408,-9.74465 12.40385,-17.22739 19.17716,-17.18582 3.7574,0.023 11.19813,2.98674 14.10634,5.61864 1.26122,1.14139 2.06532,1.2934 2.82473,0.534 1.52983,-1.52984 -3.03109,-7.86941 -8.12077,-11.28768 -10.2652,-6.89418 -25.58205,-0.40384 -32.52154,13.78061 -4.20031,8.58551 -3.2944,32.23195 1.7697,46.19362 1.28524,3.54338 2.37176,6.70963 2.41449,7.03612 0.0427,0.32648 0.2637,0.15076 0.49105,-0.39049 0.22733,-0.54126 -0.19045,-5.63399 -0.92842,-11.31719 z m -89.30877,3.28892 c 29.80019,-1.28985 12.31975,-2.37315 -37.48014,-2.32271 -56.786,0.0575 -58.9734,-0.11069 -89.7387,-6.89935 -10.08719,-2.22585 -19.10924,-3.89142 -20.049,-3.70127 -2.16793,0.43863 26.88129,8.06794 38.63957,10.14805 4.87131,0.86176 12.84254,1.82096 17.71385,2.13155 4.87131,0.3106 9.04144,0.72819 9.26697,0.92797 0.70405,0.62371 65.91564,0.39668 81.64745,-0.28424 z m 31.107,-20.90032 0.69322,-9.68539 -20.02501,-0.14737 c -11.01374,-0.0811 -22.46065,-0.34957 -25.43756,-0.59671 -2.97691,-0.24713 -18.47653,-0.70678 -34.4436,-1.02143 -15.96707,-0.31464 -45.41635,-0.97933 -65.44284,-1.47708 -20.02649,-0.49775 -38.18319,-0.87019 -40.34821,-0.82761 -3.74292,0.0736 -3.65407,0.1391 1.80761,1.33292 7.00557,1.53129 22.89519,2.14049 92.17421,3.53389 29.49848,0.5933 58.50491,1.37369 64.45873,1.73419 l 10.82513,0.65547 1.71634,7.38078 c 4.23758,18.22286 3.7526,17.16608 8.1294,17.71385 l 3.9317,0.49205 0.63383,-4.70109 c 0.3486,-2.58559 0.94577,-9.05951 1.32705,-14.38647 z m 233.84661,-10.68155 c 3.06945,-7.90929 2.68153,-25.38048 -0.67735,-30.50677 -1.4749,-2.25098 -1.65949,-2.29004 -3.39593,-0.71859 -2.8271,2.5585 -2.79773,5.53695 0.0883,8.94976 4.68397,5.53905 4.52836,14.51603 -0.31632,18.24791 -1.84523,1.4214 -1.96787,1.9587 -0.95466,4.18244 1.5146,3.3242 3.93355,3.25297 5.25602,-0.15475 z m -282.90572,-6.98997 -2.67011,-2.78701 -25.56587,-0.67253 -25.56587,-0.67254 -3.65803,2.48571 c -2.01192,1.36713 -3.00168,2.52581 -2.19947,2.57483 8.42564,0.51494 61.59213,2.35314 61.90916,2.14049 0.23117,-0.15508 -0.78125,-1.5361 -2.24981,-3.06895 z m 305.12365,-2.1869 c 3.09396,-8.87806 -0.12773,-29.11157 -3.7298,-23.42461 -1.3539,2.13754 -1.03623,4.97512 0.78186,6.98409 2.39742,2.64911 2.37377,11.70316 -0.0375,14.37033 -1.19814,1.32528 -1.58612,2.71123 -1.14662,4.09596 0.91674,2.88841 2.72917,1.99986 4.13208,-2.02577 z m -26.2692,-4.43362 c 0,-1.18972 -0.87097,-3.2086 -1.93547,-4.4864 l -1.93546,-2.32325 -0.0193,3.93641 c -0.0106,2.16503 0.26485,4.9983 0.61214,6.29616 0.59866,2.23722 0.70015,2.26578 1.95477,0.54998 0.7278,-0.99536 1.32331,-2.78317 1.32331,-3.9729 z m -253.13956,-52.37754 -0.26692,-52.71123 -7.38077,-1.24649 c -12.23352,-2.06605 -28.16499,-3.3962 -32.45686,-2.7099 -3.3569,0.53679 -4.26456,1.1851 -5.37285,3.83761 -0.73347,1.75544 -1.81246,3.48767 -2.39776,3.84941 -1.81264,1.12027 -4.94233,-1.28603 -7.05258,-5.42246 -1.44101,-2.82462 -2.49677,-3.81798 -3.6936,-3.47535 -1.46114,0.4183 -11.36876,2.06271 -24.36854,4.04454 -2.19709,0.33496 -6.34179,1.94948 -9.21044,3.58782 l -5.21572,2.97882 0.71516,48.38577 c 0.39334,26.61217 0.77385,48.43598 0.84557,48.49736 0.0717,0.0614 14.08007,0.63291 31.12965,1.27009 44.55108,1.66493 59.50152,2.30194 59.80738,2.54825 0.14804,0.11921 1.37526,0.005 2.72717,-0.25313 l 2.45803,-0.46988 z m 275.75885,46.36405 c 0.008,-1.18588 -0.42778,-2.42985 -0.96903,-2.76436 -0.59868,-0.37001 -0.9782,1.05259 -0.96904,3.6323 0.011,3.10051 0.27153,3.84367 0.96904,2.76437 0.52468,-0.81189 0.96075,-2.44642 0.96903,-3.63231 z M 300.43102,655.90021 v -4.92051 h -7.38078 -7.38077 l 0.0135,2.70628 c 0.033,6.63221 0.59459,7.13475 7.97417,7.13475 h 6.77394 v -4.92052 z m 16.88079,-6.1e-4 0.341,-4.92112 -7.13474,6.1e-4 -7.13475,6.1e-4 v 4.92051 4.92052 h 6.79375 6.79373 z M 154.7838,655.40816 v -3.44436 h -5.02581 c -4.17856,0 -4.92511,0.26241 -4.42846,1.55664 0.32853,0.85615 0.59734,2.40612 0.59734,3.44436 0,1.58123 0.71901,1.88772 4.42846,1.88772 4.40504,0 4.42847,-0.0182 4.42847,-3.44436 z m 13.39067,0.90361 c -0.32854,-0.85615 -0.59734,-2.40611 -0.59734,-3.44436 0,-1.58122 -0.719,-1.88771 -4.42846,-1.88771 -4.40503,0 -4.42846,0.0182 -4.42846,3.44436 v 3.44436 h 5.0258 c 4.17856,0 4.9251,-0.26241 4.42846,-1.55665 z m 460.2749,-41.0058 c -0.18741,-11.5017 -0.60221,-27.99772 -0.92177,-36.65783 l -0.58101,-15.74564 -17.30723,-9.34898 c -27.13491,-14.65767 -29.9237,-16.1789 -40.2142,-21.93599 -28.58348,-15.99125 -93.00997,-51.03985 -93.27349,-50.74166 -0.31872,0.36066 0.86239,62.85926 1.91282,101.21663 0.3335,12.17827 0.55255,23.02801 0.48676,24.11052 -0.0657,1.08251 -0.10405,2.63247 -0.085,3.44436 0.019,0.81188 0.0428,6.6796 0.0528,13.03936 l 0.0183,11.56321 7.14289,0.14163 c 22.52242,0.44659 96.4177,1.47092 117.93487,1.63482 l 25.175,0.19176 z M 412.43578,586.27494 c -1.12226,-2.57097 -2.09556,-4.7501 -2.16289,-4.84251 -0.0673,-0.0924 -2.55626,0.13029 -5.53097,0.49488 l -5.40857,0.66289 4.92051,2.8893 c 4.75031,2.78935 9.63775,5.45134 10.03172,5.46386 0.10488,0.003 -0.72753,-2.09745 -1.8498,-4.66842 z"
     class="UnoptimicedTransforms"
     transform="matrix(0.25044018,0,0,0.25044018,-16.486519,-60.569912)" />
  <path
     id="path234-6"
     style="fill:#__PRIMARY__;stroke:#638830;stroke-width:0.298855;stroke-linecap:round"
     d="m 93.846073,41.454133 a 50.008188,50.008188 0 0 0 -43.18968,25.02298 48.862649,48.461999 0 0 1 41.2742,-22.56749 48.862649,48.461999 0 0 1 48.862247,48.46213 48.862649,48.461999 0 0 1 -48.862247,48.462137 48.862649,48.461999 0 0 1 -13.637246,-1.93505 50.008188,50.008188 0 0 0 15.552726,2.57142 50.008188,50.008188 0 0 0 50.007807,-50.008317 50.008188,50.008188 0 0 0 -50.007807,-50.00781 z" />
  <path
     style="fill:#__PRIMARY__;fill-opacity:1;stroke:#000000;stroke-width:0.250441px;stroke-linecap:butt;stroke-linejoin:miter;stroke-opacity:1"
     d="m 103.12602,77.949723 37.47282,9.42808 -37.47282,-8.38754 z"
     id="path3597-5-2"
     sodipodi:nodetypes="cccc" />
  <path
     style="fill:none;stroke:#000000;stroke-width:0.250441px;stroke-linecap:butt;stroke-linejoin:miter;stroke-opacity:1"
     d="m 103.36194,90.207133 37.4309,2.16462 -37.4309,-1.12408 z"
     id="path3597-3-6"
     sodipodi:nodetypes="cccc" />
</svg>
