<?xml version="1.0" encoding="UTF-8" standalone="no"?>
<!-- Uploaded to SVGRepo https://www.svgrepo.com -->

<svg version="1.2" id="Layer_1" x="0px" y="0px" viewBox="0 0 256 228" xml:space="preserve" sodipodi:docname="move.svg" inkscape:version="1.2.1 (9c6d41e410, 2022-07-14)"
   xmlns:inkscape="http://www.inkscape.org/namespaces/inkscape"
   xmlns:sodipodi="http://sodipodi.sourceforge.net/DTD/sodipodi-0.dtd"
   xmlns="http://www.w3.org/2000/svg"
   xmlns:svg="http://www.w3.org/2000/svg">
   <defs id="defs26" />
   <sodipodi:namedview id="namedview24" pagecolor="#ffffff" bordercolor="#666666" borderopacity="1.0" inkscape:showpageshadow="2" inkscape:pageopacity="0.0" inkscape:pagecheckerboard="0" inkscape:deskcolor="#d1d1d1" showgrid="false" inkscape:zoom="2.0701754" inkscape:cx="168.1017" inkscape:cy="76.322035" inkscape:window-width="1920" inkscape:window-height="1017" inkscape:window-x="0" inkscape:window-y="39" inkscape:window-maximized="1" inkscape:current-layer="Layer_1" />


   <g id="g308" transform="matrix(1.313529,0,0,1.3009714,-48.578738,-23.444613)">
      <circle cx="124.74818" cy="47.176708" r="12.025861" id="circle2" style="fill:#__DARK__;fill-opacity:1;stroke-width:0.671836" />
      <g id="The_Icons" style="fill:#__PRIMARY__;fill-opacity:1" transform="matrix(0.67183584,0,0,0.67183584,48.360454,29.708978)">
         <rect x="189.89999" y="150.3" transform="matrix(0.8722,-0.4892,0.4892,0.8722,-47.3768,126.2987)" width="56.200001" height="7" id="rect4" style="fill:#__PRIMARY__;fill-opacity:1" />
         <rect x="195.7" y="157.89999" transform="matrix(0.8722,-0.4892,0.4892,0.8722,-51.1887,130.3489)" width="56.200001" height="10.4" id="rect6" style="fill:#__PRIMARY__;fill-opacity:1" />
         <rect x="185.3" y="141.3" transform="matrix(0.8722,-0.4892,0.4892,0.8722,-44.1798,121.5208)" width="50.200001" height="8" id="rect8" style="fill:#__PRIMARY__;fill-opacity:1" />
         <rect x="202.2" y="171.3" transform="matrix(0.8722,-0.4892,0.4892,0.8722,-57.2276,134.1239)" width="51.700001" height="10.4" id="rect10" style="fill:#__PRIMARY__;fill-opacity:1" />
         <rect x="172.89999" y="117.5" transform="matrix(0.8722,-0.4892,0.4892,0.8722,-34.7207,112.5793)" width="50.200001" height="10.4" id="rect12" style="fill:#__PRIMARY__;fill-opacity:1" />
         <rect x="178.8" y="128.8" transform="matrix(0.8722,-0.4892,0.4892,0.8722,-39.2578,117.8844)" width="54.200001" height="10.4" id="rect14" style="fill:#__PRIMARY__;fill-opacity:1" />
      </g>
      <g id="g21" style="fill:#__DARK__;fill-opacity:1" transform="matrix(0.67183584,0,0,0.67183584,48.360454,29.708978)">
         <path d="m 230.1,192.2 c -1,-2 -4,-3 -6,-1.5 L 204.7,201.6 156,116.1 c -0.5,-0.5 -3.5,-5.5 -8,-8.5 -6,-4 -12.9,-2.5 -13.9,-2 l -9.9,3.5 -26.4,-16.9 9.9,-18.9 c 0,0 7.5,-13.4 0,-22.9 -2.5,-4 -8,-7.5 -12.4,-8.5 -8,-1 -14.9,2.5 -19.4,9 L 55,90.2 c -1,1.5 -2.5,5 -3.5,7.5 -0.5,1 -2,4.5 -2.5,8.5 l -7.5,44.3 -32.3,13.3 c -10.9,5 -7,24.4 10.4,19.4 L 55,168.3 c 1,-0.5 2.5,-1.5 3.5,-2.5 0,0 0.5,0 0.5,-0.5 1,-1 1.5,-2 2,-3 0,0 0,0 0,-0.5 l 7.5,-23.4 20.4,21.9 -7,46.3 c -0.5,15.4 19.4,14.9 21.4,0 l 7,-45.3 c 0.5,-5 -1.5,-9.5 -3,-12.4 l -2,-4 -20.4,-28.3 6,-11.4 c 10.4,6.5 23.9,14.9 25.4,15.9 6,4 11.9,-0.5 12.9,-6 l 8,-3 c 0,0 4,-1 6.5,1 2.5,1.5 4.5,4.5 5,5.5 l 31.3,55.2 c -4.5,-4 -10.4,-7 -16.9,-7 -13.9,0 -25.4,11.4 -25.4,25.4 0,13.9 11.4,25.4 25.4,25.4 13.9,0 25.4,-11.4 25.4,-25.4 0,-2 0,-3.5 -0.5,-5.5 l 12.4,21.4 c 1,1.5 2.5,2.5 4,2.5 1,0 1.5,0 2,-0.5 l 22.9,-12.9 c 1.3,-0.1 2.2,-2.6 0.8,-5 z m -66.9,13.2 c -7.3,0 -13.2,-5.9 -13.2,-13.2 0,-7.3 5.9,-13.2 13.2,-13.2 7.3,0 13.2,5.9 13.2,13.2 0,7.3 -5.9,13.2 -13.2,13.2 z" id="path17" style="fill:#__DARK__;fill-opacity:1" />
         <circle cx="163.2" cy="192.2" r="9.5" id="circle19" style="fill:#__DARK__;fill-opacity:1" />
      </g>
   </g>
</svg>
