<svg xmlns="http://www.w3.org/2000/svg" version="1.1" xmlns:xlink="http://www.w3.org/1999/xlink" xmlns:svgjs="http://svgjs.com/svgjs" width="720" height="200" preserveAspectRatio="none" viewBox="0 0 720 200"><g mask="url(&quot;#SvgjsMask1132&quot;)" fill="none"><path d="M-56.08 294.6L-56.08 294.6" stroke="rgba(29, 112, 184, 0.12)" stroke-width="1.5"></path><path d="M-56.08 294.6L29.49 317.63" stroke="rgba(29, 112, 184, 0.12)" stroke-width="1.5"></path><path d="M-56.08 294.6L29.09 233.59" stroke="rgba(29, 112, 184, 0.12)" stroke-width="1.5"></path><path d="M29.09 233.59L29.09 233.59" stroke="rgba(29, 112, 184, 0.12)" stroke-width="1.5"></path><path d="M29.09 233.59L29.49 317.63" stroke="rgba(29, 112, 184, 0.12)" stroke-width="1.5"></path><path d="M29.09 233.59L126.55 211.42" stroke="rgba(29, 112, 184, 0.12)" stroke-width="1.5"></path><path d="M29.09 233.59L125.92 140.77" stroke="rgba(29, 112, 184, 0.12)" stroke-width="1.5"></path><path d="M29.09 233.59L144.02 322.01" stroke="rgba(29, 112, 184, 0.12)" stroke-width="1.5"></path><path d="M29.49 317.63L29.49 317.63" stroke="rgba(29, 112, 184, 0.12)" stroke-width="1.5"></path><path d="M29.49 317.63L144.02 322.01" stroke="rgba(29, 112, 184, 0.12)" stroke-width="1.5"></path><path d="M29.49 317.63L126.55 211.42" stroke="rgba(29, 112, 184, 0.12)" stroke-width="1.5"></path><path d="M29.49 317.63L210.88 336.58" stroke="rgba(29, 112, 184, 0.12)" stroke-width="1.5"></path><path d="M29.49 317.63L125.92 140.77" stroke="rgba(29, 112, 184, 0.12)" stroke-width="1.5"></path><path d="M125.92 140.77L125.92 140.77" stroke="rgba(29, 112, 184, 0.12)" stroke-width="1.5"></path><path d="M125.92 140.77L126.55 211.42" stroke="rgba(29, 112, 184, 0.12)" stroke-width="1.5"></path><path d="M125.92 140.77L212.65 210.74" stroke="rgba(29, 112, 184, 0.12)" stroke-width="1.5"></path><path d="M126.55 211.42L126.55 211.42" stroke="rgba(29, 112, 184, 0.12)" stroke-width="1.5"></path><path d="M126.55 211.42L212.65 210.74" stroke="rgba(29, 112, 184, 0.12)" stroke-width="1.5"></path><path d="M126.55 211.42L144.02 322.01" stroke="rgba(29, 112, 184, 0.12)" stroke-width="1.5"></path><path d="M144.02 322.01L144.02 322.01" stroke="rgba(29, 112, 184, 0.12)" stroke-width="1.5"></path><path d="M144.02 322.01L210.88 336.58" stroke="rgba(29, 112, 184, 0.12)" stroke-width="1.5"></path><path d="M238.69 135.64L238.69 135.64" stroke="rgba(29, 112, 184, 0.12)" stroke-width="1.5"></path><path d="M238.69 135.64L315.8 146.61" stroke="rgba(29, 112, 184, 0.12)" stroke-width="1.5"></path><path d="M238.69 135.64L212.65 210.74" stroke="rgba(29, 112, 184, 0.12)" stroke-width="1.5"></path><path d="M238.69 135.64L125.92 140.77" stroke="rgba(29, 112, 184, 0.12)" stroke-width="1.5"></path><path d="M212.65 210.74L212.65 210.74" stroke="rgba(29, 112, 184, 0.12)" stroke-width="1.5"></path><path d="M210.88 336.58L210.88 336.58" stroke="rgba(29, 112, 184, 0.12)" stroke-width="1.5"></path><path d="M210.88 336.58L307.63 319.37" stroke="rgba(29, 112, 184, 0.12)" stroke-width="1.5"></path><path d="M315.8 146.61L315.8 146.61" stroke="rgba(29, 112, 184, 0.12)" stroke-width="1.5"></path><path d="M315.8 146.61L383.13 148.99" stroke="rgba(29, 112, 184, 0.12)" stroke-width="1.5"></path><path d="M315.8 146.61L406.72 226.47" stroke="rgba(29, 112, 184, 0.12)" stroke-width="1.5"></path><path d="M315.8 146.61L212.65 210.74" stroke="rgba(29, 112, 184, 0.12)" stroke-width="1.5"></path><path d="M315.8 146.61L307.63 319.37" stroke="rgba(29, 112, 184, 0.12)" stroke-width="1.5"></path><path d="M307.63 319.37L307.63 319.37" stroke="rgba(29, 112, 184, 0.12)" stroke-width="1.5"></path><path d="M307.63 319.37L391.66 308.87" stroke="rgba(29, 112, 184, 0.12)" stroke-width="1.5"></path><path d="M307.63 319.37L406.72 226.47" stroke="rgba(29, 112, 184, 0.12)" stroke-width="1.5"></path><path d="M307.63 319.37L212.65 210.74" stroke="rgba(29, 112, 184, 0.12)" stroke-width="1.5"></path><path d="M383.13 148.99L383.13 148.99" stroke="rgba(29, 112, 184, 0.12)" stroke-width="1.5"></path><path d="M383.13 148.99L406.72 226.47" stroke="rgba(29, 112, 184, 0.12)" stroke-width="1.5"></path><path d="M406.72 226.47L406.72 226.47" stroke="rgba(29, 112, 184, 0.12)" stroke-width="1.5"></path><path d="M406.72 226.47L391.66 308.87" stroke="rgba(29, 112, 184, 0.12)" stroke-width="1.5"></path><path d="M406.72 226.47L504.02 207.91" stroke="rgba(29, 112, 184, 0.12)" stroke-width="1.5"></path><path d="M391.66 308.87L391.66 308.87" stroke="rgba(29, 112, 184, 0.12)" stroke-width="1.5"></path><path d="M391.66 308.87L514.92 332.76" stroke="rgba(29, 112, 184, 0.12)" stroke-width="1.5"></path><path d="M391.66 308.87L504.02 207.91" stroke="rgba(29, 112, 184, 0.12)" stroke-width="1.5"></path><path d="M391.66 308.87L383.13 148.99" stroke="rgba(29, 112, 184, 0.12)" stroke-width="1.5"></path><path d="M391.66 308.87L315.8 146.61" stroke="rgba(29, 112, 184, 0.12)" stroke-width="1.5"></path><path d="M506.93 -49.14L506.93 -49.14" stroke="rgba(29, 112, 184, 0.12)" stroke-width="1.5"></path><path d="M506.93 -49.14L604.7 -38.62" stroke="rgba(29, 112, 184, 0.12)" stroke-width="1.5"></path><path d="M506.93 -49.14L488.32 55.22" stroke="rgba(29, 112, 184, 0.12)" stroke-width="1.5"></path><path d="M506.93 -49.14L601.26 51.37" stroke="rgba(29, 112, 184, 0.12)" stroke-width="1.5"></path><path d="M506.93 -49.14L515.64 118.84" stroke="rgba(29, 112, 184, 0.12)" stroke-width="1.5"></path><path d="M506.93 -49.14L683.74 -32.41" stroke="rgba(29, 112, 184, 0.12)" stroke-width="1.5"></path><path d="M488.32 55.22L488.32 55.22" stroke="rgba(29, 112, 184, 0.12)" stroke-width="1.5"></path><path d="M488.32 55.22L515.64 118.84" stroke="rgba(29, 112, 184, 0.12)" stroke-width="1.5"></path><path d="M488.32 55.22L601.26 51.37" stroke="rgba(29, 112, 184, 0.12)" stroke-width="1.5"></path><path d="M488.32 55.22L585.44 130.99" stroke="rgba(29, 112, 184, 0.12)" stroke-width="1.5"></path><path d="M488.32 55.22L383.13 148.99" stroke="rgba(29, 112, 184, 0.12)" stroke-width="1.5"></path><path d="M488.32 55.22L604.7 -38.62" stroke="rgba(29, 112, 184, 0.12)" stroke-width="1.5"></path><path d="M515.64 118.84L515.64 118.84" stroke="rgba(29, 112, 184, 0.12)" stroke-width="1.5"></path><path d="M515.64 118.84L585.44 130.99" stroke="rgba(29, 112, 184, 0.12)" stroke-width="1.5"></path><path d="M515.64 118.84L504.02 207.91" stroke="rgba(29, 112, 184, 0.12)" stroke-width="1.5"></path><path d="M515.64 118.84L601.26 51.37" stroke="rgba(29, 112, 184, 0.12)" stroke-width="1.5"></path><path d="M515.64 118.84L383.13 148.99" stroke="rgba(29, 112, 184, 0.12)" stroke-width="1.5"></path><path d="M515.64 118.84L569.78 246.1" stroke="rgba(29, 112, 184, 0.12)" stroke-width="1.5"></path><path d="M504.02 207.91L504.02 207.91" stroke="rgba(29, 112, 184, 0.12)" stroke-width="1.5"></path><path d="M504.02 207.91L569.78 246.1" stroke="rgba(29, 112, 184, 0.12)" stroke-width="1.5"></path><path d="M514.92 332.76L514.92 332.76" stroke="rgba(29, 112, 184, 0.12)" stroke-width="1.5"></path><path d="M514.92 332.76L588.71 333.71" stroke="rgba(29, 112, 184, 0.12)" stroke-width="1.5"></path><path d="M514.92 332.76L569.78 246.1" stroke="rgba(29, 112, 184, 0.12)" stroke-width="1.5"></path><path d="M514.92 332.76L504.02 207.91" stroke="rgba(29, 112, 184, 0.12)" stroke-width="1.5"></path><path d="M604.7 -38.62L604.7 -38.62" stroke="rgba(29, 112, 184, 0.12)" stroke-width="1.5"></path><path d="M604.7 -38.62L683.74 -32.41" stroke="rgba(29, 112, 184, 0.12)" stroke-width="1.5"></path><path d="M604.7 -38.62L601.26 51.37" stroke="rgba(29, 112, 184, 0.12)" stroke-width="1.5"></path><path d="M604.7 -38.62L689.48 49.6" stroke="rgba(29, 112, 184, 0.12)" stroke-width="1.5"></path><path d="M604.7 -38.62L742.51 -59.77" stroke="rgba(29, 112, 184, 0.12)" stroke-width="1.5"></path><path d="M601.26 51.37L601.26 51.37" stroke="rgba(29, 112, 184, 0.12)" stroke-width="1.5"></path><path d="M601.26 51.37L585.44 130.99" stroke="rgba(29, 112, 184, 0.12)" stroke-width="1.5"></path><path d="M601.26 51.37L689.48 49.6" stroke="rgba(29, 112, 184, 0.12)" stroke-width="1.5"></path><path d="M585.44 130.99L585.44 130.99" stroke="rgba(29, 112, 184, 0.12)" stroke-width="1.5"></path><path d="M585.44 130.99L504.02 207.91" stroke="rgba(29, 112, 184, 0.12)" stroke-width="1.5"></path><path d="M569.78 246.1L569.78 246.1" stroke="rgba(29, 112, 184, 0.12)" stroke-width="1.5"></path><path d="M569.78 246.1L588.71 333.71" stroke="rgba(29, 112, 184, 0.12)" stroke-width="1.5"></path><path d="M569.78 246.1L662.88 305.64" stroke="rgba(29, 112, 184, 0.12)" stroke-width="1.5"></path><path d="M588.71 333.71L588.71 333.71" stroke="rgba(29, 112, 184, 0.12)" stroke-width="1.5"></path><path d="M588.71 333.71L662.88 305.64" stroke="rgba(29, 112, 184, 0.12)" stroke-width="1.5"></path><path d="M588.71 333.71L504.02 207.91" stroke="rgba(29, 112, 184, 0.12)" stroke-width="1.5"></path><path d="M588.71 333.71L770.07 326.09" stroke="rgba(29, 112, 184, 0.12)" stroke-width="1.5"></path><path d="M588.71 333.71L391.66 308.87" stroke="rgba(29, 112, 184, 0.12)" stroke-width="1.5"></path><path d="M683.74 -32.41L683.74 -32.41" stroke="rgba(29, 112, 184, 0.12)" stroke-width="1.5"></path><path d="M683.74 -32.41L742.51 -59.77" stroke="rgba(29, 112, 184, 0.12)" stroke-width="1.5"></path><path d="M683.74 -32.41L689.48 49.6" stroke="rgba(29, 112, 184, 0.12)" stroke-width="1.5"></path><path d="M683.74 -32.41L601.26 51.37" stroke="rgba(29, 112, 184, 0.12)" stroke-width="1.5"></path><path d="M689.48 49.6L689.48 49.6" stroke="rgba(29, 112, 184, 0.12)" stroke-width="1.5"></path><path d="M689.48 49.6L772.63 113.04" stroke="rgba(29, 112, 184, 0.12)" stroke-width="1.5"></path><path d="M662.88 305.64L662.88 305.64" stroke="rgba(29, 112, 184, 0.12)" stroke-width="1.5"></path><path d="M662.88 305.64L770.07 326.09" stroke="rgba(29, 112, 184, 0.12)" stroke-width="1.5"></path><path d="M662.88 305.64L763.82 212.41" stroke="rgba(29, 112, 184, 0.12)" stroke-width="1.5"></path><path d="M742.51 -59.77L742.51 -59.77" stroke="rgba(29, 112, 184, 0.12)" stroke-width="1.5"></path><path d="M742.51 -59.77L689.48 49.6" stroke="rgba(29, 112, 184, 0.12)" stroke-width="1.5"></path><path d="M742.51 -59.77L772.63 113.04" stroke="rgba(29, 112, 184, 0.12)" stroke-width="1.5"></path><path d="M742.51 -59.77L601.26 51.37" stroke="rgba(29, 112, 184, 0.12)" stroke-width="1.5"></path><path d="M742.51 -59.77L506.93 -49.14" stroke="rgba(29, 112, 184, 0.12)" stroke-width="1.5"></path><path d="M772.63 113.04L772.63 113.04" stroke="rgba(29, 112, 184, 0.12)" stroke-width="1.5"></path><path d="M772.63 113.04L763.82 212.41" stroke="rgba(29, 112, 184, 0.12)" stroke-width="1.5"></path><path d="M772.63 113.04L683.74 -32.41" stroke="rgba(29, 112, 184, 0.12)" stroke-width="1.5"></path><path d="M772.63 113.04L601.26 51.37" stroke="rgba(29, 112, 184, 0.12)" stroke-width="1.5"></path><path d="M763.82 212.41L763.82 212.41" stroke="rgba(29, 112, 184, 0.12)" stroke-width="1.5"></path><path d="M763.82 212.41L770.07 326.09" stroke="rgba(29, 112, 184, 0.12)" stroke-width="1.5"></path><path d="M763.82 212.41L689.48 49.6" stroke="rgba(29, 112, 184, 0.12)" stroke-width="1.5"></path><path d="M763.82 212.41L585.44 130.99" stroke="rgba(29, 112, 184, 0.12)" stroke-width="1.5"></path><path d="M770.07 326.09L770.07 326.09" stroke="rgba(29, 112, 184, 0.12)" stroke-width="1.5"></path><circle r="5" cx="-56.08" cy="294.6" fill="rgba(29, 112, 184, 0.12)"></circle><circle r="5" cx="29.09" cy="233.59" fill="rgba(29, 112, 184, 0.12)"></circle><circle r="5" cx="29.49" cy="317.63" fill="rgba(29, 112, 184, 0.12)"></circle><circle r="5" cx="125.92" cy="140.77" fill="rgba(29, 112, 184, 0.12)"></circle><circle r="5" cx="126.55" cy="211.42" fill="rgba(29, 112, 184, 0.12)"></circle><circle r="5" cx="144.02" cy="322.01" fill="rgba(29, 112, 184, 0.12)"></circle><circle r="5" cx="238.69" cy="135.64" fill="rgba(29, 112, 184, 0.12)"></circle><circle r="5" cx="212.65" cy="210.74" fill="rgba(29, 112, 184, 0.12)"></circle><circle r="5" cx="210.88" cy="336.58" fill="rgba(29, 112, 184, 0.12)"></circle><circle r="5" cx="315.8" cy="146.61" fill="rgba(29, 112, 184, 0.12)"></circle><circle r="5" cx="307.63" cy="319.37" fill="rgba(29, 112, 184, 0.12)"></circle><circle r="5" cx="383.13" cy="148.99" fill="rgba(29, 112, 184, 0.12)"></circle><circle r="5" cx="406.72" cy="226.47" fill="rgba(29, 112, 184, 0.12)"></circle><circle r="5" cx="391.66" cy="308.87" fill="rgba(29, 112, 184, 0.12)"></circle><circle r="5" cx="506.93" cy="-49.14" fill="rgba(29, 112, 184, 0.12)"></circle><circle r="5" cx="488.32" cy="55.22" fill="rgba(29, 112, 184, 0.12)"></circle><circle r="5" cx="515.64" cy="118.84" fill="rgba(29, 112, 184, 0.12)"></circle><circle r="5" cx="504.02" cy="207.91" fill="rgba(29, 112, 184, 0.12)"></circle><circle r="5" cx="514.92" cy="332.76" fill="rgba(29, 112, 184, 0.12)"></circle><circle r="5" cx="604.7" cy="-38.62" fill="rgba(29, 112, 184, 0.12)"></circle><circle r="5" cx="601.26" cy="51.37" fill="rgba(29, 112, 184, 0.12)"></circle><circle r="5" cx="585.44" cy="130.99" fill="rgba(29, 112, 184, 0.12)"></circle><circle r="5" cx="569.78" cy="246.1" fill="rgba(29, 112, 184, 0.12)"></circle><circle r="5" cx="588.71" cy="333.71" fill="rgba(29, 112, 184, 0.12)"></circle><circle r="5" cx="683.74" cy="-32.41" fill="rgba(29, 112, 184, 0.12)"></circle><circle r="5" cx="689.48" cy="49.6" fill="rgba(29, 112, 184, 0.12)"></circle><circle r="5" cx="662.88" cy="305.64" fill="rgba(29, 112, 184, 0.12)"></circle><circle r="5" cx="742.51" cy="-59.77" fill="rgba(29, 112, 184, 0.12)"></circle><circle r="5" cx="772.63" cy="113.04" fill="rgba(29, 112, 184, 0.12)"></circle><circle r="5" cx="763.82" cy="212.41" fill="rgba(29, 112, 184, 0.12)"></circle><circle r="5" cx="770.07" cy="326.09" fill="rgba(29, 112, 184, 0.12)"></circle><path d="M-54.83 323.68L-54.83 323.68" stroke="hsla(207.89999999999998, 72.8%, 54.3%, 0.24)" stroke-width="1.5"></path><path d="M-54.83 323.68L46.71 306.91" stroke="hsla(207.89999999999998, 72.8%, 54.3%, 0.24)" stroke-width="1.5"></path><path d="M-54.83 323.68L-38.87 205.07" stroke="hsla(207.89999999999998, 72.8%, 54.3%, 0.24)" stroke-width="1.5"></path><path d="M-54.83 323.68L48.13 236.48" stroke="hsla(207.89999999999998, 72.8%, 54.3%, 0.24)" stroke-width="1.5"></path><path d="M485.47 303.71L485.47 303.71" stroke="hsla(207.89999999999998, 72.8%, 54.3%, 0.24)" stroke-width="1.5"></path><path d="M485.47 303.71L493.76 231.61" stroke="hsla(207.89999999999998, 72.8%, 54.3%, 0.24)" stroke-width="1.5"></path><path d="M485.47 303.71L398.99 309.14" stroke="hsla(207.89999999999998, 72.8%, 54.3%, 0.24)" stroke-width="1.5"></path><path d="M485.47 303.71L575.21 305.8" stroke="hsla(207.89999999999998, 72.8%, 54.3%, 0.24)" stroke-width="1.5"></path><path d="M591.86 -39.11L591.86 -39.11" stroke="hsla(207.89999999999998, 72.8%, 54.3%, 0.24)" stroke-width="1.5"></path><path d="M591.86 -39.11L665.63 -63.63" stroke="hsla(207.89999999999998, 72.8%, 54.3%, 0.24)" stroke-width="1.5"></path><path d="M591.86 -39.11L598.73 62.35" stroke="hsla(207.89999999999998, 72.8%, 54.3%, 0.24)" stroke-width="1.5"></path><path d="M591.86 -39.11L659.83 43.12" stroke="hsla(207.89999999999998, 72.8%, 54.3%, 0.24)" stroke-width="1.5"></path><path d="M591.86 -39.11L604.18 131.71" stroke="hsla(207.89999999999998, 72.8%, 54.3%, 0.24)" stroke-width="1.5"></path><path d="M576.55 247.16L576.55 247.16" stroke="hsla(207.89999999999998, 72.8%, 54.3%, 0.24)" stroke-width="1.5"></path><path d="M576.55 247.16L575.21 305.8" stroke="hsla(207.89999999999998, 72.8%, 54.3%, 0.24)" stroke-width="1.5"></path><path d="M576.55 247.16L493.76 231.61" stroke="hsla(207.89999999999998, 72.8%, 54.3%, 0.24)" stroke-width="1.5"></path><path d="M-38.87 205.07L-38.87 205.07" stroke="hsla(207.89999999999998, 72.8%, 54.3%, 0.24)" stroke-width="1.5"></path><path d="M-38.87 205.07L48.13 236.48" stroke="hsla(207.89999999999998, 72.8%, 54.3%, 0.24)" stroke-width="1.5"></path><path d="M-38.87 205.07L46.71 306.91" stroke="hsla(207.89999999999998, 72.8%, 54.3%, 0.24)" stroke-width="1.5"></path><path d="M-38.87 205.07L123.28 202.88" stroke="hsla(207.89999999999998, 72.8%, 54.3%, 0.24)" stroke-width="1.5"></path><path d="M48.13 236.48L48.13 236.48" stroke="hsla(207.89999999999998, 72.8%, 54.3%, 0.24)" stroke-width="1.5"></path><path d="M48.13 236.48L46.71 306.91" stroke="hsla(207.89999999999998, 72.8%, 54.3%, 0.24)" stroke-width="1.5"></path><path d="M48.13 236.48L123.28 202.88" stroke="hsla(207.89999999999998, 72.8%, 54.3%, 0.24)" stroke-width="1.5"></path><path d="M46.71 306.91L46.71 306.91" stroke="hsla(207.89999999999998, 72.8%, 54.3%, 0.24)" stroke-width="1.5"></path><path d="M46.71 306.91L130.08 326.96" stroke="hsla(207.89999999999998, 72.8%, 54.3%, 0.24)" stroke-width="1.5"></path><path d="M46.71 306.91L123.28 202.88" stroke="hsla(207.89999999999998, 72.8%, 54.3%, 0.24)" stroke-width="1.5"></path><path d="M46.71 306.91L221.34 298.28" stroke="hsla(207.89999999999998, 72.8%, 54.3%, 0.24)" stroke-width="1.5"></path><path d="M123.28 202.88L123.28 202.88" stroke="hsla(207.89999999999998, 72.8%, 54.3%, 0.24)" stroke-width="1.5"></path><path d="M123.28 202.88L206.75 219.56" stroke="hsla(207.89999999999998, 72.8%, 54.3%, 0.24)" stroke-width="1.5"></path><path d="M123.28 202.88L130.08 326.96" stroke="hsla(207.89999999999998, 72.8%, 54.3%, 0.24)" stroke-width="1.5"></path><path d="M123.28 202.88L221.34 298.28" stroke="hsla(207.89999999999998, 72.8%, 54.3%, 0.24)" stroke-width="1.5"></path><path d="M130.08 326.96L130.08 326.96" stroke="hsla(207.89999999999998, 72.8%, 54.3%, 0.24)" stroke-width="1.5"></path><path d="M130.08 326.96L221.34 298.28" stroke="hsla(207.89999999999998, 72.8%, 54.3%, 0.24)" stroke-width="1.5"></path><path d="M130.08 326.96L48.13 236.48" stroke="hsla(207.89999999999998, 72.8%, 54.3%, 0.24)" stroke-width="1.5"></path><path d="M206.75 219.56L206.75 219.56" stroke="hsla(207.89999999999998, 72.8%, 54.3%, 0.24)" stroke-width="1.5"></path><path d="M206.75 219.56L221.34 298.28" stroke="hsla(207.89999999999998, 72.8%, 54.3%, 0.24)" stroke-width="1.5"></path><path d="M221.34 298.28L221.34 298.28" stroke="hsla(207.89999999999998, 72.8%, 54.3%, 0.24)" stroke-width="1.5"></path><path d="M221.34 298.28L294.13 295.35" stroke="hsla(207.89999999999998, 72.8%, 54.3%, 0.24)" stroke-width="1.5"></path><path d="M221.34 298.28L305.51 203.94" stroke="hsla(207.89999999999998, 72.8%, 54.3%, 0.24)" stroke-width="1.5"></path><path d="M333.31 145.11L333.31 145.11" stroke="hsla(207.89999999999998, 72.8%, 54.3%, 0.24)" stroke-width="1.5"></path><path d="M333.31 145.11L305.51 203.94" stroke="hsla(207.89999999999998, 72.8%, 54.3%, 0.24)" stroke-width="1.5"></path><path d="M333.31 145.11L415.17 132.75" stroke="hsla(207.89999999999998, 72.8%, 54.3%, 0.24)" stroke-width="1.5"></path><path d="M333.31 145.11L206.75 219.56" stroke="hsla(207.89999999999998, 72.8%, 54.3%, 0.24)" stroke-width="1.5"></path><path d="M305.51 203.94L305.51 203.94" stroke="hsla(207.89999999999998, 72.8%, 54.3%, 0.24)" stroke-width="1.5"></path><path d="M305.51 203.94L294.13 295.35" stroke="hsla(207.89999999999998, 72.8%, 54.3%, 0.24)" stroke-width="1.5"></path><path d="M305.51 203.94L206.75 219.56" stroke="hsla(207.89999999999998, 72.8%, 54.3%, 0.24)" stroke-width="1.5"></path><path d="M305.51 203.94L415.17 132.75" stroke="hsla(207.89999999999998, 72.8%, 54.3%, 0.24)" stroke-width="1.5"></path><path d="M305.51 203.94L398.99 309.14" stroke="hsla(207.89999999999998, 72.8%, 54.3%, 0.24)" stroke-width="1.5"></path><path d="M294.13 295.35L294.13 295.35" stroke="hsla(207.89999999999998, 72.8%, 54.3%, 0.24)" stroke-width="1.5"></path><path d="M415.17 132.75L415.17 132.75" stroke="hsla(207.89999999999998, 72.8%, 54.3%, 0.24)" stroke-width="1.5"></path><path d="M415.17 132.75L482.57 128.64" stroke="hsla(207.89999999999998, 72.8%, 54.3%, 0.24)" stroke-width="1.5"></path><path d="M398.99 309.14L398.99 309.14" stroke="hsla(207.89999999999998, 72.8%, 54.3%, 0.24)" stroke-width="1.5"></path><path d="M398.99 309.14L294.13 295.35" stroke="hsla(207.89999999999998, 72.8%, 54.3%, 0.24)" stroke-width="1.5"></path><path d="M398.99 309.14L493.76 231.61" stroke="hsla(207.89999999999998, 72.8%, 54.3%, 0.24)" stroke-width="1.5"></path><path d="M482.57 128.64L482.57 128.64" stroke="hsla(207.89999999999998, 72.8%, 54.3%, 0.24)" stroke-width="1.5"></path><path d="M482.57 128.64L493.76 231.61" stroke="hsla(207.89999999999998, 72.8%, 54.3%, 0.24)" stroke-width="1.5"></path><path d="M482.57 128.64L604.18 131.71" stroke="hsla(207.89999999999998, 72.8%, 54.3%, 0.24)" stroke-width="1.5"></path><path d="M482.57 128.64L598.73 62.35" stroke="hsla(207.89999999999998, 72.8%, 54.3%, 0.24)" stroke-width="1.5"></path><path d="M482.57 128.64L333.31 145.11" stroke="hsla(207.89999999999998, 72.8%, 54.3%, 0.24)" stroke-width="1.5"></path><path d="M493.76 231.61L493.76 231.61" stroke="hsla(207.89999999999998, 72.8%, 54.3%, 0.24)" stroke-width="1.5"></path><path d="M493.76 231.61L575.21 305.8" stroke="hsla(207.89999999999998, 72.8%, 54.3%, 0.24)" stroke-width="1.5"></path><path d="M598.73 62.35L598.73 62.35" stroke="hsla(207.89999999999998, 72.8%, 54.3%, 0.24)" stroke-width="1.5"></path><path d="M598.73 62.35L659.83 43.12" stroke="hsla(207.89999999999998, 72.8%, 54.3%, 0.24)" stroke-width="1.5"></path><path d="M598.73 62.35L604.18 131.71" stroke="hsla(207.89999999999998, 72.8%, 54.3%, 0.24)" stroke-width="1.5"></path><path d="M598.73 62.35L657.78 142.96" stroke="hsla(207.89999999999998, 72.8%, 54.3%, 0.24)" stroke-width="1.5"></path><path d="M604.18 131.71L604.18 131.71" stroke="hsla(207.89999999999998, 72.8%, 54.3%, 0.24)" stroke-width="1.5"></path><path d="M604.18 131.71L657.78 142.96" stroke="hsla(207.89999999999998, 72.8%, 54.3%, 0.24)" stroke-width="1.5"></path><path d="M604.18 131.71L659.83 43.12" stroke="hsla(207.89999999999998, 72.8%, 54.3%, 0.24)" stroke-width="1.5"></path><path d="M575.21 305.8L575.21 305.8" stroke="hsla(207.89999999999998, 72.8%, 54.3%, 0.24)" stroke-width="1.5"></path><path d="M575.21 305.8L666.83 336.79" stroke="hsla(207.89999999999998, 72.8%, 54.3%, 0.24)" stroke-width="1.5"></path><path d="M575.21 305.8L677.49 218.15" stroke="hsla(207.89999999999998, 72.8%, 54.3%, 0.24)" stroke-width="1.5"></path><path d="M665.63 -63.63L665.63 -63.63" stroke="hsla(207.89999999999998, 72.8%, 54.3%, 0.24)" stroke-width="1.5"></path><path d="M665.63 -63.63L659.83 43.12" stroke="hsla(207.89999999999998, 72.8%, 54.3%, 0.24)" stroke-width="1.5"></path><path d="M665.63 -63.63L781.02 -63.69" stroke="hsla(207.89999999999998, 72.8%, 54.3%, 0.24)" stroke-width="1.5"></path><path d="M665.63 -63.63L598.73 62.35" stroke="hsla(207.89999999999998, 72.8%, 54.3%, 0.24)" stroke-width="1.5"></path><path d="M665.63 -63.63L778.27 41.8" stroke="hsla(207.89999999999998, 72.8%, 54.3%, 0.24)" stroke-width="1.5"></path><path d="M659.83 43.12L659.83 43.12" stroke="hsla(207.89999999999998, 72.8%, 54.3%, 0.24)" stroke-width="1.5"></path><path d="M659.83 43.12L657.78 142.96" stroke="hsla(207.89999999999998, 72.8%, 54.3%, 0.24)" stroke-width="1.5"></path><path d="M657.78 142.96L657.78 142.96" stroke="hsla(207.89999999999998, 72.8%, 54.3%, 0.24)" stroke-width="1.5"></path><path d="M657.78 142.96L677.49 218.15" stroke="hsla(207.89999999999998, 72.8%, 54.3%, 0.24)" stroke-width="1.5"></path><path d="M677.49 218.15L677.49 218.15" stroke="hsla(207.89999999999998, 72.8%, 54.3%, 0.24)" stroke-width="1.5"></path><path d="M677.49 218.15L751.25 238.94" stroke="hsla(207.89999999999998, 72.8%, 54.3%, 0.24)" stroke-width="1.5"></path><path d="M677.49 218.15L576.55 247.16" stroke="hsla(207.89999999999998, 72.8%, 54.3%, 0.24)" stroke-width="1.5"></path><path d="M666.83 336.79L666.83 336.79" stroke="hsla(207.89999999999998, 72.8%, 54.3%, 0.24)" stroke-width="1.5"></path><path d="M666.83 336.79L677.49 218.15" stroke="hsla(207.89999999999998, 72.8%, 54.3%, 0.24)" stroke-width="1.5"></path><path d="M666.83 336.79L780.88 292.9" stroke="hsla(207.89999999999998, 72.8%, 54.3%, 0.24)" stroke-width="1.5"></path><path d="M666.83 336.79L576.55 247.16" stroke="hsla(207.89999999999998, 72.8%, 54.3%, 0.24)" stroke-width="1.5"></path><path d="M781.02 -63.69L781.02 -63.69" stroke="hsla(207.89999999999998, 72.8%, 54.3%, 0.24)" stroke-width="1.5"></path><path d="M781.02 -63.69L778.27 41.8" stroke="hsla(207.89999999999998, 72.8%, 54.3%, 0.24)" stroke-width="1.5"></path><path d="M781.02 -63.69L659.83 43.12" stroke="hsla(207.89999999999998, 72.8%, 54.3%, 0.24)" stroke-width="1.5"></path><path d="M781.02 -63.69L591.86 -39.11" stroke="hsla(207.89999999999998, 72.8%, 54.3%, 0.24)" stroke-width="1.5"></path><path d="M781.02 -63.69L775.48 141.52" stroke="hsla(207.89999999999998, 72.8%, 54.3%, 0.24)" stroke-width="1.5"></path><path d="M778.27 41.8L778.27 41.8" stroke="hsla(207.89999999999998, 72.8%, 54.3%, 0.24)" stroke-width="1.5"></path><path d="M778.27 41.8L775.48 141.52" stroke="hsla(207.89999999999998, 72.8%, 54.3%, 0.24)" stroke-width="1.5"></path><path d="M778.27 41.8L659.83 43.12" stroke="hsla(207.89999999999998, 72.8%, 54.3%, 0.24)" stroke-width="1.5"></path><path d="M778.27 41.8L657.78 142.96" stroke="hsla(207.89999999999998, 72.8%, 54.3%, 0.24)" stroke-width="1.5"></path><path d="M778.27 41.8L598.73 62.35" stroke="hsla(207.89999999999998, 72.8%, 54.3%, 0.24)" stroke-width="1.5"></path><path d="M775.48 141.52L775.48 141.52" stroke="hsla(207.89999999999998, 72.8%, 54.3%, 0.24)" stroke-width="1.5"></path><path d="M775.48 141.52L751.25 238.94" stroke="hsla(207.89999999999998, 72.8%, 54.3%, 0.24)" stroke-width="1.5"></path><path d="M775.48 141.52L657.78 142.96" stroke="hsla(207.89999999999998, 72.8%, 54.3%, 0.24)" stroke-width="1.5"></path><path d="M775.48 141.52L677.49 218.15" stroke="hsla(207.89999999999998, 72.8%, 54.3%, 0.24)" stroke-width="1.5"></path><path d="M775.48 141.52L780.88 292.9" stroke="hsla(207.89999999999998, 72.8%, 54.3%, 0.24)" stroke-width="1.5"></path><path d="M775.48 141.52L659.83 43.12" stroke="hsla(207.89999999999998, 72.8%, 54.3%, 0.24)" stroke-width="1.5"></path><path d="M751.25 238.94L751.25 238.94" stroke="hsla(207.89999999999998, 72.8%, 54.3%, 0.24)" stroke-width="1.5"></path><path d="M751.25 238.94L780.88 292.9" stroke="hsla(207.89999999999998, 72.8%, 54.3%, 0.24)" stroke-width="1.5"></path><path d="M751.25 238.94L666.83 336.79" stroke="hsla(207.89999999999998, 72.8%, 54.3%, 0.24)" stroke-width="1.5"></path><path d="M751.25 238.94L657.78 142.96" stroke="hsla(207.89999999999998, 72.8%, 54.3%, 0.24)" stroke-width="1.5"></path><path d="M751.25 238.94L576.55 247.16" stroke="hsla(207.89999999999998, 72.8%, 54.3%, 0.24)" stroke-width="1.5"></path><path d="M780.88 292.9L780.88 292.9" stroke="hsla(207.89999999999998, 72.8%, 54.3%, 0.24)" stroke-width="1.5"></path><path d="M780.88 292.9L677.49 218.15" stroke="hsla(207.89999999999998, 72.8%, 54.3%, 0.24)" stroke-width="1.5"></path><path d="M780.88 292.9L657.78 142.96" stroke="hsla(207.89999999999998, 72.8%, 54.3%, 0.24)" stroke-width="1.5"></path><path d="M780.88 292.9L575.21 305.8" stroke="hsla(207.89999999999998, 72.8%, 54.3%, 0.24)" stroke-width="1.5"></path><circle r="25" cx="-54.83" cy="323.68" fill="url(#SvgjsRadialGradient1133)"></circle><circle r="25" cx="485.47" cy="303.71" fill="url(#SvgjsRadialGradient1133)"></circle><circle r="25" cx="591.86" cy="-39.11" fill="url(#SvgjsRadialGradient1133)"></circle><circle r="25" cx="576.55" cy="247.16" fill="url(#SvgjsRadialGradient1133)"></circle><circle r="5" cx="-38.87" cy="205.07" fill="rgba(228, 238, 247, 0.62)"></circle><circle r="5" cx="48.13" cy="236.48" fill="rgba(228, 238, 247, 0.62)"></circle><circle r="5" cx="46.71" cy="306.91" fill="rgba(228, 238, 247, 0.62)"></circle><circle r="5" cx="123.28" cy="202.88" fill="rgba(228, 238, 247, 0.62)"></circle><circle r="5" cx="130.08" cy="326.96" fill="rgba(228, 238, 247, 0.62)"></circle><circle r="5" cx="206.75" cy="219.56" fill="rgba(228, 238, 247, 0.62)"></circle><circle r="5" cx="221.34" cy="298.28" fill="rgba(228, 238, 247, 0.62)"></circle><circle r="5" cx="333.31" cy="145.11" fill="rgba(228, 238, 247, 0.62)"></circle><circle r="5" cx="305.51" cy="203.94" fill="rgba(228, 238, 247, 0.62)"></circle><circle r="5" cx="294.13" cy="295.35" fill="rgba(228, 238, 247, 0.62)"></circle><circle r="5" cx="415.17" cy="132.75" fill="rgba(228, 238, 247, 0.62)"></circle><circle r="5" cx="398.99" cy="309.14" fill="rgba(228, 238, 247, 0.62)"></circle><circle r="5" cx="482.57" cy="128.64" fill="rgba(228, 238, 247, 0.62)"></circle><circle r="5" cx="493.76" cy="231.61" fill="rgba(228, 238, 247, 0.62)"></circle><circle r="5" cx="598.73" cy="62.35" fill="rgba(228, 238, 247, 0.62)"></circle><circle r="5" cx="604.18" cy="131.71" fill="rgba(228, 238, 247, 0.62)"></circle><circle r="5" cx="575.21" cy="305.8" fill="rgba(228, 238, 247, 0.62)"></circle><circle r="5" cx="665.63" cy="-63.63" fill="rgba(228, 238, 247, 0.62)"></circle><circle r="5" cx="659.83" cy="43.12" fill="rgba(228, 238, 247, 0.62)"></circle><circle r="5" cx="657.78" cy="142.96" fill="rgba(228, 238, 247, 0.62)"></circle><circle r="5" cx="677.49" cy="218.15" fill="rgba(228, 238, 247, 0.62)"></circle><circle r="5" cx="666.83" cy="336.79" fill="rgba(228, 238, 247, 0.62)"></circle><circle r="5" cx="781.02" cy="-63.69" fill="rgba(228, 238, 247, 0.62)"></circle><circle r="5" cx="778.27" cy="41.8" fill="rgba(228, 238, 247, 0.62)"></circle><circle r="5" cx="775.48" cy="141.52" fill="rgba(228, 238, 247, 0.62)"></circle><circle r="5" cx="751.25" cy="238.94" fill="rgba(228, 238, 247, 0.62)"></circle><circle r="5" cx="780.88" cy="292.9" fill="rgba(228, 238, 247, 0.62)"></circle></g><defs><mask id="SvgjsMask1132"><rect width="720" height="200" fill="#ffffff"></rect></mask><radialGradient id="SvgjsRadialGradient1133"><stop stop-color="#ffffff" offset="0.1"></stop><stop stop-color="rgba(29, 112, 184, 0.24)" offset="0.2"></stop><stop stop-color="rgba(29, 112, 184, 0)" offset="1"></stop></radialGradient></defs></svg>